<svg width="164" height="164" viewBox="0 0 164 164" fill="none" xmlns="http://www.w3.org/2000/svg">
<path d="M163.5 82C163.5 127.011 127.011 163.5 82 163.5C36.9888 163.5 0.5 127.011 0.5 82C0.5 36.9888 36.9888 0.5 82 0.5C127.011 0.5 163.5 36.9888 163.5 82Z" fill="#E6E5E3" stroke="#3C604F"/>
<path d="M139.339 86.5583C139.54 85.2757 139.935 84.3166 140.523 83.6808C141.118 83.046 141.948 82.7862 143.012 82.9015C144.146 83.0244 144.931 83.4985 145.368 84.3238C145.812 85.1577 145.956 86.297 145.799 87.7417L145.173 93.5204L134.315 92.3438L134.489 90.736L138.835 91.2069L139.116 88.6088L135.2 84.1767L135.445 81.9165L139.339 86.5583ZM142.839 84.4976C142.233 84.432 141.739 84.6378 141.357 85.1151C140.975 85.6001 140.734 86.297 140.636 87.2057L140.186 91.3533L143.984 91.7649L144.434 87.6173C144.532 86.7086 144.443 85.9759 144.165 85.4193C143.887 84.8705 143.445 84.5633 142.839 84.4976Z" fill="#3C604F"/>
<path d="M133.418 111.603C132.643 111.251 131.993 110.811 131.47 110.281C130.947 109.752 130.554 109.162 130.292 108.511C130.034 107.87 129.917 107.182 129.942 106.447C129.967 105.712 130.154 104.96 130.503 104.192C130.742 103.665 131.07 103.197 131.488 102.786C131.903 102.383 132.396 102.053 132.967 101.797L128.091 99.5831L128.755 98.1213L142.679 104.444L142.015 105.906L141.098 105.489C141.456 106.742 141.399 107.887 140.927 108.926C140.579 109.694 140.136 110.329 139.599 110.832C139.069 111.338 138.47 111.701 137.804 111.922C137.141 112.153 136.431 112.242 135.674 112.19C134.924 112.141 134.172 111.946 133.418 111.603ZM134.082 110.142C134.637 110.393 135.191 110.551 135.746 110.614C136.305 110.688 136.831 110.652 137.326 110.508C137.821 110.363 138.273 110.114 138.683 109.76C139.089 109.412 139.425 108.947 139.69 108.364C139.942 107.809 140.074 107.243 140.088 106.665C140.098 106.095 139.969 105.491 139.7 104.855L134.365 102.432C133.709 102.649 133.173 102.95 132.757 103.337C132.338 103.73 132.003 104.204 131.751 104.759C131.486 105.342 131.357 105.901 131.363 106.436C131.366 106.978 131.475 107.482 131.692 107.95C131.909 108.417 132.222 108.834 132.63 109.199C133.043 109.576 133.527 109.89 134.082 110.142Z" fill="#3C604F"/>
<path d="M130.379 112.505C130.926 112.922 131.279 113.406 131.437 113.959C131.602 114.516 131.622 115.096 131.497 115.699C131.374 116.312 131.141 116.94 130.799 117.583C130.458 118.236 130.061 118.862 129.606 119.458C129.431 119.688 129.272 119.891 129.129 120.067C128.98 120.248 128.839 120.415 128.703 120.567C128.563 120.726 128.42 120.882 128.273 121.035C128.127 121.189 127.965 121.356 127.789 121.536L128.414 122.011C128.836 122.333 129.255 122.505 129.671 122.527C130.082 122.555 130.466 122.494 130.825 122.345C131.19 122.201 131.515 122.007 131.8 121.762C132.091 121.522 132.314 121.299 132.47 121.094C132.963 120.448 133.33 119.785 133.572 119.105C133.815 118.426 133.97 117.738 134.037 117.044L135.438 117.197C135.357 117.96 135.17 118.741 134.877 119.539C134.585 120.348 134.144 121.141 133.552 121.918C133.192 122.39 132.777 122.806 132.308 123.165C131.839 123.535 131.34 123.803 130.811 123.97C130.283 124.147 129.731 124.188 129.155 124.093C128.58 123.999 128.006 123.733 127.434 123.298L121.747 118.967L122.726 117.681L124.181 118.788C124.071 118.352 124.02 117.91 124.026 117.463C124.028 117.022 124.079 116.594 124.179 116.18C124.285 115.769 124.422 115.383 124.59 115.02C124.752 114.652 124.94 114.329 125.153 114.049C126.028 112.899 126.912 112.197 127.803 111.943C128.694 111.688 129.552 111.876 130.379 112.505ZM126.244 114.88C125.837 115.414 125.55 115.952 125.383 116.493C125.218 117.045 125.141 117.56 125.15 118.038C125.159 118.516 125.235 118.938 125.379 119.303C125.519 119.675 125.697 119.943 125.915 120.109L126.735 120.733C127.115 120.364 127.454 119.989 127.754 119.609C128.049 119.234 128.303 118.907 128.516 118.628C128.866 118.168 129.173 117.7 129.438 117.223C129.697 116.753 129.876 116.305 129.975 115.88C130.079 115.459 130.093 115.066 130.016 114.703C129.939 114.34 129.736 114.033 129.406 113.782C129.04 113.503 128.566 113.422 127.986 113.54C127.406 113.669 126.826 114.115 126.244 114.88Z" fill="#3C604F"/>
<path d="M117.917 133.34C117.574 132.934 117.394 132.432 117.378 131.832C117.361 131.242 117.604 130.653 118.108 130.063C117.469 130.42 116.83 130.56 116.194 130.485C115.556 130.42 115.056 130.173 114.692 129.744C114.355 129.344 114.157 128.892 114.099 128.389C114.047 127.891 114.115 127.373 114.304 126.834C114.488 126.301 114.785 125.763 115.196 125.221C115.603 124.673 116.104 124.147 116.701 123.642C117.655 122.835 118.566 122.316 119.434 122.083C120.301 121.862 121.174 121.891 122.054 122.17L121.695 123.487C121.051 123.294 120.389 123.292 119.708 123.478C119.027 123.665 118.32 124.069 117.586 124.689C116.709 125.431 116.112 126.165 115.796 126.893C115.474 127.625 115.515 128.23 115.919 128.707C116.055 128.868 116.245 128.984 116.488 129.054C116.731 129.136 117.007 129.153 117.315 129.107C117.629 129.067 117.968 128.959 118.332 128.785C118.701 128.616 119.088 128.36 119.494 128.017L120.89 126.837L121.768 127.875L120.371 129.056C119.59 129.716 119.127 130.343 118.983 130.935C118.838 131.538 118.895 131.992 119.152 132.296C119.525 132.738 120.067 132.883 120.778 132.732C121.484 132.586 122.26 132.155 123.107 131.439C123.811 130.843 124.287 130.226 124.534 129.587C124.782 128.948 124.852 128.317 124.743 127.692L126.186 127.547C126.326 128.451 126.224 129.305 125.88 130.108C125.529 130.915 124.898 131.705 123.985 132.477C123.406 132.966 122.827 133.353 122.249 133.637C121.67 133.932 121.114 134.121 120.58 134.204C120.046 134.297 119.546 134.269 119.082 134.12C118.623 133.976 118.235 133.716 117.917 133.34Z" fill="#3C604F"/>
<path d="M106.429 143.567L105.374 128.697C105.292 127.877 105.443 127.235 105.828 126.772C106.209 126.302 106.698 125.912 107.294 125.603C107.96 125.257 108.689 125.034 109.48 124.931L109.836 126.305C109.438 126.335 109.069 126.403 108.728 126.509C108.383 126.609 108.114 126.709 107.92 126.809C107.448 127.054 107.185 127.336 107.13 127.654C107.068 127.977 107.053 128.328 107.083 128.709L107.25 130.483L116.75 138.217L115.064 139.091L107.173 132.423L108.135 142.682L106.429 143.567Z" fill="#3C604F"/>
<path d="M90.5612 137.094L92.1268 136.689L94.2966 145.073L95.4765 138.921L96.5883 138.633L100.638 143.432L98.4686 135.048L100.023 134.646L102.759 145.219L100.74 145.742L96.5902 140.933L95.3171 147.145L93.2977 147.668L90.5612 137.094Z" fill="#3C604F"/>
<path d="M81.9496 149.194L80.3476 149.089L80.9252 140.295L74.454 148.701L72.1972 148.553L72.913 137.655L74.5267 137.761L73.923 146.952L80.6775 138.165L82.6654 138.295L81.9496 149.194Z" fill="#3C604F"/>
<path d="M58.7958 142.362C58.9464 141.853 59.2679 141.426 59.7604 141.083C60.2432 140.745 60.8694 140.625 61.639 140.722C60.9896 140.383 60.5216 139.927 60.2349 139.354C59.9385 138.786 59.87 138.232 60.0294 137.692C60.1778 137.19 60.4466 136.777 60.8359 136.452C61.2229 136.135 61.6934 135.907 62.2474 135.769C62.7938 135.629 63.4065 135.582 64.0854 135.628C64.7665 135.667 65.4817 135.797 66.2309 136.018C67.4296 136.372 68.3643 136.848 69.035 137.446C69.696 138.048 70.1518 138.794 70.4023 139.683L69.1043 140.106C68.9116 139.462 68.5501 138.907 68.0199 138.441C67.4897 137.975 66.7638 137.605 65.8423 137.333C64.7409 137.007 63.7996 136.912 63.0181 137.048C62.2292 137.182 61.7462 137.548 61.569 138.147C61.5092 138.35 61.5169 138.572 61.592 138.814C61.6573 139.061 61.7941 139.301 62.0024 139.534C62.2084 139.774 62.4843 139.998 62.8301 140.206C63.1737 140.422 63.6003 140.605 64.1097 140.756L65.8629 141.274L65.4776 142.577L63.7244 142.059C62.743 141.769 61.9653 141.727 61.3914 141.932C60.8079 142.142 60.4596 142.439 60.3467 142.821C60.1828 143.375 60.3594 143.908 60.8763 144.419C61.3857 144.928 62.1724 145.34 63.2363 145.654C64.1203 145.916 64.8973 145.974 65.5672 145.83C66.2371 145.686 66.8031 145.397 67.2653 144.963L68.1791 146.089C67.5007 146.703 66.7315 147.086 65.8716 147.24C65.0041 147.391 63.9973 147.297 62.851 146.958C62.1242 146.743 61.4833 146.472 60.9282 146.145C60.3635 145.824 59.8999 145.462 59.5376 145.062C59.1655 144.667 58.9146 144.234 58.7847 143.764C58.6526 143.302 58.6563 142.834 58.7958 142.362Z" fill="#3C604F"/>
<path d="M41.3467 132.77C41.6498 132.334 42.0889 132.03 42.6643 131.859C43.2288 131.69 43.8612 131.772 44.5613 132.106C44.0512 131.581 43.7501 131 43.6581 130.366C43.5553 129.733 43.6642 129.186 43.9851 128.724C44.2836 128.294 44.6687 127.986 45.1404 127.8C45.6076 127.62 46.1257 127.552 46.6949 127.595C47.2576 127.634 47.854 127.782 48.4841 128.039C49.1187 128.289 49.7569 128.637 50.3986 129.083C51.4253 129.796 52.1632 130.541 52.6122 131.319C53.0504 132.099 53.2488 132.95 53.2074 133.873L51.8422 133.866C51.8615 133.195 51.6926 132.554 51.3358 131.945C50.9789 131.336 50.4058 130.757 49.6165 130.209C48.6732 129.554 47.8093 129.168 47.0248 129.051C46.234 128.93 45.6603 129.126 45.3038 129.64C45.1835 129.813 45.1209 130.026 45.1161 130.28C45.1004 130.535 45.1549 130.806 45.2795 131.092C45.3996 131.385 45.5912 131.684 45.8541 131.991C46.1126 132.303 46.46 132.611 46.8963 132.914L48.3979 133.957L47.6226 135.073L46.121 134.031C45.2803 133.447 44.5554 133.162 43.9462 133.177C43.326 133.193 42.9023 133.365 42.6751 133.692C42.3453 134.167 42.3455 134.729 42.6757 135.376C42.9994 136.02 43.6168 136.658 44.5281 137.29C45.2853 137.816 46.0045 138.116 46.6858 138.189C47.3671 138.263 47.9952 138.167 48.5702 137.9L49.0841 139.256C48.2471 139.626 47.3963 139.748 46.5318 139.623C45.6609 139.494 44.7345 139.089 43.7527 138.407C43.1303 137.975 42.6069 137.516 42.1827 137.031C41.7475 136.548 41.4209 136.06 41.2027 135.566C40.9736 135.074 40.8713 134.585 40.8957 134.097C40.9157 133.617 41.066 133.174 41.3467 132.77Z" fill="#3C604F"/>
<path d="M39.4618 127.421C40.2351 126.554 40.6297 125.62 40.6457 124.62C40.6617 123.619 40.2765 122.69 39.49 121.832C38.9358 121.227 38.3184 120.802 37.638 120.557C36.9575 120.312 36.3247 120.24 35.7397 120.341L35.5498 118.989C36.4838 118.875 37.3565 118.96 38.168 119.245C38.9737 119.534 39.7514 120.088 40.5009 120.906C41.0709 121.528 41.4898 122.193 41.7575 122.901C42.0251 123.61 42.1489 124.323 42.1286 125.041C42.0973 125.758 41.9203 126.456 41.5977 127.133C41.2751 127.81 40.7999 128.436 40.1721 129.012C39.5615 129.571 38.9155 129.993 38.234 130.279C37.5414 130.564 36.8469 130.702 36.1506 130.694C35.4432 130.685 34.7536 130.522 34.0817 130.206C33.4041 129.894 32.7777 129.424 32.2023 128.796C31.5742 128.111 31.1405 127.406 30.9011 126.683C30.6618 125.959 30.5908 125.24 30.6884 124.525C30.7749 123.81 31.0265 123.113 31.4431 122.435C31.8545 121.751 32.4029 121.094 33.0884 120.466L39.4618 127.421ZM33.2255 122.645C32.4657 123.585 32.102 124.507 32.1345 125.409C32.167 126.312 32.5237 127.135 33.2046 127.878C33.5529 128.258 33.9382 128.552 34.3605 128.758C34.7771 128.97 35.214 129.094 35.6714 129.13C36.1287 129.167 36.5981 129.118 37.0795 128.984C37.5551 128.856 38.007 128.638 38.4351 128.33L33.2255 122.645Z" fill="#3C604F"/>
<path d="M30.5888 107.43L31.3959 108.831L23.8914 113.153L30.1356 112.654L30.7087 113.649L27.1608 118.83L34.6653 114.508L35.4665 115.899L26.0021 121.35L24.9611 119.543L28.4927 114.263L22.1655 114.688L21.1244 112.881L30.5888 107.43Z" fill="#3C604F"/>
<path d="M15.9903 99.1851L26.4285 95.9709L26.9044 97.5164L17.7766 100.327L19.2285 105.042L26.038 102.945C26.4486 102.819 26.8363 102.777 27.2011 102.82C27.5635 102.856 27.8886 102.956 28.1764 103.121C28.4642 103.286 28.7113 103.504 28.9175 103.775C29.1313 104.045 29.2899 104.347 29.3933 104.683C29.5864 105.311 29.6345 105.798 29.5375 106.147L28.2236 106.221C28.2586 106.095 28.2715 105.965 28.2623 105.829C28.2508 105.685 28.2117 105.505 28.145 105.288C27.9013 104.497 27.3576 104.231 26.5139 104.491L18.394 106.991L15.9903 99.1851Z" fill="#3C604F"/>
<path d="M14.7704 94.5374L14.6467 92.9367L23.433 92.2575L14.1915 87.048L14.0172 84.793L24.9066 83.9513L25.0312 85.5637L15.8477 86.2736L25.5063 91.7094L25.6598 93.6957L14.7704 94.5374Z" fill="#3C604F"/>
<path d="M23.049 63.4998L19.8629 76.208L18.6352 75.9002L21.8214 63.192L23.049 63.4998Z" fill="#3C604F"/>
<path d="M31.1489 49.1135C30.3063 50.1013 29.4684 50.7126 28.6352 50.9473C27.7958 51.1773 26.9527 50.965 26.1059 50.3104C25.2035 49.6127 24.7817 48.7979 24.8407 47.8659C24.8982 46.9228 25.3713 45.8765 26.26 44.7268L29.815 40.1282L38.456 46.8081L37.4669 48.0875L34.0086 45.4141L32.4103 47.4817L33.4317 53.3074L32.0413 55.106L31.1489 49.1135ZM27.0878 49.0402C27.5699 49.4129 28.0985 49.4956 28.6734 49.2883C29.2532 49.0749 29.8226 48.6066 30.3816 47.8834L32.9331 44.5827L29.9107 42.2462L27.3591 45.5469C26.8001 46.27 26.4934 46.9414 26.439 47.561C26.3894 48.1744 26.6057 48.6675 27.0878 49.0402Z" fill="#3C604F"/>
<path d="M51.8929 35.5985L50.5545 36.5063L49.9888 35.6722C49.8397 36.2737 49.5971 36.8206 49.2608 37.313C48.931 37.801 48.5269 38.2072 48.0484 38.5317C47.3307 39.0185 46.6085 39.3385 45.8816 39.4916C45.1548 39.6448 44.4538 39.6482 43.7788 39.5019C43.1058 39.3448 42.4653 39.0476 41.8572 38.6104C41.2556 38.1688 40.7202 37.6021 40.251 36.9103C39.7862 36.225 39.4599 35.5212 39.2721 34.7989C39.0864 34.0659 39.0472 33.3608 39.1544 32.6839C39.2638 31.9962 39.524 31.3429 39.9351 30.7243C40.3418 30.0991 40.904 29.5432 41.6217 29.0564C42.1002 28.7319 42.6249 28.5034 43.1959 28.371C43.769 28.2278 44.3624 28.1981 44.9763 28.2821L42.7398 24.9846L40.9359 26.2081L40.1663 25.0734L43.3086 22.9421L51.8929 35.5985ZM45.8512 29.572C45.1847 29.4104 44.5616 29.3894 43.9818 29.5089C43.4085 29.6239 42.8697 29.8525 42.3654 30.1946C41.8352 30.5542 41.43 30.9659 41.1499 31.4296C40.8762 31.889 40.7132 32.3725 40.6609 32.8799C40.6086 33.3874 40.6604 33.9092 40.8164 34.4453C40.9744 34.9706 41.2289 35.4919 41.5797 36.0091C41.9305 36.5264 42.3229 36.9588 42.7569 37.3064C43.193 37.6431 43.6564 37.881 44.1472 38.0201C44.638 38.1592 45.1475 38.1865 45.6755 38.1021C46.21 38.0134 46.7424 37.7892 47.2726 37.4296C48.2941 36.7367 48.9123 35.7274 49.1271 34.4018L45.8512 29.572Z" fill="#3C604F"/>
<path d="M53.0009 29.2311C53.5323 30.2646 54.2618 30.9687 55.1893 31.3433C56.1168 31.7178 57.1224 31.6925 58.206 31.2672C58.9696 30.9676 59.5882 30.5444 60.0618 29.9976C60.5355 29.4509 60.83 28.8863 60.9456 28.3038L62.2754 28.6128C62.046 29.5253 61.6528 30.3091 61.0957 30.9641C60.5358 31.6118 59.7395 32.1383 58.7068 32.5436C57.9214 32.8518 57.1501 33.0034 56.3928 32.9985C55.6355 32.9935 54.9256 32.8525 54.2629 32.5754C53.6047 32.2882 53.0177 31.8724 52.5019 31.3279C51.986 30.7833 51.5726 30.1147 51.2615 29.322C50.959 28.5511 50.7971 27.7964 50.7758 27.0578C50.7589 26.3091 50.8796 25.6113 51.1377 24.9645C51.4002 24.3076 51.8001 23.7226 52.3374 23.2097C52.8717 22.6895 53.5353 22.2738 54.328 21.9627C55.1934 21.6231 56.0069 21.4717 56.7683 21.5086C57.5297 21.5455 58.2263 21.738 58.858 22.0859C59.4941 22.4238 60.0538 22.9091 60.5371 23.5419C61.0277 24.1718 61.4428 24.9195 61.7825 25.785L53.0009 29.2311ZM59.6998 25.1294C59.0959 24.0823 58.3669 23.4116 57.5129 23.1173C56.6588 22.823 55.7627 22.86 54.8246 23.2281C54.3446 23.4165 53.9324 23.6706 53.5879 23.9904C53.2406 24.303 52.9676 24.666 52.7691 25.0797C52.5705 25.4933 52.4471 25.9487 52.3989 26.446C52.3478 26.9361 52.3888 27.4361 52.5218 27.9462L59.6998 25.1294Z" fill="#3C604F"/>
<path d="M80.7877 24.3896C80.7249 25.5431 80.3217 26.4803 79.5783 27.2012C78.8423 27.9139 77.8931 28.3016 76.7307 28.3645C76.0911 28.3991 75.5003 28.3254 74.9584 28.1434C74.4165 27.9615 73.9483 27.6934 73.5536 27.3392C73.1589 26.985 72.8421 26.5523 72.6032 26.041C72.3717 25.5215 72.239 24.9497 72.2053 24.3256L71.906 18.7907L69.4369 18.9242L69.3629 17.5551L71.832 17.4216L71.5959 13.0569L73.1991 12.9702L73.4351 17.3349L78.0806 17.0837L78.1547 18.4528L73.5091 18.704L73.8084 24.2389C73.8299 24.6368 73.9126 25.0078 74.0564 25.3521C74.208 25.696 74.4041 25.9945 74.6446 26.2475C74.893 26.5 75.1852 26.6955 75.5213 26.8338C75.857 26.9643 76.2355 27.0182 76.6567 26.9954C77.4524 26.9523 78.1022 26.6708 78.6061 26.1506C79.1174 25.6222 79.3908 24.962 79.4262 24.1698L80.7877 24.3896Z" fill="#3C604F"/>
<path d="M84.777 23.0384C84.6977 24.1979 84.9581 25.1777 85.5584 25.9778C86.1587 26.7779 87.0326 27.2761 88.18 27.4723C88.9886 27.6105 89.7369 27.5681 90.425 27.3449C91.1131 27.1217 91.6571 26.7907 92.0571 26.3519L93.0357 27.3038C92.3676 27.9663 91.6258 28.434 90.8104 28.7067C89.9962 28.9717 89.0424 29.0107 87.9489 28.8238C87.1172 28.6815 86.3786 28.4126 85.7329 28.0169C85.0872 27.6211 84.5524 27.1334 84.1284 26.5536C83.7135 25.9675 83.426 25.3081 83.2659 24.5753C83.1059 23.8425 83.0976 23.0564 83.2411 22.2171C83.3807 21.4008 83.6323 20.671 83.9959 20.0278C84.3685 19.3782 84.8325 18.8433 85.3878 18.423C85.9522 17.9964 86.5969 17.7024 87.322 17.5411C88.0483 17.372 88.8312 17.3592 89.6706 17.5028C90.587 17.6594 91.3615 17.9504 91.9942 18.3756C92.6269 18.8008 93.1237 19.3257 93.4846 19.9501C93.8545 20.5681 94.0827 21.2729 94.1693 22.0645C94.2636 22.8573 94.2324 23.712 94.0757 24.6284L84.777 23.0384ZM92.6318 22.9905C92.6562 21.782 92.3789 20.831 91.8 20.1376C91.2211 19.4442 90.4349 19.0125 89.4415 18.8427C88.9333 18.7558 88.449 18.7602 87.9888 18.8559C87.5299 18.9438 87.1086 19.1135 86.7248 19.3649C86.341 19.6164 85.9999 19.9424 85.7015 20.3432C85.4045 20.7363 85.181 21.1855 85.0312 21.6909L92.6318 22.9905Z" fill="#3C604F"/>
<path d="M107.603 24.7234C107.179 24.2352 106.6 23.8385 105.863 23.5336C105.257 23.2825 104.662 23.1882 104.078 23.2507C103.494 23.3133 102.948 23.4887 102.439 23.777C101.934 24.0582 101.477 24.4356 101.07 24.9095C100.672 25.3791 100.354 25.9026 100.115 26.48L98.7649 29.7389L101.049 30.6851L100.525 31.9518L94.4725 29.4451L94.9972 28.1783L97.2817 29.1245L100.412 21.5674L98.1272 20.6212L98.6519 19.3545L102.42 20.915L101.37 23.4485C102.814 21.8817 104.485 21.4915 106.383 22.2777C106.896 22.49 107.326 22.7063 107.675 22.9267C108.03 23.1501 108.336 23.4121 108.592 23.7126L107.603 24.7234Z" fill="#3C604F"/>
<path d="M119.671 32.1827C119.365 31.6133 118.887 31.0989 118.236 30.6396C117.699 30.2614 117.139 30.0386 116.556 29.9712C115.972 29.9039 115.401 29.955 114.842 30.1245C114.287 30.2877 113.759 30.5556 113.257 30.9282C112.766 31.2989 112.34 31.7397 111.98 32.2504L109.947 35.133L111.968 36.5581L111.177 37.6786L105.824 33.9029L106.614 32.7825L108.635 34.2076L113.349 27.5232L111.329 26.0981L112.119 24.9776L115.452 27.3281L113.871 29.569C115.624 28.3579 117.34 28.3445 119.019 29.5287C119.472 29.8484 119.845 30.1541 120.136 30.4457C120.434 30.7418 120.675 31.0646 120.859 31.4141L119.671 32.1827Z" fill="#3C604F"/>
<path d="M118.266 38.9041C118.777 38.4433 119.318 38.186 119.89 38.1322C120.469 38.0731 121.042 38.1604 121.611 38.394C122.191 38.6282 122.766 38.9728 123.334 39.4276C123.914 39.8831 124.455 40.3891 124.958 40.9457C125.152 41.1602 125.321 41.3542 125.468 41.5276C125.619 41.7068 125.757 41.877 125.881 42.0382C126.011 42.2052 126.138 42.3748 126.262 42.5471C126.386 42.7193 126.52 42.9087 126.664 43.1152L127.247 42.589C127.641 42.2329 127.888 41.8527 127.986 41.4484C128.089 41.0498 128.1 40.6605 128.02 40.2802C127.946 39.8948 127.814 39.5396 127.626 39.2147C127.444 38.8846 127.266 38.6239 127.094 38.4326C126.549 37.8296 125.965 37.3463 125.342 36.9827C124.719 36.619 124.072 36.34 123.402 36.1454L123.811 34.7972C124.546 35.0172 125.279 35.3449 126.009 35.7803C126.75 36.2163 127.448 36.7967 128.103 37.5215C128.501 37.9621 128.833 38.4464 129.099 38.9744C129.376 39.503 129.548 40.0427 129.614 40.5937C129.691 41.1452 129.63 41.6953 129.43 42.2438C129.231 42.7923 128.864 43.3074 128.331 43.7892L123.026 48.5803L121.942 47.3801L123.299 46.1548C122.849 46.1817 122.406 46.1508 121.968 46.0621C121.535 45.9793 121.124 45.8505 120.734 45.6758C120.351 45.4958 119.996 45.2897 119.671 45.0574C119.339 44.8303 119.056 44.5863 118.82 44.3254C117.851 43.2528 117.324 42.2552 117.238 41.3326C117.153 40.41 117.495 39.6005 118.266 38.9041ZM119.838 43.4065C120.288 43.9051 120.764 44.2861 121.265 44.5495C121.777 44.8134 122.269 44.985 122.74 45.0643C123.212 45.1437 123.64 45.1461 124.026 45.0717C124.417 45.0031 124.713 44.8772 124.916 44.6939L125.682 44.0027C125.389 43.5619 125.083 43.1591 124.764 42.7944C124.451 42.4355 124.176 42.1256 123.94 41.8647C123.553 41.4356 123.149 41.0472 122.73 40.6995C122.316 40.3576 121.909 40.099 121.508 39.9238C121.114 39.7433 120.731 39.6574 120.36 39.6662C119.989 39.6749 119.65 39.8181 119.342 40.0956C119 40.4045 118.834 40.8551 118.842 41.4474C118.862 42.0403 119.194 42.6933 119.838 43.4065Z" fill="#3C604F"/>
<path d="M136.824 63.1522L131.496 51.1829L132.653 50.6682L137.981 62.6375L136.824 63.1522Z" fill="#3C604F"/>
</svg>
