<svg width="164" height="164" viewBox="0 0 164 164" fill="none" xmlns="http://www.w3.org/2000/svg">
<path d="M163.5 82C163.5 127.011 127.011 163.5 82 163.5C36.9888 163.5 0.5 127.011 0.5 82C0.5 36.9888 36.9888 0.5 82 0.5C127.011 0.5 163.5 36.9888 163.5 82Z" fill="#E6E5E3" stroke="#3A592E"/>
<path d="M141.339 86.5583C141.541 85.2757 141.935 84.3166 142.523 83.6808C143.118 83.046 143.948 82.7862 145.012 82.9015C146.146 83.0244 146.931 83.4985 147.368 84.3238C147.812 85.1577 147.956 86.297 147.8 87.7417L147.173 93.5204L136.315 92.3438L136.489 90.736L140.835 91.2069L141.117 88.6088L137.2 84.1767L137.445 81.9165L141.339 86.5583ZM144.839 84.4976C144.233 84.432 143.739 84.6378 143.358 85.1151C142.975 85.6001 142.734 86.297 142.636 87.2057L142.186 91.3533L145.985 91.7649L146.434 87.6173C146.532 86.7086 146.443 85.9759 146.165 85.4193C145.887 84.8705 145.445 84.5633 144.839 84.4976Z" fill="#3A592E"/>
<path d="M135.418 111.603C134.643 111.251 133.993 110.811 133.47 110.281C132.947 109.752 132.554 109.162 132.292 108.511C132.034 107.87 131.917 107.182 131.942 106.447C131.967 105.712 132.154 104.96 132.503 104.192C132.742 103.665 133.07 103.197 133.489 102.786C133.904 102.383 134.396 102.053 134.967 101.797L130.091 99.5831L130.755 98.1213L144.679 104.444L144.016 105.906L143.098 105.489C143.456 106.742 143.399 107.887 142.928 108.926C142.579 109.694 142.136 110.329 141.599 110.832C141.069 111.338 140.47 111.701 139.804 111.922C139.141 112.153 138.431 112.242 137.674 112.19C136.924 112.141 136.172 111.946 135.418 111.603ZM136.082 110.142C136.637 110.393 137.192 110.551 137.746 110.614C138.305 110.688 138.832 110.652 139.326 110.508C139.821 110.363 140.273 110.114 140.683 109.76C141.089 109.412 141.425 108.947 141.69 108.364C141.942 107.809 142.074 107.243 142.088 106.665C142.098 106.095 141.969 105.491 141.7 104.855L136.365 102.432C135.709 102.649 135.173 102.95 134.757 103.337C134.339 103.73 134.003 104.204 133.751 104.759C133.486 105.342 133.357 105.901 133.363 106.436C133.366 106.978 133.476 107.482 133.692 107.95C133.909 108.417 134.222 108.834 134.631 109.199C135.043 109.576 135.527 109.89 136.082 110.142Z" fill="#3A592E"/>
<path d="M132.379 112.505C132.926 112.921 133.279 113.406 133.437 113.959C133.602 114.516 133.622 115.096 133.497 115.698C133.374 116.311 133.141 116.939 132.799 117.582C132.458 118.236 132.061 118.861 131.607 119.458C131.431 119.688 131.272 119.891 131.129 120.066C130.98 120.248 130.839 120.415 130.703 120.567C130.563 120.725 130.42 120.881 130.273 121.035C130.127 121.188 129.965 121.355 129.789 121.535L130.414 122.011C130.836 122.333 131.255 122.505 131.671 122.526C132.082 122.554 132.466 122.494 132.825 122.345C133.19 122.201 133.515 122.006 133.8 121.761C134.091 121.521 134.314 121.299 134.47 121.094C134.963 120.447 135.33 119.784 135.572 119.105C135.815 118.425 135.97 117.738 136.038 117.043L137.438 117.196C137.357 117.96 137.171 118.741 136.877 119.538C136.585 120.347 136.144 121.14 135.552 121.917C135.192 122.389 134.778 122.805 134.308 123.164C133.839 123.534 133.341 123.803 132.811 123.969C132.283 124.146 131.731 124.188 131.156 124.093C130.58 123.998 130.006 123.733 129.434 123.298L123.747 118.967L124.726 117.68L126.181 118.788C126.071 118.351 126.02 117.909 126.026 117.462C126.028 117.022 126.079 116.594 126.179 116.179C126.285 115.769 126.422 115.382 126.59 115.02C126.752 114.652 126.94 114.328 127.153 114.049C128.028 112.899 128.912 112.197 129.803 111.942C130.694 111.688 131.552 111.875 132.379 112.505ZM128.244 114.879C127.837 115.414 127.55 115.952 127.384 116.493C127.219 117.045 127.141 117.56 127.15 118.038C127.159 118.516 127.235 118.938 127.379 119.303C127.519 119.674 127.697 119.943 127.915 120.108L128.735 120.733C129.115 120.364 129.454 119.989 129.754 119.608C130.049 119.234 130.303 118.907 130.516 118.627C130.866 118.167 131.173 117.699 131.438 117.223C131.697 116.753 131.876 116.305 131.975 115.879C132.079 115.458 132.093 115.066 132.016 114.703C131.939 114.34 131.736 114.033 131.407 113.782C131.04 113.503 130.566 113.422 129.986 113.54C129.406 113.668 128.826 114.115 128.244 114.879Z" fill="#3A592E"/>
<path d="M119.917 133.34C119.574 132.934 119.394 132.432 119.378 131.832C119.361 131.242 119.604 130.653 120.108 130.063C119.469 130.42 118.83 130.56 118.194 130.485C117.556 130.42 117.056 130.173 116.692 129.744C116.355 129.344 116.157 128.892 116.099 128.389C116.047 127.891 116.115 127.373 116.304 126.834C116.488 126.301 116.785 125.763 117.196 125.221C117.603 124.673 118.104 124.147 118.701 123.642C119.655 122.835 120.566 122.316 121.434 122.083C122.301 121.862 123.174 121.891 124.054 122.17L123.695 123.487C123.051 123.294 122.389 123.292 121.708 123.478C121.027 123.665 120.32 124.069 119.586 124.689C118.709 125.431 118.112 126.165 117.796 126.893C117.474 127.625 117.515 128.23 117.919 128.707C118.055 128.868 118.245 128.984 118.488 129.054C118.731 129.136 119.007 129.153 119.315 129.107C119.629 129.067 119.968 128.959 120.332 128.785C120.701 128.616 121.088 128.36 121.494 128.017L122.89 126.837L123.768 127.875L122.371 129.056C121.59 129.716 121.127 130.343 120.983 130.935C120.838 131.538 120.895 131.992 121.152 132.296C121.525 132.738 122.067 132.883 122.778 132.732C123.484 132.586 124.26 132.155 125.107 131.439C125.811 130.843 126.287 130.226 126.534 129.587C126.782 128.948 126.852 128.317 126.743 127.692L128.186 127.547C128.326 128.451 128.224 129.305 127.88 130.108C127.529 130.915 126.898 131.705 125.985 132.477C125.406 132.966 124.827 133.353 124.249 133.637C123.67 133.932 123.114 134.121 122.58 134.204C122.046 134.297 121.546 134.269 121.082 134.12C120.623 133.976 120.235 133.716 119.917 133.34Z" fill="#3A592E"/>
<path d="M108.429 143.566L107.374 128.696C107.292 127.876 107.443 127.235 107.828 126.771C108.209 126.301 108.698 125.911 109.294 125.602C109.96 125.257 110.689 125.033 111.48 124.931L111.836 126.304C111.438 126.334 111.069 126.403 110.728 126.509C110.383 126.608 110.114 126.708 109.92 126.809C109.448 127.053 109.185 127.335 109.13 127.654C109.068 127.976 109.052 128.328 109.082 128.708L109.25 130.482L118.75 138.216L117.064 139.09L109.173 132.423L110.135 142.682L108.429 143.566Z" fill="#3A592E"/>
<path d="M92.5612 137.095L94.1268 136.69L96.2966 145.074L97.4765 138.922L98.5883 138.634L102.638 143.432L100.469 135.048L102.023 134.646L104.759 145.22L102.74 145.742L98.5902 140.933L97.3171 147.146L95.2977 147.668L92.5612 137.095Z" fill="#3A592E"/>
<path d="M83.9497 149.194L82.3477 149.089L82.9253 140.295L76.4542 148.701L74.1973 148.553L74.9131 137.655L76.5268 137.761L75.9231 146.952L82.6776 138.165L84.6655 138.295L83.9497 149.194Z" fill="#3A592E"/>
<path d="M60.7959 142.362C60.9465 141.853 61.268 141.426 61.7605 141.083C62.2432 140.745 62.8694 140.625 63.6391 140.722C62.9897 140.383 62.5216 139.927 62.2349 139.354C61.9385 138.786 61.87 138.232 62.0295 137.692C62.1778 137.19 62.4466 136.777 62.8359 136.452C63.223 136.135 63.6935 135.907 64.2474 135.769C64.7939 135.629 65.4066 135.582 66.0855 135.628C66.7666 135.667 67.4817 135.797 68.231 136.018C69.4297 136.372 70.3644 136.848 71.0351 137.446C71.6961 138.048 72.1518 138.794 72.4024 139.683L71.1043 140.106C70.9116 139.462 70.5502 138.907 70.02 138.441C69.4897 137.975 68.7639 137.605 67.8423 137.333C66.741 137.007 65.7996 136.912 65.0182 137.048C64.2293 137.182 63.7462 137.548 63.5691 138.147C63.5093 138.35 63.5169 138.572 63.592 138.814C63.6574 139.061 63.7942 139.301 64.0024 139.534C64.2084 139.774 64.4844 139.998 64.8302 140.206C65.1738 140.422 65.6003 140.605 66.1098 140.756L67.8629 141.274L67.4777 142.577L65.7245 142.059C64.743 141.769 63.9654 141.727 63.3915 141.932C62.8079 142.142 62.4597 142.439 62.3467 142.821C62.1829 143.375 62.3594 143.908 62.8764 144.419C63.3858 144.928 64.1724 145.34 65.2363 145.654C66.1204 145.916 66.8974 145.974 67.5673 145.83C68.2372 145.686 68.8032 145.397 69.2654 144.963L70.1792 146.089C69.5007 146.703 68.7315 147.086 67.8716 147.24C67.0042 147.391 65.9973 147.297 64.851 146.958C64.1243 146.743 63.4834 146.472 62.9283 146.145C62.3635 145.824 61.9 145.462 61.5376 145.062C61.1656 144.667 60.9147 144.234 60.7848 143.764C60.6527 143.302 60.6564 142.834 60.7959 142.362Z" fill="#3A592E"/>
<path d="M43.3467 132.77C43.6497 132.334 44.0889 132.03 44.6643 131.859C45.2288 131.69 45.8611 131.772 46.5613 132.106C46.0511 131.581 45.75 131 45.6581 130.366C45.5552 129.733 45.6642 129.186 45.985 128.724C46.2836 128.294 46.6687 127.986 47.1403 127.8C47.6075 127.62 48.1257 127.552 48.6948 127.595C49.2575 127.634 49.854 127.782 50.4841 128.039C51.1187 128.289 51.7568 128.637 52.3985 129.083C53.4252 129.796 54.1631 130.541 54.6121 131.319C55.0503 132.099 55.2487 132.95 55.2074 133.873L53.8422 133.866C53.8614 133.195 53.6926 132.554 53.3357 131.945C52.9788 131.336 52.4058 130.757 51.6165 130.209C50.6732 129.554 49.8093 129.168 49.0248 129.051C48.2339 128.93 47.6602 129.126 47.3037 129.64C47.1834 129.813 47.1208 130.026 47.116 130.28C47.1004 130.535 47.1548 130.806 47.2794 131.092C47.3996 131.385 47.5911 131.684 47.854 131.991C48.1125 132.303 48.4599 132.611 48.8963 132.914L50.3979 133.957L49.6225 135.073L48.1209 134.031C47.2803 133.447 46.5553 133.162 45.9461 133.177C45.326 133.193 44.9023 133.365 44.675 133.692C44.3453 134.167 44.3455 134.729 44.6756 135.376C44.9993 136.02 45.6168 136.658 46.528 137.29C47.2852 137.816 48.0045 138.116 48.6857 138.189C49.367 138.263 49.9951 138.167 50.5702 137.9L51.0841 139.256C50.247 139.626 49.3963 139.748 48.5318 139.623C47.6608 139.494 46.7345 139.089 45.7526 138.407C45.1302 137.975 44.6068 137.516 44.1826 137.031C43.7475 136.548 43.4208 136.06 43.2026 135.566C42.9736 135.074 42.8712 134.585 42.8957 134.097C42.9156 133.617 43.0659 133.174 43.3467 132.77Z" fill="#3A592E"/>
<path d="M41.4619 127.421C42.2352 126.554 42.6298 125.62 42.6458 124.62C42.6618 123.619 42.2766 122.69 41.4901 121.832C40.9359 121.227 40.3186 120.802 39.6381 120.557C38.9576 120.312 38.3248 120.24 37.7398 120.341L37.55 118.989C38.4839 118.875 39.3566 118.96 40.1681 119.245C40.9739 119.534 41.7515 120.088 42.501 120.906C43.071 121.528 43.4899 122.193 43.7576 122.901C44.0253 123.61 44.149 124.323 44.1287 125.041C44.0974 125.758 43.9204 126.456 43.5978 127.133C43.2752 127.81 42.8 128.436 42.1722 129.012C41.5617 129.571 40.9156 129.993 40.2341 130.279C39.5415 130.564 38.8471 130.702 38.1507 130.694C37.4433 130.685 36.7537 130.522 36.0818 130.206C35.4043 129.894 34.7778 129.424 34.2025 128.796C33.5744 128.111 33.1406 127.406 32.9013 126.683C32.6619 125.959 32.591 125.24 32.6885 124.525C32.775 123.81 33.0266 123.113 33.4433 122.435C33.8546 121.751 34.4031 121.094 35.0885 120.466L41.4619 127.421ZM35.2256 122.645C34.4658 123.585 34.1021 124.507 34.1346 125.409C34.1671 126.312 34.5238 127.135 35.2047 127.878C35.553 128.258 35.9384 128.552 36.3607 128.758C36.7772 128.97 37.2141 129.094 37.6715 129.13C38.1289 129.167 38.5982 129.118 39.0796 128.984C39.5552 128.856 40.0071 128.638 40.4352 128.33L35.2256 122.645Z" fill="#3A592E"/>
<path d="M32.5889 107.43L33.3961 108.832L25.8915 113.154L32.1357 112.655L32.7089 113.65L29.1609 118.831L36.6654 114.508L37.4667 115.9L28.0022 121.351L26.9612 119.543L30.4928 114.263L24.1656 114.689L23.1245 112.881L32.5889 107.43Z" fill="#3A592E"/>
<path d="M17.9903 99.1851L28.4285 95.9709L28.9044 97.5164L19.7766 100.327L21.2285 105.042L28.038 102.945C28.4486 102.819 28.8363 102.777 29.2011 102.82C29.5635 102.856 29.8886 102.956 30.1764 103.121C30.4642 103.286 30.7113 103.504 30.9175 103.775C31.1313 104.045 31.2899 104.347 31.3933 104.683C31.5864 105.311 31.6345 105.798 31.5375 106.147L30.2236 106.221C30.2586 106.095 30.2715 105.965 30.2623 105.829C30.2508 105.685 30.2117 105.505 30.145 105.288C29.9013 104.497 29.3576 104.231 28.5139 104.491L20.394 106.991L17.9903 99.1851Z" fill="#3A592E"/>
<path d="M16.7703 94.5374L16.6466 92.9367L25.4329 92.2575L16.1914 87.048L16.0171 84.793L26.9065 83.9513L27.0311 85.5637L17.8475 86.2736L27.5062 91.7094L27.6597 93.6957L16.7703 94.5374Z" fill="#3A592E"/>
<path d="M25.0491 63.4998L21.863 76.208L20.6353 75.9002L23.8215 63.192L25.0491 63.4998Z" fill="#3A592E"/>
<path d="M33.1489 49.1135C32.3062 50.1013 31.4683 50.7126 30.6351 50.9473C29.7957 51.1773 28.9527 50.965 28.1059 50.3104C27.2034 49.6127 26.7817 48.7979 26.8406 47.8659C26.8981 46.9228 27.3712 45.8765 28.26 44.7268L31.8149 40.1282L40.4559 46.8081L39.4668 48.0875L36.0086 45.4141L34.4103 47.4817L35.4317 53.3074L34.0412 55.106L33.1489 49.1135ZM29.0878 49.0402C29.5699 49.4129 30.0984 49.4956 30.6734 49.2883C31.2531 49.0749 31.8225 48.6066 32.3816 47.8834L34.9331 44.5827L31.9106 42.2462L29.3591 45.5469C28.8 46.27 28.4933 46.9414 28.439 47.561C28.3894 48.1744 28.6057 48.6675 29.0878 49.0402Z" fill="#3A592E"/>
<path d="M53.8929 35.599L52.5545 36.5068L51.9888 35.6727C51.8398 36.2741 51.5971 36.821 51.2609 37.3134C50.9311 37.8015 50.5269 38.2077 50.0485 38.5322C49.3308 39.019 48.6085 39.339 47.8817 39.4921C47.1548 39.6453 46.4539 39.6487 45.7788 39.5024C45.1058 39.3453 44.4653 39.0481 43.8573 38.6109C43.2557 38.1693 42.7203 37.6026 42.2511 36.9108C41.7862 36.2255 41.4599 35.5217 41.2721 34.7994C41.0864 34.0663 41.0472 33.3613 41.1545 32.6844C41.2638 31.9966 41.5241 31.3434 41.9352 30.7248C42.3419 30.0996 42.9041 29.5437 43.6218 29.0569C44.1002 28.7324 44.625 28.5039 45.1959 28.3715C45.769 28.2283 46.3625 28.1986 46.9764 28.2826L44.7399 24.9851L42.936 26.2086L42.1664 25.0739L45.3086 22.9426L53.8929 35.599ZM47.8513 29.5724C47.1848 29.4109 46.5616 29.3899 45.9819 29.5094C45.4085 29.6244 44.8697 29.853 44.3654 30.1951C43.8352 30.5547 43.4301 30.9664 43.1499 31.4301C42.8762 31.8895 42.7132 32.373 42.6609 32.8804C42.6087 33.3879 42.6605 33.9097 42.8165 34.4458C42.9745 34.9711 43.2289 35.4924 43.5798 36.0096C43.9306 36.5269 44.323 36.9593 44.757 37.3068C45.193 37.6436 45.6565 37.8815 46.1473 38.0206C46.6381 38.1597 47.1475 38.187 47.6756 38.1026C48.2101 38.0139 48.7424 37.7897 49.2726 37.4301C50.2942 36.7372 50.9123 35.7279 51.1271 34.4022L47.8513 29.5724Z" fill="#3A592E"/>
<path d="M55.001 29.2311C55.5325 30.2646 56.2619 30.9687 57.1894 31.3433C58.1169 31.7178 59.1225 31.6925 60.2061 31.2672C60.9697 30.9676 61.5883 30.5444 62.062 29.9976C62.5356 29.4509 62.8302 28.8863 62.9457 28.3038L64.2755 28.6128C64.0461 29.5253 63.6529 30.3091 63.0958 30.9641C62.536 31.6118 61.7397 32.1383 60.707 32.5436C59.9215 32.8518 59.1502 33.0034 58.3929 32.9985C57.6356 32.9935 56.9257 32.8525 56.263 32.5754C55.6048 32.2882 55.0178 31.8724 54.502 31.3279C53.9862 30.7833 53.5727 30.1147 53.2616 29.322C52.9591 28.5511 52.7972 27.7964 52.7759 27.0578C52.7591 26.3091 52.8797 25.6113 53.1378 24.9645C53.4003 24.3076 53.8002 23.7226 54.3375 23.2097C54.8719 22.6895 55.5354 22.2738 56.3281 21.9627C57.1936 21.6231 58.007 21.4717 58.7684 21.5086C59.5298 21.5455 60.2264 21.738 60.8581 22.0859C61.4942 22.4238 62.0539 22.9091 62.5373 23.5419C63.0279 24.1718 63.443 24.9195 63.7826 25.785L55.001 29.2311ZM61.6999 25.1294C61.096 24.0823 60.367 23.4116 59.513 23.1173C58.659 22.823 57.7629 22.86 56.8247 23.2281C56.3447 23.4165 55.9325 23.6706 55.588 23.9904C55.2407 24.303 54.9677 24.666 54.7692 25.0797C54.5706 25.4933 54.4472 25.9487 54.399 26.446C54.3479 26.9361 54.3889 27.4361 54.5219 27.9462L61.6999 25.1294Z" fill="#3A592E"/>
<path d="M82.7877 24.3896C82.7249 25.5431 82.3218 26.4803 81.5784 27.2012C80.8424 27.9139 79.8932 28.3016 78.7308 28.3645C78.0911 28.3991 77.5003 28.3254 76.9585 28.1434C76.4166 27.9615 75.9483 27.6934 75.5536 27.3392C75.1589 26.985 74.8421 26.5523 74.6032 26.041C74.3717 25.5215 74.2391 24.9497 74.2053 24.3256L73.9061 18.7907L71.437 18.9242L71.363 17.5551L73.832 17.4216L73.596 13.0569L75.1991 12.9702L75.4351 17.3349L80.0807 17.0837L80.1547 18.4528L75.5092 18.704L75.8085 24.2389C75.83 24.6368 75.9126 25.0078 76.0564 25.3521C76.208 25.696 76.4041 25.9945 76.6447 26.2475C76.8931 26.5 77.1853 26.6955 77.5214 26.8338C77.8571 26.9643 78.2355 27.0182 78.6568 26.9954C79.4525 26.9523 80.1023 26.6708 80.6062 26.1506C81.1175 25.6222 81.3908 24.962 81.4262 24.1698L82.7877 24.3896Z" fill="#3A592E"/>
<path d="M86.7771 23.0389C86.6977 24.1984 86.9582 25.1782 87.5585 25.9783C88.1588 26.7784 89.0326 27.2766 90.1801 27.4728C90.9886 27.611 91.737 27.5686 92.425 27.3454C93.1131 27.1222 93.6572 26.7912 94.0572 26.3524L95.0357 27.3043C94.3676 27.9668 93.6259 28.4344 92.8104 28.7072C91.9963 28.9722 91.0425 29.0112 89.949 28.8242C89.1173 28.682 88.3786 28.4131 87.733 28.0173C87.0873 27.6216 86.5525 27.1339 86.1285 26.5541C85.7135 25.968 85.426 25.3085 85.266 24.5758C85.1059 23.843 85.0977 23.0569 85.2412 22.2175C85.3808 21.4013 85.6324 20.6715 85.996 20.0283C86.3686 19.3787 86.8326 18.8437 87.3879 18.4235C87.9523 17.9969 88.597 17.7029 89.322 17.5416C90.0484 17.3725 90.8313 17.3597 91.6707 17.5032C92.5871 17.6599 93.3616 17.9509 93.9943 18.3761C94.627 18.8013 95.1238 19.3261 95.4846 19.9506C95.8545 20.5686 96.0827 21.2734 96.1693 22.065C96.2636 22.8578 96.2324 23.7125 96.0757 24.6288L86.7771 23.0389ZM94.6319 22.991C94.6562 21.7825 94.3789 20.8315 93.8 20.1381C93.2211 19.4447 92.435 19.013 91.4416 18.8432C90.9333 18.7563 90.4491 18.7607 89.9889 18.8563C89.53 18.9443 89.1086 19.114 88.7248 19.3654C88.341 19.6168 88 19.9429 87.7016 20.3437C87.4045 20.7367 87.1811 21.186 87.0313 21.6914L94.6319 22.991Z" fill="#3A592E"/>
<path d="M109.603 24.723C109.179 24.2347 108.6 23.8381 107.863 23.5331C107.257 23.282 106.662 23.1877 106.078 23.2503C105.494 23.3128 104.948 23.4882 104.439 23.7766C103.934 24.0577 103.477 24.4351 103.07 24.909C102.672 25.3786 102.354 25.9021 102.115 26.4795L100.765 29.7384L103.049 30.6846L102.525 31.9513L96.4725 29.4446L96.9972 28.1778L99.2817 29.124L102.412 21.5669L100.127 20.6207L100.652 19.354L104.42 20.9145L103.37 23.448C104.814 21.8812 106.485 21.491 108.383 22.2772C108.896 22.4895 109.326 22.7058 109.675 22.9262C110.03 23.1496 110.336 23.4116 110.592 23.7121L109.603 24.723Z" fill="#3A592E"/>
<path d="M121.671 32.1832C121.365 31.6138 120.887 31.0994 120.235 30.6401C119.699 30.2619 119.139 30.0391 118.556 29.9717C117.972 29.9044 117.401 29.9554 116.842 30.125C116.287 30.2881 115.758 30.556 115.257 30.9287C114.766 31.2994 114.34 31.7402 113.98 32.2509L111.947 35.1334L113.967 36.5586L113.177 37.679L107.824 33.9034L108.614 32.7829L110.635 34.2081L115.349 27.5237L113.329 26.0986L114.119 24.9781L117.452 27.3286L115.871 29.5695C117.624 28.3584 119.34 28.345 121.019 29.5292C121.472 29.8489 121.845 30.1546 122.136 30.4462C122.434 30.7423 122.675 31.0651 122.858 31.4146L121.671 32.1832Z" fill="#3A592E"/>
<path d="M120.267 38.9041C120.777 38.4433 121.318 38.186 121.891 38.1322C122.469 38.0731 123.042 38.1604 123.611 38.394C124.191 38.6282 124.766 38.9728 125.334 39.4276C125.914 39.8831 126.455 40.3891 126.958 40.9457C127.152 41.1602 127.322 41.3542 127.468 41.5276C127.619 41.7068 127.757 41.877 127.881 42.0382C128.011 42.2052 128.138 42.3748 128.262 42.5471C128.386 42.7193 128.52 42.9087 128.665 43.1152L129.247 42.589C129.642 42.2329 129.888 41.8527 129.986 41.4484C130.089 41.0498 130.1 40.6605 130.02 40.2802C129.946 39.8948 129.815 39.5396 129.626 39.2147C129.444 38.8846 129.267 38.6239 129.094 38.4326C128.549 37.8296 127.965 37.3463 127.342 36.9827C126.719 36.619 126.072 36.34 125.402 36.1454L125.811 34.7972C126.546 35.0172 127.279 35.3449 128.009 35.7803C128.75 36.2163 129.448 36.7967 130.103 37.5215C130.501 37.9621 130.833 38.4464 131.099 38.9744C131.376 39.503 131.548 40.0427 131.614 40.5937C131.691 41.1452 131.63 41.6953 131.43 42.2438C131.231 42.7923 130.865 43.3074 130.331 43.7892L125.026 48.5803L123.942 47.3801L125.299 46.1548C124.849 46.1817 124.406 46.1508 123.968 46.0621C123.535 45.9793 123.124 45.8505 122.734 45.6758C122.351 45.4958 121.996 45.2897 121.671 45.0574C121.339 44.8303 121.056 44.5863 120.82 44.3254C119.852 43.2528 119.324 42.2552 119.238 41.3326C119.153 40.41 119.495 39.6005 120.267 38.9041ZM121.838 43.4065C122.288 43.9051 122.764 44.2861 123.265 44.5495C123.777 44.8134 124.269 44.985 124.74 45.0643C125.212 45.1437 125.641 45.1461 126.026 45.0717C126.417 45.0031 126.714 44.8772 126.916 44.6939L127.682 44.0027C127.389 43.5619 127.083 43.1591 126.764 42.7944C126.451 42.4355 126.176 42.1256 125.94 41.8647C125.553 41.4356 125.15 41.0472 124.73 40.6995C124.316 40.3576 123.909 40.099 123.509 39.9238C123.114 39.7433 122.731 39.6574 122.36 39.6662C121.989 39.6749 121.65 39.8181 121.343 40.0956C121 40.4045 120.834 40.8551 120.842 41.4474C120.862 42.0403 121.194 42.6933 121.838 43.4065Z" fill="#3A592E"/>
<path d="M138.824 63.1527L133.496 51.1834L134.653 50.6687L139.98 62.638L138.824 63.1527Z" fill="#3A592E"/>
</svg>
