<svg width="436" height="434" viewBox="0 0 436 434" fill="none" xmlns="http://www.w3.org/2000/svg">
<circle cx="218" cy="217" r="216.5" stroke="black"/>
<path d="M390.318 240.653V231.981H393.061V234.043L403.092 229.239L393.061 224.387V226.45H390.318V217.754H393.061V220.731L405.717 227.364L418.162 220.848V218.293H420.904V227.036H418.162V224.481L408.365 229.239L418.162 233.856V231.395H420.904V240.137H418.162V237.489L405.717 231.114L393.061 237.676V240.653H390.318Z" fill="black"/>
<path d="M364.997 310.588L366.378 307.664L389.416 318.541L377.464 306.911L378.445 304.834L395.01 306.694L371.972 295.816L373.343 292.913L401.001 305.972L399.22 309.744L382.384 307.964L394.436 319.875L392.655 323.647L364.997 310.588Z" fill="black"/>
<path d="M271.866 391.395C269.002 387.485 265.759 386.125 262.137 387.316C261.35 387.574 260.669 387.905 260.094 388.308C259.51 388.73 259.016 389.205 258.614 389.732C258.196 390.264 257.868 390.841 257.628 391.462C257.374 392.089 257.185 392.743 257.064 393.424C256.846 394.663 256.819 395.955 256.981 397.3C257.134 398.664 257.402 400.007 257.787 401.328L270.746 397.068L271.602 399.673L258.643 403.933C259.162 405.259 259.799 406.522 260.555 407.721C261.296 408.924 262.154 409.934 263.129 410.748C264.089 411.567 265.169 412.125 266.368 412.422C267.568 412.718 268.88 412.632 270.305 412.164C271.329 411.827 272.23 411.317 273.009 410.633C273.792 409.965 274.408 409.187 274.857 408.299C275.305 407.412 275.581 406.449 275.684 405.412C275.772 404.38 275.646 403.344 275.304 402.305L277.909 401.449L281.042 410.978L278.437 411.834L277.324 408.45C277.13 409.961 276.507 411.243 275.455 412.296C274.389 413.354 272.957 414.178 271.161 414.769C269.128 415.437 267.267 415.58 265.578 415.198C263.88 414.835 262.364 414.1 261.029 412.992C259.68 411.89 258.507 410.499 257.511 408.82C256.515 407.141 255.698 405.329 255.059 403.384C254.629 402.078 254.299 400.772 254.067 399.467C253.825 398.181 253.714 396.918 253.734 395.678C253.739 394.443 253.885 393.26 254.171 392.13C254.443 391.004 254.882 389.963 255.489 389.007C256.101 388.066 256.885 387.225 257.842 386.482C258.783 385.745 259.93 385.155 261.281 384.711C263.893 383.852 266.299 383.867 268.499 384.755C270.709 385.674 272.6 387.248 274.172 389.478L271.866 391.395Z" fill="black"/>
<path d="M170.88 416.401L174.876 386.077L178.082 386.5L174.445 414.105L184.228 415.394L187.231 392.599C187.344 391.747 187.591 391.007 187.973 390.38C188.339 389.75 188.792 389.243 189.332 388.857C189.871 388.471 190.474 388.203 191.14 388.055C191.807 387.89 192.49 387.854 193.187 387.946C194.488 388.118 195.415 388.437 195.969 388.904L195.007 391.354C194.809 391.186 194.582 391.053 194.327 390.957C194.056 390.858 193.696 390.779 193.247 390.72C191.605 390.504 190.669 391.271 190.438 393.021L187.076 418.535L170.88 416.401Z" fill="black"/>
<path d="M60.9753 309.105C59.3706 310.272 58.5419 311.696 58.4892 313.377C58.4239 315.067 59.0438 316.809 60.349 318.603L64.4162 324.195L74.1203 317.136L70.0532 311.544C68.748 309.75 67.3067 308.605 65.7294 308.11C64.1395 307.625 62.5548 307.956 60.9753 309.105ZM62.2176 325.794L58.1504 320.203C56.1926 317.511 55.2653 314.988 55.3685 312.633C55.4717 310.278 56.711 308.237 59.0865 306.509C61.4493 304.79 63.748 304.258 65.9824 304.912C68.2168 305.567 70.3221 307.252 72.2983 309.969L78.2267 318.119L53.4925 336.111L41.9941 320.304L44.2116 318.691L53.8212 331.902L62.2176 325.794Z" fill="black"/>
<path d="M25.274 231.56L25.7672 234.257L18.2972 235.623L19.4774 242.079L44.1697 237.564L43.2846 232.723L45.9821 232.229L48.3383 245.117L45.6408 245.611L44.7514 240.746L20.0591 245.26L21.2393 251.716L28.7093 250.35L29.2024 253.047L19.035 254.906L15.1066 233.419L25.274 231.56Z" fill="black"/>
<path d="M76.5327 86.6479L74.9034 88.8536L68.7953 84.3418L64.8963 89.6204L85.087 104.534L88.0113 100.575L90.217 102.205L82.4329 112.743L80.2271 111.114L83.1653 107.136L62.9746 92.2221L59.0756 97.5007L65.1837 102.012L63.5544 104.218L55.2406 98.0771L68.2188 80.5069L76.5327 86.6479Z" fill="black"/>
<path d="M123.435 39.256L126.264 37.7363L137.944 59.4769L136.669 32.1457L140.654 30.0048L155.13 56.9483L152.281 58.4791L140.035 35.6855L141.421 64.3137L137.911 66.1995L123.435 39.256Z" fill="black"/>
<path d="M284.115 26.6322L303.726 33.2429L302.85 35.8414L286.282 30.2564L277.388 56.6414L274.345 55.6158L284.115 26.6322Z" fill="black"/>
<path d="M359.546 73.046L361.857 75.2748L344.726 93.0401L370.36 83.4744L373.616 86.6143L352.385 108.631L350.057 106.386L368.018 87.7603L341.183 97.8285L338.315 95.0628L359.546 73.046Z" fill="black"/>
</svg>
