<svg width="271" height="248" viewBox="0 0 271 248" fill="none" xmlns="http://www.w3.org/2000/svg">
<mask id="path-1-inside-1" fill="white">
<path fill-rule="evenodd" clip-rule="evenodd" d="M0 0H270.978V219.5V221V247.75L249.21 221H0V0Z"/>
</mask>
<path fill-rule="evenodd" clip-rule="evenodd" d="M0 0H270.978V219.5V221V247.75L249.21 221H0V0Z" fill="#E6E5E3"/>
<path d="M270.978 0V-1H271.978V0H270.978ZM0 0H-1V-1H0V0ZM270.978 247.75H271.978V250.563L270.203 248.381L270.978 247.75ZM249.21 221V220H249.685L249.985 220.369L249.21 221ZM0 221V222H-1V221H0ZM270.978 1H0V-1H270.978V1ZM269.978 219.5V0H271.978V219.5H269.978ZM269.978 221V219.5H271.978V221H269.978ZM269.978 247.75V221H271.978V247.75H269.978ZM249.985 220.369L271.754 247.119L270.203 248.381L248.434 221.631L249.985 220.369ZM0 220H249.21V222H0V220ZM1 0V221H-1V0H1Z" fill="black" mask="url(#path-1-inside-1)"/>
</svg>
