<svg width="434" height="434" viewBox="0 0 434 434" fill="none" xmlns="http://www.w3.org/2000/svg">
<mask id="path-1-inside-1" fill="white">
<path fill-rule="evenodd" clip-rule="evenodd" d="M432.299 216.649C432.299 216.933 432.298 217.216 432.297 217.5L345 217.5V218.5L432.291 218.5C431.297 336.748 335.132 432.299 216.649 432.299L216.5 432.299V345H215.5V432.296C97.5457 431.68 1.9985 336.365 1.00777 218.5L89 218.5V217.5L1.00164 217.5C1.00055 217.216 1 216.933 1 216.649C1 97.9328 96.929 1.6217 215.5 1.00289V88.9999H216.5V0.999942L216.649 0.999892C335.749 0.999892 432.299 97.5494 432.299 216.649ZM216.5 -0.000100856L216.649 -0.000108507C336.302 -0.000108507 433.299 96.9971 433.299 216.649C433.299 336.301 336.302 433.299 216.649 433.299C97.6147 433.299 1.00171 337.3 0.00773908 218.5H0V217.5H0.00163435C0.000545114 217.216 0 216.933 0 216.649C0 97.3805 96.3767 0.6217 215.5 0.00287643V-0.000100899L216.5 -0.000100856ZM344 217C344 287.14 287.14 344 217 344C146.86 344 90 287.14 90 217C90 146.86 146.86 89.9999 217 89.9999C287.14 89.9999 344 146.86 344 217ZM216.5 253C236.658 253 253 236.658 253 216.5C253 196.341 236.658 180 216.5 180C196.342 180 180 196.341 180 216.5C180 236.658 196.342 253 216.5 253ZM217 345C287.692 345 345 287.692 345 217C345 146.307 287.692 88.9999 217 88.9999C146.308 88.9999 89 146.307 89 217C89 287.692 146.308 345 217 345ZM216.5 252C236.106 252 252 236.106 252 216.5C252 196.894 236.106 181 216.5 181C196.894 181 181 196.894 181 216.5C181 236.106 196.894 252 216.5 252ZM224.348 146.46C226.584 142.934 228 138.001 228 132.5C228 126.999 226.584 122.066 224.348 118.54C222.104 115.001 219.128 113 216 113C212.872 113 209.896 115.001 207.652 118.54C205.416 122.066 204 126.999 204 132.5C204 138.001 205.416 142.934 207.652 146.46C209.896 149.999 212.872 152 216 152C219.128 152 222.104 149.999 224.348 146.46ZM216 153C223.18 153 229 143.822 229 132.5C229 121.178 223.18 112 216 112C208.82 112 203 121.178 203 132.5C203 143.822 208.82 153 216 153ZM229 301.5C229 307.001 227.584 311.934 225.348 315.46C223.104 318.999 220.128 321 217 321C213.872 321 210.896 318.999 208.652 315.46C206.416 311.934 205 307.001 205 301.5C205 295.999 206.416 291.066 208.652 287.54C210.896 284.001 213.872 282 217 282C220.128 282 223.104 284.001 225.348 287.54C227.584 291.066 229 295.999 229 301.5ZM230 301.5C230 312.822 224.18 322 217 322C209.82 322 204 312.822 204 301.5C204 290.178 209.82 281 217 281C224.18 281 230 290.178 230 301.5ZM145.96 209.152C142.434 206.916 137.501 205.5 132 205.5C126.499 205.5 121.566 206.916 118.04 209.152C114.501 211.396 112.5 214.372 112.5 217.5C112.5 220.628 114.501 223.604 118.04 225.848C121.566 228.084 126.499 229.5 132 229.5C137.501 229.5 142.434 228.084 145.96 225.848C149.499 223.604 151.5 220.628 151.5 217.5C151.5 214.372 149.499 211.396 145.96 209.152ZM152.5 217.5C152.5 210.32 143.322 204.5 132 204.5C120.678 204.5 111.5 210.32 111.5 217.5C111.5 224.68 120.678 230.5 132 230.5C143.322 230.5 152.5 224.68 152.5 217.5ZM301 204.5C306.501 204.5 311.434 205.916 314.96 208.152C318.499 210.396 320.5 213.372 320.5 216.5C320.5 219.628 318.499 222.604 314.96 224.848C311.434 227.084 306.501 228.5 301 228.5C295.499 228.5 290.566 227.084 287.04 224.848C283.501 222.604 281.5 219.628 281.5 216.5C281.5 213.372 283.501 210.396 287.04 208.152C290.566 205.916 295.499 204.5 301 204.5ZM301 203.5C312.322 203.5 321.5 209.32 321.5 216.5C321.5 223.68 312.322 229.5 301 229.5C289.678 229.5 280.5 223.68 280.5 216.5C280.5 209.32 289.678 203.5 301 203.5Z"/>
</mask>
<path d="M432.297 217.5L432.297 218.5L433.293 218.5L433.297 217.504L432.297 217.5ZM345 217.5L345 216.5L344 216.5V217.5H345ZM345 218.5H344V219.5L345 219.5L345 218.5ZM432.291 218.5L433.291 218.508L433.3 217.5L432.291 217.5L432.291 218.5ZM216.649 432.299L216.649 433.299H216.649V432.299ZM216.5 432.299H215.5V433.298L216.5 433.299L216.5 432.299ZM216.5 345H217.5V344H216.5V345ZM215.5 345V344H214.5V345H215.5ZM215.5 432.296L215.495 433.296L216.5 433.301V432.296H215.5ZM1.00777 218.5L1.00777 217.5L-0.00066596 217.5L0.00781027 218.508L1.00777 218.5ZM89 218.5L89 219.5L90 219.5V218.5H89ZM89 217.5H90V216.5L89 216.5L89 217.5ZM1.00164 217.5L0.00164944 217.504L0.00549599 218.5L1.00164 218.5L1.00164 217.5ZM215.5 1.00289H216.5V-0.00234219L215.495 0.00290397L215.5 1.00289ZM215.5 88.9999H214.5V89.9999H215.5V88.9999ZM216.5 88.9999V89.9999H217.5V88.9999H216.5ZM216.5 0.999942L216.5 -5.7759e-05L215.5 0.000281176V0.999942H216.5ZM216.649 0.999892L216.649 -0.000108538L216.649 -0.000108423L216.649 0.999892ZM216.649 -0.000108507L216.649 -1.00011L216.649 -1.00011L216.649 -0.000108507ZM216.5 -0.000100856L216.5 0.999899L216.5 0.999899L216.5 -0.000100856ZM0.00773908 218.5L1.0077 218.492L0.999407 217.5H0.00773908V218.5ZM0 218.5H-1V219.5H0V218.5ZM0 217.5V216.5H-1V217.5H0ZM0.00163435 217.5V218.5H1.00549L1.00163 217.496L0.00163435 217.5ZM215.5 0.00287643L215.505 1.00286L216.5 0.997695V0.00287643H215.5ZM215.5 -0.000100899L215.5 -1.0001L214.5 -1.0001V-0.000100899H215.5ZM224.348 146.46L225.192 146.996L225.192 146.996L224.348 146.46ZM224.348 118.54L225.192 118.004L225.192 118.004L224.348 118.54ZM207.652 118.54L206.808 118.004L206.808 118.004L207.652 118.54ZM207.652 146.46L206.808 146.996L206.808 146.996L207.652 146.46ZM225.348 315.46L226.192 315.996L226.192 315.996L225.348 315.46ZM208.652 315.46L207.808 315.996L207.808 315.996L208.652 315.46ZM208.652 287.54L207.808 287.004L207.808 287.004L208.652 287.54ZM225.348 287.54L226.192 287.004L226.192 287.004L225.348 287.54ZM145.96 209.152L146.496 208.308L146.496 208.307L145.96 209.152ZM118.04 209.152L117.504 208.307L117.504 208.307L118.04 209.152ZM118.04 225.848L117.504 226.692L117.504 226.692L118.04 225.848ZM145.96 225.848L146.496 226.692L146.496 226.692L145.96 225.848ZM314.96 208.152L314.425 208.997L314.425 208.997L314.96 208.152ZM314.96 224.848L314.425 224.003L314.425 224.003L314.96 224.848ZM287.04 224.848L287.575 224.003L287.575 224.003L287.04 224.848ZM287.04 208.152L287.575 208.997L287.575 208.997L287.04 208.152ZM433.297 217.504C433.298 217.219 433.299 216.934 433.299 216.649H431.299C431.299 216.932 431.298 217.214 431.297 217.496L433.297 217.504ZM345 218.5L432.297 218.5L432.297 216.5L345 216.5L345 218.5ZM346 218.5V217.5H344V218.5H346ZM432.291 217.5L345 217.5L345 219.5L432.291 219.5L432.291 217.5ZM216.649 433.299C335.681 433.299 432.293 337.305 433.291 218.508L431.291 218.491C430.302 336.191 334.582 431.299 216.649 431.299V433.299ZM216.5 433.299L216.649 433.299L216.65 431.299L216.5 431.299L216.5 433.299ZM215.5 345V432.299H217.5V345H215.5ZM215.5 346H216.5V344H215.5V346ZM216.5 432.296V345H214.5V432.296H216.5ZM0.00781027 218.508C1.00313 336.92 96.9933 432.677 215.495 433.296L215.505 431.296C98.098 430.683 2.99387 335.81 2.00774 218.491L0.00781027 218.508ZM89 217.5L1.00777 217.5L1.00778 219.5L89 219.5L89 217.5ZM88 217.5V218.5H90V217.5H88ZM1.00164 218.5L89 218.5L89 216.5L1.00164 216.5L1.00164 218.5ZM0 216.649C0 216.934 0.000550133 217.219 0.00164944 217.504L2.00163 217.496C2.00055 217.214 2 216.932 2 216.649H0ZM215.495 0.00290397C96.3738 0.624587 0 97.3823 0 216.649H2C2 98.4833 97.4841 2.61882 215.505 2.00288L215.495 0.00290397ZM216.5 88.9999V1.00289H214.5V88.9999H216.5ZM216.5 87.9999H215.5V89.9999H216.5V87.9999ZM215.5 0.999942V88.9999H217.5V0.999942H215.5ZM216.649 -0.000108423L216.5 -5.7759e-05L216.5 1.99994L216.65 1.99989L216.649 -0.000108423ZM433.299 216.649C433.299 96.9971 336.302 -0.00010848 216.649 -0.00010848V1.99989C335.197 1.99989 431.299 98.1017 431.299 216.649H433.299ZM216.649 -1.00011L216.5 -1.0001L216.5 0.999899L216.649 0.999891L216.649 -1.00011ZM434.299 216.649C434.299 96.4449 336.854 -1.00011 216.649 -1.00011V0.999891C335.749 0.999891 432.299 97.5494 432.299 216.649H434.299ZM216.649 434.299C336.854 434.299 434.299 336.854 434.299 216.649H432.299C432.299 335.749 335.749 432.299 216.649 432.299V434.299ZM-0.992226 218.508C0.00633419 337.857 97.0652 434.299 216.649 434.299V432.299C98.1642 432.299 1.99709 336.743 1.0077 218.492L-0.992226 218.508ZM0 219.5H0.00773908V217.5H0V219.5ZM-1 217.5V218.5H1V217.5H-1ZM0.00163435 216.5H0V218.5H0.00163435V216.5ZM-1 216.649C-1 216.934 -0.999452 217.219 -0.998358 217.504L1.00163 217.496C1.00054 217.214 1 216.932 1 216.649H-1ZM215.495 -0.99711C95.8215 -0.375429 -1 96.83 -1 216.649H1C1 97.9311 96.9318 1.61883 215.505 1.00286L215.495 -0.99711ZM214.5 -0.000100899V0.00287643H216.5V-0.000100899H214.5ZM216.5 -1.0001L215.5 -1.0001L215.5 0.999899L216.5 0.999899L216.5 -1.0001ZM217 345C287.692 345 345 287.692 345 217H343C343 286.588 286.588 343 217 343V345ZM89 217C89 287.692 146.308 345 217 345V343C147.412 343 91 286.588 91 217H89ZM217 88.9999C146.308 88.9999 89 146.307 89 217H91C91 147.412 147.412 90.9999 217 90.9999V88.9999ZM345 217C345 146.307 287.692 88.9999 217 88.9999V90.9999C286.588 90.9999 343 147.412 343 217H345ZM252 216.5C252 236.106 236.106 252 216.5 252V254C237.211 254 254 237.211 254 216.5H252ZM216.5 181C236.106 181 252 196.894 252 216.5H254C254 195.789 237.211 179 216.5 179V181ZM181 216.5C181 196.894 196.894 181 216.5 181V179C195.789 179 179 195.789 179 216.5H181ZM216.5 252C196.894 252 181 236.106 181 216.5H179C179 237.211 195.789 254 216.5 254V252ZM344 217C344 287.14 287.14 344 217 344V346C288.245 346 346 288.245 346 217H344ZM217 89.9999C287.14 89.9999 344 146.86 344 217H346C346 145.755 288.245 87.9999 217 87.9999V89.9999ZM90 217C90 146.86 146.86 89.9999 217 89.9999V87.9999C145.755 87.9999 88 145.755 88 217H90ZM217 344C146.86 344 90 287.14 90 217H88C88 288.245 145.755 346 217 346V344ZM251 216.5C251 235.554 235.554 251 216.5 251V253C236.658 253 253 236.658 253 216.5H251ZM216.5 182C235.554 182 251 197.446 251 216.5H253C253 196.341 236.658 180 216.5 180V182ZM182 216.5C182 197.446 197.446 182 216.5 182V180C196.342 180 180 196.341 180 216.5H182ZM216.5 251C197.446 251 182 235.554 182 216.5H180C180 236.658 196.342 253 216.5 253V251ZM227 132.5C227 137.84 225.623 142.581 223.503 145.924L225.192 146.996C227.545 143.286 229 138.161 229 132.5H227ZM223.503 119.075C225.623 122.418 227 127.159 227 132.5H229C229 126.839 227.545 121.714 225.192 118.004L223.503 119.075ZM216 114C218.666 114 221.369 115.709 223.503 119.075L225.192 118.004C222.839 114.293 219.589 112 216 112V114ZM208.497 119.075C210.631 115.709 213.334 114 216 114V112C212.411 112 209.161 114.293 206.808 118.004L208.497 119.075ZM205 132.5C205 127.159 206.377 122.418 208.497 119.075L206.808 118.004C204.455 121.714 203 126.839 203 132.5H205ZM208.497 145.924C206.377 142.581 205 137.84 205 132.5H203C203 138.161 204.455 143.286 206.808 146.996L208.497 145.924ZM216 151C213.334 151 210.631 149.291 208.497 145.924L206.808 146.996C209.161 150.706 212.411 153 216 153V151ZM223.503 145.924C221.369 149.291 218.666 151 216 151V153C219.589 153 222.839 150.706 225.192 146.996L223.503 145.924ZM228 132.5C228 138.001 226.584 142.934 224.348 146.46C222.104 149.999 219.128 152 216 152V154C220.052 154 223.576 151.412 226.037 147.531C228.506 143.638 230 138.321 230 132.5H228ZM216 113C219.128 113 222.104 115.001 224.348 118.54C226.584 122.066 228 126.999 228 132.5H230C230 126.679 228.506 121.362 226.037 117.469C223.576 113.588 220.052 111 216 111V113ZM204 132.5C204 126.999 205.416 122.066 207.652 118.54C209.896 115.001 212.872 113 216 113V111C211.948 111 208.424 113.588 205.963 117.469C203.494 121.362 202 126.679 202 132.5H204ZM216 152C212.872 152 209.896 149.999 207.652 146.46C205.416 142.934 204 138.001 204 132.5H202C202 138.321 203.494 143.638 205.963 147.531C208.424 151.412 211.948 154 216 154V152ZM226.192 315.996C228.545 312.286 230 307.161 230 301.5H228C228 306.84 226.623 311.581 224.503 314.925L226.192 315.996ZM217 322C220.589 322 223.839 319.706 226.192 315.996L224.503 314.925C222.369 318.291 219.666 320 217 320V322ZM207.808 315.996C210.161 319.706 213.411 322 217 322V320C214.334 320 211.631 318.291 209.497 314.925L207.808 315.996ZM204 301.5C204 307.161 205.455 312.286 207.808 315.996L209.497 314.925C207.377 311.581 206 306.84 206 301.5H204ZM207.808 287.004C205.455 290.714 204 295.839 204 301.5H206C206 296.159 207.377 291.418 209.497 288.075L207.808 287.004ZM217 281C213.411 281 210.161 283.293 207.808 287.004L209.497 288.075C211.631 284.709 214.334 283 217 283V281ZM226.192 287.004C223.839 283.293 220.589 281 217 281V283C219.666 283 222.369 284.709 224.503 288.075L226.192 287.004ZM230 301.5C230 295.839 228.545 290.714 226.192 287.004L224.503 288.075C226.623 291.418 228 296.159 228 301.5H230ZM217 323C221.052 323 224.576 320.412 227.037 316.531C229.506 312.638 231 307.321 231 301.5H229C229 307.001 227.584 311.934 225.348 315.46C223.104 318.999 220.128 321 217 321V323ZM203 301.5C203 307.321 204.494 312.638 206.963 316.531C209.424 320.412 212.948 323 217 323V321C213.872 321 210.896 318.999 208.652 315.46C206.416 311.934 205 307.001 205 301.5H203ZM217 280C212.948 280 209.424 282.588 206.963 286.469C204.494 290.362 203 295.679 203 301.5H205C205 295.999 206.416 291.066 208.652 287.54C210.896 284.001 213.872 282 217 282V280ZM231 301.5C231 295.679 229.506 290.362 227.037 286.469C224.576 282.588 221.052 280 217 280V282C220.128 282 223.104 284.001 225.348 287.54C227.584 291.066 229 295.999 229 301.5H231ZM132 206.5C137.341 206.5 142.082 207.877 145.425 209.997L146.496 208.307C142.786 205.955 137.661 204.5 132 204.5V206.5ZM118.575 209.997C121.918 207.877 126.659 206.5 132 206.5V204.5C126.339 204.5 121.214 205.955 117.504 208.307L118.575 209.997ZM113.5 217.5C113.5 214.833 115.209 212.131 118.575 209.997L117.504 208.307C113.793 210.661 111.5 213.911 111.5 217.5H113.5ZM118.575 225.003C115.209 222.868 113.5 220.166 113.5 217.5H111.5C111.5 221.089 113.793 224.339 117.504 226.692L118.575 225.003ZM132 228.5C126.659 228.5 121.918 227.123 118.575 225.003L117.504 226.692C121.214 229.045 126.339 230.5 132 230.5V228.5ZM145.425 225.003C142.082 227.123 137.341 228.5 132 228.5V230.5C137.661 230.5 142.786 229.045 146.496 226.692L145.425 225.003ZM150.5 217.5C150.5 220.166 148.791 222.868 145.425 225.003L146.496 226.692C150.207 224.339 152.5 221.089 152.5 217.5H150.5ZM145.425 209.997C148.791 212.131 150.5 214.833 150.5 217.5H152.5C152.5 213.911 150.207 210.661 146.496 208.308L145.425 209.997ZM132 205.5C137.501 205.5 142.434 206.916 145.96 209.152C149.499 211.396 151.5 214.372 151.5 217.5H153.5C153.5 213.448 150.912 209.924 147.031 207.463C143.138 204.994 137.821 203.5 132 203.5V205.5ZM112.5 217.5C112.5 214.372 114.501 211.396 118.04 209.152C121.566 206.916 126.499 205.5 132 205.5V203.5C126.179 203.5 120.862 204.994 116.969 207.463C113.088 209.924 110.5 213.448 110.5 217.5H112.5ZM132 229.5C126.499 229.5 121.566 228.084 118.04 225.848C114.501 223.604 112.5 220.628 112.5 217.5H110.5C110.5 221.552 113.088 225.076 116.969 227.537C120.862 230.006 126.179 231.5 132 231.5V229.5ZM151.5 217.5C151.5 220.628 149.499 223.604 145.96 225.848C142.434 228.084 137.501 229.5 132 229.5V231.5C137.821 231.5 143.138 230.006 147.031 227.537C150.912 225.076 153.5 221.552 153.5 217.5H151.5ZM315.496 207.307C311.786 204.955 306.661 203.5 301 203.5V205.5C306.341 205.5 311.082 206.877 314.425 208.997L315.496 207.307ZM321.5 216.5C321.5 212.911 319.207 209.661 315.496 207.307L314.425 208.997C317.791 211.131 319.5 213.833 319.5 216.5H321.5ZM315.496 225.692C319.207 223.339 321.5 220.089 321.5 216.5H319.5C319.5 219.166 317.791 221.868 314.425 224.003L315.496 225.692ZM301 229.5C306.661 229.5 311.786 228.045 315.496 225.692L314.425 224.003C311.082 226.123 306.341 227.5 301 227.5V229.5ZM286.504 225.692C290.214 228.045 295.339 229.5 301 229.5V227.5C295.659 227.5 290.918 226.123 287.575 224.003L286.504 225.692ZM280.5 216.5C280.5 220.089 282.793 223.339 286.504 225.692L287.575 224.003C284.209 221.868 282.5 219.166 282.5 216.5H280.5ZM286.504 207.307C282.793 209.661 280.5 212.911 280.5 216.5H282.5C282.5 213.833 284.209 211.131 287.575 208.997L286.504 207.307ZM301 203.5C295.339 203.5 290.214 204.955 286.504 207.307L287.575 208.997C290.918 206.877 295.659 205.5 301 205.5V203.5ZM322.5 216.5C322.5 212.448 319.912 208.924 316.031 206.463C312.138 203.994 306.821 202.5 301 202.5V204.5C306.501 204.5 311.434 205.916 314.96 208.152C318.499 210.396 320.5 213.372 320.5 216.5H322.5ZM301 230.5C306.821 230.5 312.138 229.006 316.031 226.537C319.912 224.076 322.5 220.552 322.5 216.5H320.5C320.5 219.628 318.499 222.604 314.96 224.848C311.434 227.084 306.501 228.5 301 228.5V230.5ZM279.5 216.5C279.5 220.552 282.088 224.076 285.969 226.537C289.862 229.006 295.179 230.5 301 230.5V228.5C295.499 228.5 290.566 227.084 287.04 224.848C283.501 222.604 281.5 219.628 281.5 216.5H279.5ZM301 202.5C295.179 202.5 289.862 203.994 285.969 206.463C282.088 208.924 279.5 212.448 279.5 216.5H281.5C281.5 213.372 283.501 210.396 287.04 208.152C290.566 205.916 295.499 204.5 301 204.5V202.5Z" fill="black" mask="url(#path-1-inside-1)"/>
</svg>
