<svg width="204" height="82" viewBox="0 0 204 82" fill="none" xmlns="http://www.w3.org/2000/svg">
<rect x="10.5125" y="7.25821" width="192.5" height="67.5" transform="rotate(1.91388 10.5125 7.25821)" fill="#3C604F" stroke="black" stroke-width="0.5"/>
<rect x="0.25" y="0.25" width="192.5" height="67.5" fill="#E6E5E3"/>
<path d="M56.4512 37.4023C56.4512 38.2812 56.1257 38.9355 55.4746 39.3652C54.8301 39.7884 53.9023 40 52.6914 40H47.8477V30.8984H52.3887C52.8314 30.8984 53.2676 30.9342 53.6973 31.0059C54.1335 31.071 54.5208 31.1914 54.8594 31.3672C55.1979 31.5365 55.4746 31.7741 55.6895 32.0801C55.9043 32.3861 56.0117 32.7865 56.0117 33.2812C56.0117 33.75 55.8978 34.1439 55.6699 34.4629C55.4421 34.7819 54.9961 35.026 54.332 35.1953C55.1458 35.3841 55.7025 35.6641 56.002 36.0352C56.3014 36.3997 56.4512 36.8555 56.4512 37.4023ZM54.6738 33.3594C54.6738 33.0794 54.599 32.8548 54.4492 32.6855C54.2995 32.5098 54.1139 32.3763 53.8926 32.2852C53.6777 32.1875 53.4368 32.1224 53.1699 32.0898C52.903 32.0573 52.6426 32.041 52.3887 32.041H49.1855V34.6582H52.3887C52.6556 34.6582 52.9258 34.6419 53.1992 34.6094C53.4727 34.5768 53.7201 34.5117 53.9414 34.4141C54.1628 34.3099 54.3385 34.1764 54.4688 34.0137C54.6055 33.8444 54.6738 33.6263 54.6738 33.3594ZM55.1133 37.3438C55.1133 36.8099 54.8952 36.4193 54.459 36.1719C54.0228 35.9245 53.4271 35.8008 52.6719 35.8008H49.1855V38.8574H52.6719C53.4271 38.8574 54.0228 38.7305 54.459 38.4766C54.8952 38.2227 55.1133 37.8451 55.1133 37.3438ZM77.8281 40H76.4805V32.7832L74.2441 37.5H73.2871L71.0215 32.7832V40H69.6836V30.8984H71.4219L73.7656 35.6445L76.0898 30.8984H77.8281V40ZM80.1035 37.5391C80.1035 36.9661 80.2467 36.4876 80.5332 36.1035C80.8197 35.7129 81.194 35.4069 81.6562 35.1855C82.125 34.9577 82.6589 34.7949 83.2578 34.6973C83.8633 34.5931 84.4785 34.541 85.1035 34.541C85.3444 34.541 85.5592 34.5443 85.748 34.5508C85.9434 34.5573 86.1257 34.5671 86.2949 34.5801C86.4707 34.5931 86.6465 34.6094 86.8223 34.6289C86.998 34.6484 87.1901 34.6712 87.3984 34.6973V34.043C87.3984 33.6003 87.3008 33.2357 87.1055 32.9492C86.9167 32.6628 86.6823 32.4382 86.4023 32.2754C86.1224 32.1061 85.8294 31.9889 85.5234 31.9238C85.2174 31.8522 84.957 31.8164 84.7422 31.8164C84.0651 31.8164 83.4401 31.9076 82.8672 32.0898C82.2943 32.2721 81.7604 32.5163 81.2656 32.8223L80.6602 31.8164C81.207 31.4844 81.819 31.2142 82.4961 31.0059C83.1797 30.791 83.9284 30.6836 84.7422 30.6836C85.237 30.6836 85.722 30.7487 86.1973 30.8789C86.679 31.0026 87.1087 31.1979 87.4863 31.4648C87.8704 31.7253 88.1764 32.0703 88.4043 32.5C88.6322 32.9297 88.7461 33.444 88.7461 34.043V40H87.3984V38.4766C87.1641 38.7695 86.8971 39.0267 86.5977 39.248C86.3047 39.4694 85.9954 39.6517 85.6699 39.7949C85.3444 39.9316 85.0189 40.0358 84.6934 40.1074C84.3678 40.1855 84.0586 40.2246 83.7656 40.2246C82.5612 40.2246 81.6497 39.9935 81.0312 39.5312C80.4128 39.069 80.1035 38.4049 80.1035 37.5391ZM83.7656 39.082C84.3255 39.082 84.8268 39.0007 85.2695 38.8379C85.7188 38.6686 86.0996 38.4603 86.4121 38.2129C86.7246 37.9655 86.9655 37.7018 87.1348 37.4219C87.3105 37.1419 87.3984 36.888 87.3984 36.6602V35.8008C86.9622 35.7357 86.5423 35.6999 86.1387 35.6934C85.7415 35.6868 85.3965 35.6836 85.1035 35.6836C84.6217 35.6836 84.1562 35.7161 83.707 35.7812C83.2643 35.8464 82.877 35.9538 82.5449 36.1035C82.2129 36.2467 81.946 36.4355 81.7441 36.6699C81.5423 36.9043 81.4414 37.194 81.4414 37.5391C81.4414 37.9232 81.627 38.278 81.998 38.6035C82.3757 38.9225 82.9648 39.082 83.7656 39.082ZM91.5195 30.8984H100.143V32.041H92.8574V40H91.5195V30.8984ZM101.939 37.5391C101.939 36.9661 102.083 36.4876 102.369 36.1035C102.656 35.7129 103.03 35.4069 103.492 35.1855C103.961 34.9577 104.495 34.7949 105.094 34.6973C105.699 34.5931 106.314 34.541 106.939 34.541C107.18 34.541 107.395 34.5443 107.584 34.5508C107.779 34.5573 107.962 34.5671 108.131 34.5801C108.307 34.5931 108.482 34.6094 108.658 34.6289C108.834 34.6484 109.026 34.6712 109.234 34.6973V34.043C109.234 33.6003 109.137 33.2357 108.941 32.9492C108.753 32.6628 108.518 32.4382 108.238 32.2754C107.958 32.1061 107.665 31.9889 107.359 31.9238C107.053 31.8522 106.793 31.8164 106.578 31.8164C105.901 31.8164 105.276 31.9076 104.703 32.0898C104.13 32.2721 103.596 32.5163 103.102 32.8223L102.496 31.8164C103.043 31.4844 103.655 31.2142 104.332 31.0059C105.016 30.791 105.764 30.6836 106.578 30.6836C107.073 30.6836 107.558 30.7487 108.033 30.8789C108.515 31.0026 108.945 31.1979 109.322 31.4648C109.706 31.7253 110.012 32.0703 110.24 32.5C110.468 32.9297 110.582 33.444 110.582 34.043V40H109.234V38.4766C109 38.7695 108.733 39.0267 108.434 39.248C108.141 39.4694 107.831 39.6517 107.506 39.7949C107.18 39.9316 106.855 40.0358 106.529 40.1074C106.204 40.1855 105.895 40.2246 105.602 40.2246C104.397 40.2246 103.486 39.9935 102.867 39.5312C102.249 39.069 101.939 38.4049 101.939 37.5391ZM105.602 39.082C106.161 39.082 106.663 39.0007 107.105 38.8379C107.555 38.6686 107.936 38.4603 108.248 38.2129C108.561 37.9655 108.801 37.7018 108.971 37.4219C109.146 37.1419 109.234 36.888 109.234 36.6602V35.8008C108.798 35.7357 108.378 35.6999 107.975 35.6934C107.577 35.6868 107.232 35.6836 106.939 35.6836C106.458 35.6836 105.992 35.7161 105.543 35.7812C105.1 35.8464 104.713 35.9538 104.381 36.1035C104.049 36.2467 103.782 36.4355 103.58 36.6699C103.378 36.9043 103.277 37.194 103.277 37.5391C103.277 37.9232 103.463 38.278 103.834 38.6035C104.212 38.9225 104.801 39.082 105.602 39.082ZM121.5 33.3984C121.5 33.8411 121.344 34.2578 121.031 34.6484C120.725 35.0326 120.253 35.2767 119.615 35.3809C120.214 35.498 120.696 35.752 121.061 36.1426C121.432 36.5267 121.617 36.9531 121.617 37.4219C121.617 37.8581 121.5 38.252 121.266 38.6035C121.031 38.9486 120.709 39.2415 120.299 39.4824C119.895 39.7233 119.417 39.9056 118.863 40.0293C118.31 40.1595 117.708 40.2246 117.057 40.2246C116.015 40.2246 115.156 40.0651 114.479 39.7461C113.808 39.4206 113.268 38.9323 112.857 38.2812L113.795 37.6367C114.101 38.1055 114.521 38.4635 115.055 38.7109C115.589 38.9583 116.256 39.082 117.057 39.082C118.014 39.082 118.788 38.9355 119.381 38.6426C119.98 38.3496 120.279 37.9427 120.279 37.4219C120.279 37.2461 120.221 37.0703 120.104 36.8945C119.993 36.7122 119.827 36.5527 119.605 36.416C119.384 36.2728 119.111 36.1589 118.785 36.0742C118.46 35.9831 118.076 35.9375 117.633 35.9375H116.109V34.8047H117.633C118.486 34.8047 119.117 34.6549 119.527 34.3555C119.944 34.0495 120.152 33.7305 120.152 33.3984C120.152 32.9167 119.885 32.5326 119.352 32.2461C118.824 31.9596 118.098 31.8164 117.174 31.8164C116.406 31.8164 115.771 31.9531 115.27 32.2266C114.768 32.5 114.384 32.8646 114.117 33.3203L113.121 32.6367C113.518 31.9857 114.042 31.4974 114.693 31.1719C115.351 30.8464 116.178 30.6836 117.174 30.6836C117.805 30.6836 118.382 30.7487 118.902 30.8789C119.43 31.0026 119.885 31.1816 120.27 31.416C120.66 31.6439 120.963 31.9303 121.178 32.2754C121.393 32.6139 121.5 32.9883 121.5 33.3984ZM124.273 30.8984H125.611V38.2422L130.533 30.8984H132.418V40H131.07V32.3242L125.934 40H124.273V30.8984ZM143.336 40H141.988V35.918H136.529V40H135.191V30.8984H136.529V34.7754H141.988V30.8984H143.336V40Z" fill="black"/>
<circle cx="17.5" cy="17.5" r="7.5" fill="#3C604F"/>
<rect x="0.25" y="0.25" width="192.5" height="67.5" stroke="black" stroke-width="0.5"/>
</svg>
