<svg width="238" height="85" viewBox="0 0 238 85" fill="none" xmlns="http://www.w3.org/2000/svg">
<rect x="12.3527" y="0.268121" width="225.5" height="67.5" transform="rotate(4.32 12.3527 0.268121)" fill="#3C604F" stroke="black" stroke-width="0.5"/>
<rect x="0.25" y="7.25" width="225.5" height="67.5" fill="#E6E5E3"/>
<path d="M56.1152 47H54.7676V39.041H49.3086V47H47.9707V37.8984H56.1152V47ZM67.5117 42.459C67.5117 43.1686 67.401 43.8132 67.1797 44.3926C66.9583 44.972 66.6458 45.4733 66.2422 45.8965C65.8451 46.3132 65.3633 46.6387 64.7969 46.873C64.2305 47.1074 63.5957 47.2246 62.8926 47.2246C62.4108 47.2246 61.9421 47.1367 61.4863 46.9609C61.0371 46.7852 60.6172 46.5247 60.2266 46.1797V50.6426H58.8887V37.8984H60.2266V38.7383C61.0534 38.0352 61.9421 37.6836 62.8926 37.6836C63.5957 37.6836 64.2305 37.8008 64.7969 38.0352C65.3633 38.263 65.8451 38.5918 66.2422 39.0215C66.6458 39.4447 66.9583 39.9525 67.1797 40.5449C67.401 41.1309 67.5117 41.7689 67.5117 42.459ZM66.1738 42.459C66.1738 41.9512 66.1022 41.4759 65.959 41.0332C65.8223 40.584 65.6139 40.1966 65.334 39.8711C65.054 39.5456 64.709 39.2884 64.2988 39.0996C63.8952 38.9108 63.4264 38.8164 62.8926 38.8164C62.3848 38.8164 61.9095 38.9108 61.4668 39.0996C61.0306 39.2884 60.6172 39.5944 60.2266 40.0176V44.9004C60.6172 45.3236 61.0306 45.6263 61.4668 45.8086C61.9095 45.9909 62.3848 46.082 62.8926 46.082C63.4264 46.082 63.8952 45.9876 64.2988 45.7988C64.709 45.61 65.054 45.3529 65.334 45.0273C65.6139 44.7018 65.8223 44.321 65.959 43.8848C66.1022 43.4421 66.1738 42.9668 66.1738 42.459ZM70.666 42.918C70.7637 43.8815 71.1152 44.6497 71.7207 45.2227C72.3262 45.7956 73.1139 46.082 74.084 46.082C74.7676 46.082 75.3763 45.9421 75.9102 45.6621C76.444 45.3822 76.8444 45.0339 77.1113 44.6172L78.0488 45.2617C77.5931 45.8997 77.0495 46.388 76.418 46.7266C75.7865 47.0586 75.0085 47.2246 74.084 47.2246C73.3809 47.2246 72.7363 47.1074 72.1504 46.873C71.5645 46.6387 71.0566 46.3132 70.627 45.8965C70.2038 45.4733 69.875 44.972 69.6406 44.3926C69.4062 43.8132 69.2891 43.1686 69.2891 42.459C69.2891 41.7689 69.3932 41.1341 69.6016 40.5547C69.8164 39.9688 70.1224 39.4642 70.5195 39.041C70.9232 38.6113 71.4115 38.2793 71.9844 38.0449C72.5573 37.804 73.1986 37.6836 73.9082 37.6836C74.6829 37.6836 75.36 37.8138 75.9395 38.0742C76.5189 38.3346 77.0007 38.696 77.3848 39.1582C77.7754 39.6139 78.0618 40.1608 78.2441 40.7988C78.4329 41.4368 78.5273 42.1432 78.5273 42.918H70.666ZM77.1113 41.7754C76.9616 40.7793 76.6003 40.0371 76.0273 39.5488C75.4544 39.0605 74.748 38.8164 73.9082 38.8164C73.4785 38.8164 73.0814 38.888 72.7168 39.0312C72.3522 39.168 72.0299 39.3665 71.75 39.627C71.4701 39.8874 71.2357 40.2031 71.0469 40.5742C70.8581 40.9388 70.7376 41.3392 70.6855 41.7754H77.1113ZM80.2461 45.8574C80.5521 45.7923 80.8451 45.6165 81.125 45.3301C81.4049 45.0436 81.6491 44.6465 81.8574 44.1387C82.0658 43.6309 82.2318 43.0156 82.3555 42.293C82.4857 41.5638 82.5508 40.7272 82.5508 39.7832V37.8984H87.5215V45.8574H89.3477V50.1152H88.1465V47H81.4473V50.1152H80.2461V45.8574ZM83.8887 39.7832C83.8887 40.5384 83.8333 41.248 83.7227 41.9121C83.6185 42.5697 83.4785 43.1589 83.3027 43.6797C83.1335 44.2005 82.9382 44.6497 82.7168 45.0273C82.4954 45.3984 82.2773 45.6751 82.0625 45.8574H86.1836V39.041H83.8887V39.7832ZM99.7871 47H98.4395V39.041H92.9805V47H91.6426V37.8984H99.7871V47ZM111.184 42.459C111.184 43.1686 111.073 43.8132 110.852 44.3926C110.63 44.972 110.318 45.4733 109.914 45.8965C109.517 46.3132 109.035 46.6387 108.469 46.873C107.902 47.1074 107.268 47.2246 106.564 47.2246C106.083 47.2246 105.614 47.1367 105.158 46.9609C104.709 46.7852 104.289 46.5247 103.898 46.1797V50.6426H102.561V37.8984H103.898V38.7383C104.725 38.0352 105.614 37.6836 106.564 37.6836C107.268 37.6836 107.902 37.8008 108.469 38.0352C109.035 38.263 109.517 38.5918 109.914 39.0215C110.318 39.4447 110.63 39.9525 110.852 40.5449C111.073 41.1309 111.184 41.7689 111.184 42.459ZM109.846 42.459C109.846 41.9512 109.774 41.4759 109.631 41.0332C109.494 40.584 109.286 40.1966 109.006 39.8711C108.726 39.5456 108.381 39.2884 107.971 39.0996C107.567 38.9108 107.098 38.8164 106.564 38.8164C106.057 38.8164 105.581 38.9108 105.139 39.0996C104.702 39.2884 104.289 39.5944 103.898 40.0176V44.9004C104.289 45.3236 104.702 45.6263 105.139 45.8086C105.581 45.9909 106.057 46.082 106.564 46.082C107.098 46.082 107.567 45.9876 107.971 45.7988C108.381 45.61 108.726 45.3529 109.006 45.0273C109.286 44.7018 109.494 44.321 109.631 43.8848C109.774 43.4421 109.846 42.9668 109.846 42.459ZM122.336 42.4785C122.336 43.1882 122.222 43.8327 121.994 44.4121C121.773 44.9915 121.451 45.4896 121.027 45.9062C120.611 46.3164 120.109 46.6387 119.523 46.873C118.938 47.1074 118.283 47.2246 117.561 47.2246C116.851 47.2246 116.203 47.1074 115.617 46.873C115.031 46.6387 114.527 46.3164 114.104 45.9062C113.687 45.4896 113.365 44.9915 113.137 44.4121C112.915 43.8327 112.805 43.1882 112.805 42.4785C112.805 41.7884 112.915 41.1471 113.137 40.5547C113.365 39.9557 113.687 39.4479 114.104 39.0312C114.527 38.6081 115.031 38.2793 115.617 38.0449C116.203 37.804 116.851 37.6836 117.561 37.6836C118.283 37.6836 118.938 37.804 119.523 38.0449C120.109 38.2793 120.611 38.6081 121.027 39.0312C121.451 39.4479 121.773 39.9557 121.994 40.5547C122.222 41.1471 122.336 41.7884 122.336 42.4785ZM120.998 42.4785C120.998 41.9577 120.92 41.4792 120.764 41.043C120.614 40.6003 120.389 40.2129 120.09 39.8809C119.79 39.5488 119.426 39.2884 118.996 39.0996C118.573 38.9108 118.094 38.8164 117.561 38.8164C117.027 38.8164 116.545 38.9108 116.115 39.0996C115.692 39.2884 115.334 39.5488 115.041 39.8809C114.748 40.2129 114.523 40.6003 114.367 41.043C114.217 41.4792 114.143 41.9577 114.143 42.4785C114.143 42.9993 114.217 43.4811 114.367 43.9238C114.523 44.36 114.748 44.7376 115.041 45.0566C115.334 45.3757 115.692 45.6263 116.115 45.8086C116.545 45.9909 117.027 46.082 117.561 46.082C118.094 46.082 118.573 45.9909 118.996 45.8086C119.426 45.6263 119.79 45.3757 120.09 45.0566C120.389 44.7376 120.614 44.36 120.764 43.9238C120.92 43.4811 120.998 42.9993 120.998 42.4785ZM132.678 45.2812C132.294 45.8802 131.766 46.3555 131.096 46.707C130.432 47.0521 129.641 47.2246 128.723 47.2246C128.013 47.2246 127.362 47.1074 126.77 46.873C126.177 46.6387 125.669 46.3132 125.246 45.8965C124.829 45.4733 124.504 44.972 124.27 44.3926C124.035 43.8132 123.918 43.1686 123.918 42.459C123.918 41.7689 124.025 41.1309 124.24 40.5449C124.455 39.9525 124.761 39.4479 125.158 39.0312C125.555 38.6081 126.04 38.2793 126.613 38.0449C127.193 37.804 127.834 37.6836 128.537 37.6836C128.817 37.6836 129.104 37.7161 129.396 37.7812C129.689 37.8464 129.966 37.9473 130.227 38.084C130.487 38.2142 130.721 38.3737 130.93 38.5625C131.138 38.7448 131.294 38.9629 131.398 39.2168V37.8984H132.6V41.541H131.398C131.398 41.1374 131.324 40.7695 131.174 40.4375C131.031 40.1055 130.832 39.819 130.578 39.5781C130.324 39.3372 130.021 39.1517 129.67 39.0215C129.318 38.8848 128.941 38.8164 128.537 38.8164C127.99 38.8164 127.512 38.9108 127.102 39.0996C126.698 39.2884 126.359 39.5456 126.086 39.8711C125.812 40.1966 125.604 40.5807 125.461 41.0234C125.324 41.4596 125.256 41.9382 125.256 42.459C125.256 42.9798 125.334 43.4616 125.49 43.9043C125.653 44.3405 125.884 44.7181 126.184 45.0371C126.49 45.3561 126.854 45.61 127.277 45.7988C127.707 45.9876 128.189 46.082 128.723 46.082C129.4 46.082 130.002 45.9518 130.529 45.6914C131.057 45.431 131.46 45.0794 131.74 44.6367L132.678 45.2812ZM143.459 47H142.111V39.7832L139.875 44.5H138.918L136.652 39.7832V47H135.314V37.8984H137.053L139.396 42.6445L141.721 37.8984H143.459V47ZM155.09 42.4785C155.09 43.1882 154.976 43.8327 154.748 44.4121C154.527 44.9915 154.204 45.4896 153.781 45.9062C153.365 46.3164 152.863 46.6387 152.277 46.873C151.691 47.1074 151.037 47.2246 150.314 47.2246C149.605 47.2246 148.957 47.1074 148.371 46.873C147.785 46.6387 147.281 46.3164 146.857 45.9062C146.441 45.4896 146.118 44.9915 145.891 44.4121C145.669 43.8327 145.559 43.1882 145.559 42.4785C145.559 41.7884 145.669 41.1471 145.891 40.5547C146.118 39.9557 146.441 39.4479 146.857 39.0312C147.281 38.6081 147.785 38.2793 148.371 38.0449C148.957 37.804 149.605 37.6836 150.314 37.6836C151.037 37.6836 151.691 37.804 152.277 38.0449C152.863 38.2793 153.365 38.6081 153.781 39.0312C154.204 39.4479 154.527 39.9557 154.748 40.5547C154.976 41.1471 155.09 41.7884 155.09 42.4785ZM153.752 42.4785C153.752 41.9577 153.674 41.4792 153.518 41.043C153.368 40.6003 153.143 40.2129 152.844 39.8809C152.544 39.5488 152.18 39.2884 151.75 39.0996C151.327 38.9108 150.848 38.8164 150.314 38.8164C149.781 38.8164 149.299 38.9108 148.869 39.0996C148.446 39.2884 148.088 39.5488 147.795 39.8809C147.502 40.2129 147.277 40.6003 147.121 41.043C146.971 41.4792 146.896 41.9577 146.896 42.4785C146.896 42.9993 146.971 43.4811 147.121 43.9238C147.277 44.36 147.502 44.7376 147.795 45.0566C148.088 45.3757 148.446 45.6263 148.869 45.8086C149.299 45.9909 149.781 46.082 150.314 46.082C150.848 46.082 151.327 45.9909 151.75 45.8086C152.18 45.6263 152.544 45.3757 152.844 45.0566C153.143 44.7376 153.368 44.36 153.518 43.9238C153.674 43.4811 153.752 42.9993 153.752 42.4785ZM165.773 42.1953H164.631V39.041H161.896V45.8574H163.947V47H158.488V45.8574H160.549V39.041H157.814V42.1953H156.672V37.8984H165.773V42.1953ZM176.691 42.459C176.691 43.1686 176.581 43.8132 176.359 44.3926C176.138 44.972 175.826 45.4733 175.422 45.8965C175.025 46.3132 174.543 46.6387 173.977 46.873C173.41 47.1074 172.775 47.2246 172.072 47.2246C171.59 47.2246 171.122 47.1367 170.666 46.9609C170.217 46.7852 169.797 46.5247 169.406 46.1797V50.6426H168.068V37.8984H169.406V38.7383C170.233 38.0352 171.122 37.6836 172.072 37.6836C172.775 37.6836 173.41 37.8008 173.977 38.0352C174.543 38.263 175.025 38.5918 175.422 39.0215C175.826 39.4447 176.138 39.9525 176.359 40.5449C176.581 41.1309 176.691 41.7689 176.691 42.459ZM175.354 42.459C175.354 41.9512 175.282 41.4759 175.139 41.0332C175.002 40.584 174.794 40.1966 174.514 39.8711C174.234 39.5456 173.889 39.2884 173.479 39.0996C173.075 38.9108 172.606 38.8164 172.072 38.8164C171.564 38.8164 171.089 38.9108 170.646 39.0996C170.21 39.2884 169.797 39.5944 169.406 40.0176V44.9004C169.797 45.3236 170.21 45.6263 170.646 45.8086C171.089 45.9909 171.564 46.082 172.072 46.082C172.606 46.082 173.075 45.9876 173.479 45.7988C173.889 45.61 174.234 45.3529 174.514 45.0273C174.794 44.7018 175.002 44.321 175.139 43.8848C175.282 43.4421 175.354 42.9668 175.354 42.459Z" fill="black"/>
<circle cx="17.5" cy="24.5" r="7.5" fill="#3C604F"/>
<rect x="0.25" y="7.25" width="225.5" height="67.5" stroke="black" stroke-width="0.5"/>
</svg>
