<svg width="194" height="82" viewBox="0 0 194 82" fill="none" xmlns="http://www.w3.org/2000/svg">
<rect x="12.3528" y="0.268121" width="181.5" height="67.5" transform="rotate(4.32 12.3528 0.268121)" fill="#3C604F" stroke="black" stroke-width="0.5"/>
<rect x="0.25" y="7.25" width="181.5" height="67.5" fill="#E6E5E3"/>
<path d="M56.6641 42.4785C56.6641 43.1882 56.5501 43.8327 56.3223 44.4121C56.1009 44.9915 55.7786 45.4896 55.3555 45.9062C54.9388 46.3164 54.4375 46.6387 53.8516 46.873C53.2656 47.1074 52.6113 47.2246 51.8887 47.2246C51.179 47.2246 50.5312 47.1074 49.9453 46.873C49.3594 46.6387 48.8548 46.3164 48.4316 45.9062C48.015 45.4896 47.6927 44.9915 47.4648 44.4121C47.2435 43.8327 47.1328 43.1882 47.1328 42.4785C47.1328 41.7884 47.2435 41.1471 47.4648 40.5547C47.6927 39.9557 48.015 39.4479 48.4316 39.0312C48.8548 38.6081 49.3594 38.2793 49.9453 38.0449C50.5312 37.804 51.179 37.6836 51.8887 37.6836C52.6113 37.6836 53.2656 37.804 53.8516 38.0449C54.4375 38.2793 54.9388 38.6081 55.3555 39.0312C55.7786 39.4479 56.1009 39.9557 56.3223 40.5547C56.5501 41.1471 56.6641 41.7884 56.6641 42.4785ZM55.3262 42.4785C55.3262 41.9577 55.248 41.4792 55.0918 41.043C54.9421 40.6003 54.7174 40.2129 54.418 39.8809C54.1185 39.5488 53.7539 39.2884 53.3242 39.0996C52.901 38.9108 52.4225 38.8164 51.8887 38.8164C51.3548 38.8164 50.873 38.9108 50.4434 39.0996C50.0202 39.2884 49.6621 39.5488 49.3691 39.8809C49.0762 40.2129 48.8516 40.6003 48.6953 41.043C48.5456 41.4792 48.4707 41.9577 48.4707 42.4785C48.4707 42.9993 48.5456 43.4811 48.6953 43.9238C48.8516 44.36 49.0762 44.7376 49.3691 45.0566C49.6621 45.3757 50.0202 45.6263 50.4434 45.8086C50.873 45.9909 51.3548 46.082 51.8887 46.082C52.4225 46.082 52.901 45.9909 53.3242 45.8086C53.7539 45.6263 54.1185 45.3757 54.418 45.0566C54.7174 44.7376 54.9421 44.36 55.0918 43.9238C55.248 43.4811 55.3262 42.9993 55.3262 42.4785ZM78.2461 47H76.3418L72.6211 42.918L70.9805 44.4219V47H69.6426V37.8984H70.9805V42.8008L76.166 37.8984H78.0801L73.5195 42.0781L78.2461 47ZM89.4668 37.8984L84.5449 49.3047C84.291 49.9427 83.9329 50.3594 83.4707 50.5547C83.0085 50.7565 82.4974 50.8574 81.9375 50.8574C81.3125 50.8574 80.6875 50.7435 80.0625 50.5156L80.3262 49.3633C80.6322 49.4935 80.9316 49.5846 81.2246 49.6367C81.5176 49.6953 81.7552 49.7246 81.9375 49.7246C82.3802 49.7246 82.6829 49.6172 82.8457 49.4023C83.015 49.1875 83.1615 48.9336 83.2852 48.6406L83.8418 47.2637L79.7793 37.8984H81.3613L84.6426 45.8574L87.8652 37.8984H89.4668ZM100.102 42.459C100.102 43.1686 99.9909 43.8132 99.7695 44.3926C99.5482 44.972 99.2357 45.4733 98.832 45.8965C98.4349 46.3132 97.9531 46.6387 97.3867 46.873C96.8203 47.1074 96.1855 47.2246 95.4824 47.2246C95.0007 47.2246 94.5319 47.1367 94.0762 46.9609C93.627 46.7852 93.207 46.5247 92.8164 46.1797V50.6426H91.4785V37.8984H92.8164V38.7383C93.6432 38.0352 94.5319 37.6836 95.4824 37.6836C96.1855 37.6836 96.8203 37.8008 97.3867 38.0352C97.9531 38.263 98.4349 38.5918 98.832 39.0215C99.2357 39.4447 99.5482 39.9525 99.7695 40.5449C99.9909 41.1309 100.102 41.7689 100.102 42.459ZM98.7637 42.459C98.7637 41.9512 98.6921 41.4759 98.5488 41.0332C98.4121 40.584 98.2038 40.1966 97.9238 39.8711C97.6439 39.5456 97.2988 39.2884 96.8887 39.0996C96.485 38.9108 96.0163 38.8164 95.4824 38.8164C94.9746 38.8164 94.4993 38.9108 94.0566 39.0996C93.6204 39.2884 93.207 39.5944 92.8164 40.0176V44.9004C93.207 45.3236 93.6204 45.6263 94.0566 45.8086C94.4993 45.9909 94.9746 46.082 95.4824 46.082C96.0163 46.082 96.485 45.9876 96.8887 45.7988C97.2988 45.61 97.6439 45.3529 97.9238 45.0273C98.2038 44.7018 98.4121 44.321 98.5488 43.8848C98.6921 43.4421 98.7637 42.9668 98.7637 42.459ZM110.678 45.2812C110.294 45.8802 109.766 46.3555 109.096 46.707C108.432 47.0521 107.641 47.2246 106.723 47.2246C106.013 47.2246 105.362 47.1074 104.77 46.873C104.177 46.6387 103.669 46.3132 103.246 45.8965C102.829 45.4733 102.504 44.972 102.27 44.3926C102.035 43.8132 101.918 43.1686 101.918 42.459C101.918 41.7689 102.025 41.1309 102.24 40.5449C102.455 39.9525 102.761 39.4479 103.158 39.0312C103.555 38.6081 104.04 38.2793 104.613 38.0449C105.193 37.804 105.834 37.6836 106.537 37.6836C106.817 37.6836 107.104 37.7161 107.396 37.7812C107.689 37.8464 107.966 37.9473 108.227 38.084C108.487 38.2142 108.721 38.3737 108.93 38.5625C109.138 38.7448 109.294 38.9629 109.398 39.2168V37.8984H110.6V41.541H109.398C109.398 41.1374 109.324 40.7695 109.174 40.4375C109.031 40.1055 108.832 39.819 108.578 39.5781C108.324 39.3372 108.021 39.1517 107.67 39.0215C107.318 38.8848 106.941 38.8164 106.537 38.8164C105.99 38.8164 105.512 38.9108 105.102 39.0996C104.698 39.2884 104.359 39.5456 104.086 39.8711C103.812 40.1966 103.604 40.5807 103.461 41.0234C103.324 41.4596 103.256 41.9382 103.256 42.459C103.256 42.9798 103.334 43.4616 103.49 43.9043C103.653 44.3405 103.884 44.7181 104.184 45.0371C104.49 45.3561 104.854 45.61 105.277 45.7988C105.707 45.9876 106.189 46.082 106.723 46.082C107.4 46.082 108.002 45.9518 108.529 45.6914C109.057 45.431 109.46 45.0794 109.74 44.6367L110.678 45.2812ZM112.816 44.5391C112.816 43.9661 112.96 43.4876 113.246 43.1035C113.533 42.7129 113.907 42.4069 114.369 42.1855C114.838 41.9577 115.372 41.7949 115.971 41.6973C116.576 41.5931 117.191 41.541 117.816 41.541C118.057 41.541 118.272 41.5443 118.461 41.5508C118.656 41.5573 118.839 41.5671 119.008 41.5801C119.184 41.5931 119.359 41.6094 119.535 41.6289C119.711 41.6484 119.903 41.6712 120.111 41.6973V41.043C120.111 40.6003 120.014 40.2357 119.818 39.9492C119.63 39.6628 119.395 39.4382 119.115 39.2754C118.835 39.1061 118.542 38.9889 118.236 38.9238C117.93 38.8522 117.67 38.8164 117.455 38.8164C116.778 38.8164 116.153 38.9076 115.58 39.0898C115.007 39.2721 114.473 39.5163 113.979 39.8223L113.373 38.8164C113.92 38.4844 114.532 38.2142 115.209 38.0059C115.893 37.791 116.641 37.6836 117.455 37.6836C117.95 37.6836 118.435 37.7487 118.91 37.8789C119.392 38.0026 119.822 38.1979 120.199 38.4648C120.583 38.7253 120.889 39.0703 121.117 39.5C121.345 39.9297 121.459 40.444 121.459 41.043V47H120.111V45.4766C119.877 45.7695 119.61 46.0267 119.311 46.248C119.018 46.4694 118.708 46.6517 118.383 46.7949C118.057 46.9316 117.732 47.0358 117.406 47.1074C117.081 47.1855 116.771 47.2246 116.479 47.2246C115.274 47.2246 114.363 46.9935 113.744 46.5312C113.126 46.069 112.816 45.4049 112.816 44.5391ZM116.479 46.082C117.038 46.082 117.54 46.0007 117.982 45.8379C118.432 45.6686 118.812 45.4603 119.125 45.2129C119.438 44.9655 119.678 44.7018 119.848 44.4219C120.023 44.1419 120.111 43.888 120.111 43.6602V42.8008C119.675 42.7357 119.255 42.6999 118.852 42.6934C118.454 42.6868 118.109 42.6836 117.816 42.6836C117.335 42.6836 116.869 42.7161 116.42 42.7812C115.977 42.8464 115.59 42.9538 115.258 43.1035C114.926 43.2467 114.659 43.4355 114.457 43.6699C114.255 43.9043 114.154 44.194 114.154 44.5391C114.154 44.9232 114.34 45.278 114.711 45.6035C115.089 45.9225 115.678 46.082 116.479 46.082ZM133.07 47H129.311V45.8184H130.111L128.314 43.1816L126.537 45.8184H127.27V47H123.559V45.8184H124.975L127.475 42.3809L125.072 39.0996H123.754V37.8984H127.494V39.0996H126.654L128.314 41.5801L129.994 39.0996H129.076V37.8984H132.855V39.0996H131.576L129.174 42.3809L131.674 45.8184H133.07V47Z" fill="black"/>
<circle cx="17.5" cy="24.5" r="7.5" fill="#3C604F"/>
<rect x="0.25" y="7.25" width="181.5" height="67.5" stroke="black" stroke-width="0.5"/>
</svg>
