<svg width="280" height="84" viewBox="0 0 280 84" fill="none" xmlns="http://www.w3.org/2000/svg">
<rect x="10.5079" y="7.25819" width="268.5" height="67.5" transform="rotate(1.91 10.5079 7.25819)" fill="#3C604F" stroke="black" stroke-width="0.5"/>
<rect x="0.25" y="0.25" width="268.5" height="67.5" fill="#E6E5E3"/>
<path d="M56.4922 35.4785C56.4922 36.1882 56.3783 36.8327 56.1504 37.4121C55.929 37.9915 55.6068 38.4896 55.1836 38.9062C54.7669 39.3164 54.2656 39.6387 53.6797 39.873C53.0938 40.1074 52.4395 40.2246 51.7168 40.2246C51.0072 40.2246 50.3594 40.1074 49.7734 39.873C49.1875 39.6387 48.6829 39.3164 48.2598 38.9062C47.8431 38.4896 47.5208 37.9915 47.293 37.4121C47.0716 36.8327 46.9609 36.1882 46.9609 35.4785C46.9609 34.7884 47.0716 34.1471 47.293 33.5547C47.5208 32.9557 47.8431 32.4479 48.2598 32.0312C48.6829 31.6081 49.1875 31.2793 49.7734 31.0449C50.3594 30.804 51.0072 30.6836 51.7168 30.6836C52.4395 30.6836 53.0938 30.804 53.6797 31.0449C54.2656 31.2793 54.7669 31.6081 55.1836 32.0312C55.6068 32.4479 55.929 32.9557 56.1504 33.5547C56.3783 34.1471 56.4922 34.7884 56.4922 35.4785ZM55.1543 35.4785C55.1543 34.9577 55.0762 34.4792 54.9199 34.043C54.7702 33.6003 54.5456 33.2129 54.2461 32.8809C53.9466 32.5488 53.582 32.2884 53.1523 32.0996C52.7292 31.9108 52.2507 31.8164 51.7168 31.8164C51.1829 31.8164 50.7012 31.9108 50.2715 32.0996C49.8483 32.2884 49.4902 32.5488 49.1973 32.8809C48.9043 33.2129 48.6797 33.6003 48.5234 34.043C48.3737 34.4792 48.2988 34.9577 48.2988 35.4785C48.2988 35.9993 48.3737 36.4811 48.5234 36.9238C48.6797 37.36 48.9043 37.7376 49.1973 38.0566C49.4902 38.3757 49.8483 38.6263 50.2715 38.8086C50.7012 38.9909 51.1829 39.082 51.7168 39.082C52.2507 39.082 52.7292 38.9909 53.1523 38.8086C53.582 38.6263 53.9466 38.3757 54.2461 38.0566C54.5456 37.7376 54.7702 37.36 54.9199 36.9238C55.0762 36.4811 55.1543 35.9993 55.1543 35.4785ZM67.1758 35.1953H66.0332V32.041H63.2988V38.8574H65.3496V40H59.8906V38.8574H61.9512V32.041H59.2168V35.1953H58.0742V30.8984H67.1758V35.1953ZM77.6152 40H76.2676V32.041H70.8086V40H69.4707V30.8984H77.6152V40ZM89.0117 35.459C89.0117 36.1686 88.901 36.8132 88.6797 37.3926C88.4583 37.972 88.1458 38.4733 87.7422 38.8965C87.3451 39.3132 86.8633 39.6387 86.2969 39.873C85.7305 40.1074 85.0957 40.2246 84.3926 40.2246C83.9108 40.2246 83.4421 40.1367 82.9863 39.9609C82.5371 39.7852 82.1172 39.5247 81.7266 39.1797V43.6426H80.3887V30.8984H81.7266V31.7383C82.5534 31.0352 83.4421 30.6836 84.3926 30.6836C85.0957 30.6836 85.7305 30.8008 86.2969 31.0352C86.8633 31.263 87.3451 31.5918 87.7422 32.0215C88.1458 32.4447 88.4583 32.9525 88.6797 33.5449C88.901 34.1309 89.0117 34.7689 89.0117 35.459ZM87.6738 35.459C87.6738 34.9512 87.6022 34.4759 87.459 34.0332C87.3223 33.584 87.1139 33.1966 86.834 32.8711C86.554 32.5456 86.209 32.2884 85.7988 32.0996C85.3952 31.9108 84.9264 31.8164 84.3926 31.8164C83.8848 31.8164 83.4095 31.9108 82.9668 32.0996C82.5306 32.2884 82.1172 32.5944 81.7266 33.0176V37.9004C82.1172 38.3236 82.5306 38.6263 82.9668 38.8086C83.4095 38.9909 83.8848 39.082 84.3926 39.082C84.9264 39.082 85.3952 38.9876 85.7988 38.7988C86.209 38.61 86.554 38.3529 86.834 38.0273C87.1139 37.7018 87.3223 37.321 87.459 36.8848C87.6022 36.4421 87.6738 35.9668 87.6738 35.459ZM90.8086 37.5391C90.8086 36.9661 90.9518 36.4876 91.2383 36.1035C91.5247 35.7129 91.8991 35.4069 92.3613 35.1855C92.8301 34.9577 93.3639 34.7949 93.9629 34.6973C94.5684 34.5931 95.1836 34.541 95.8086 34.541C96.0495 34.541 96.2643 34.5443 96.4531 34.5508C96.6484 34.5573 96.8307 34.5671 97 34.5801C97.1758 34.5931 97.3516 34.6094 97.5273 34.6289C97.7031 34.6484 97.8952 34.6712 98.1035 34.6973V34.043C98.1035 33.6003 98.0059 33.2357 97.8105 32.9492C97.6217 32.6628 97.3874 32.4382 97.1074 32.2754C96.8275 32.1061 96.5345 31.9889 96.2285 31.9238C95.9225 31.8522 95.6621 31.8164 95.4473 31.8164C94.7702 31.8164 94.1452 31.9076 93.5723 32.0898C92.9993 32.2721 92.4655 32.5163 91.9707 32.8223L91.3652 31.8164C91.9121 31.4844 92.5241 31.2142 93.2012 31.0059C93.8848 30.791 94.6335 30.6836 95.4473 30.6836C95.9421 30.6836 96.4271 30.7487 96.9023 30.8789C97.3841 31.0026 97.8138 31.1979 98.1914 31.4648C98.5755 31.7253 98.8815 32.0703 99.1094 32.5C99.3372 32.9297 99.4512 33.444 99.4512 34.043V40H98.1035V38.4766C97.8691 38.7695 97.6022 39.0267 97.3027 39.248C97.0098 39.4694 96.7005 39.6517 96.375 39.7949C96.0495 39.9316 95.724 40.0358 95.3984 40.1074C95.0729 40.1855 94.7637 40.2246 94.4707 40.2246C93.2663 40.2246 92.3548 39.9935 91.7363 39.5312C91.1178 39.069 90.8086 38.4049 90.8086 37.5391ZM94.4707 39.082C95.0306 39.082 95.5319 39.0007 95.9746 38.8379C96.4238 38.6686 96.8047 38.4603 97.1172 38.2129C97.4297 37.9655 97.6706 37.7018 97.8398 37.4219C98.0156 37.1419 98.1035 36.888 98.1035 36.6602V35.8008C97.6673 35.7357 97.2474 35.6999 96.8438 35.6934C96.4466 35.6868 96.1016 35.6836 95.8086 35.6836C95.3268 35.6836 94.8613 35.7161 94.4121 35.7812C93.9694 35.8464 93.582 35.9538 93.25 36.1035C92.918 36.2467 92.651 36.4355 92.4492 36.6699C92.2474 36.9043 92.1465 37.194 92.1465 37.5391C92.1465 37.9232 92.332 38.278 92.7031 38.6035C93.0807 38.9225 93.6699 39.082 94.4707 39.082ZM110.828 37.4023C110.828 38.2812 110.503 38.9355 109.852 39.3652C109.207 39.7884 108.279 40 107.068 40H102.225V30.8984H106.766C107.208 30.8984 107.645 30.9342 108.074 31.0059C108.51 31.071 108.898 31.1914 109.236 31.3672C109.575 31.5365 109.852 31.7741 110.066 32.0801C110.281 32.3861 110.389 32.7865 110.389 33.2812C110.389 33.75 110.275 34.1439 110.047 34.4629C109.819 34.7819 109.373 35.026 108.709 35.1953C109.523 35.3841 110.079 35.6641 110.379 36.0352C110.678 36.3997 110.828 36.8555 110.828 37.4023ZM109.051 33.3594C109.051 33.0794 108.976 32.8548 108.826 32.6855C108.676 32.5098 108.491 32.3763 108.27 32.2852C108.055 32.1875 107.814 32.1224 107.547 32.0898C107.28 32.0573 107.02 32.041 106.766 32.041H103.562V34.6582H106.766C107.033 34.6582 107.303 34.6419 107.576 34.6094C107.85 34.5768 108.097 34.5117 108.318 34.4141C108.54 34.3099 108.715 34.1764 108.846 34.0137C108.982 33.8444 109.051 33.6263 109.051 33.3594ZM109.49 37.3438C109.49 36.8099 109.272 36.4193 108.836 36.1719C108.4 35.9245 107.804 35.8008 107.049 35.8008H103.562V38.8574H107.049C107.804 38.8574 108.4 38.7305 108.836 38.4766C109.272 38.2227 109.49 37.8451 109.49 37.3438ZM113.143 30.8984H114.48V38.2422L119.402 30.8984H121.287V40H119.939V32.3242L114.803 40H113.143V30.8984ZM132.684 35.1953H131.541V32.041H128.807V38.8574H130.857V40H125.398V38.8574H127.459V32.041H124.725V35.1953H123.582V30.8984H132.684V35.1953ZM136.316 34.541H139.803C141.014 34.541 141.945 34.7591 142.596 35.1953C143.253 35.625 143.582 36.3118 143.582 37.2559C143.582 38.2064 143.257 38.903 142.605 39.3457C141.961 39.7819 141.033 40 139.822 40H134.979V30.8984H136.316V34.541ZM142.244 37.2559C142.244 36.7546 142.026 36.3672 141.59 36.0938C141.154 35.8203 140.558 35.6836 139.803 35.6836H136.316V38.8574H139.803C140.558 38.8574 141.154 38.7174 141.59 38.4375C142.026 38.1576 142.244 37.7637 142.244 37.2559ZM165.438 35.459C165.438 36.1686 165.327 36.8132 165.105 37.3926C164.884 37.972 164.572 38.4733 164.168 38.8965C163.771 39.3132 163.289 39.6387 162.723 39.873C162.156 40.1074 161.521 40.2246 160.818 40.2246C160.337 40.2246 159.868 40.1367 159.412 39.9609C158.963 39.7852 158.543 39.5247 158.152 39.1797V43.6426H156.814V30.8984H158.152V31.7383C158.979 31.0352 159.868 30.6836 160.818 30.6836C161.521 30.6836 162.156 30.8008 162.723 31.0352C163.289 31.263 163.771 31.5918 164.168 32.0215C164.572 32.4447 164.884 32.9525 165.105 33.5449C165.327 34.1309 165.438 34.7689 165.438 35.459ZM164.1 35.459C164.1 34.9512 164.028 34.4759 163.885 34.0332C163.748 33.584 163.54 33.1966 163.26 32.8711C162.98 32.5456 162.635 32.2884 162.225 32.0996C161.821 31.9108 161.352 31.8164 160.818 31.8164C160.311 31.8164 159.835 31.9108 159.393 32.0996C158.956 32.2884 158.543 32.5944 158.152 33.0176V37.9004C158.543 38.3236 158.956 38.6263 159.393 38.8086C159.835 38.9909 160.311 39.082 160.818 39.082C161.352 39.082 161.821 38.9876 162.225 38.7988C162.635 38.61 162.98 38.3529 163.26 38.0273C163.54 37.7018 163.748 37.321 163.885 36.8848C164.028 36.4421 164.1 35.9668 164.1 35.459ZM168.592 35.918C168.689 36.8815 169.041 37.6497 169.646 38.2227C170.252 38.7956 171.04 39.082 172.01 39.082C172.693 39.082 173.302 38.9421 173.836 38.6621C174.37 38.3822 174.77 38.0339 175.037 37.6172L175.975 38.2617C175.519 38.8997 174.975 39.388 174.344 39.7266C173.712 40.0586 172.934 40.2246 172.01 40.2246C171.307 40.2246 170.662 40.1074 170.076 39.873C169.49 39.6387 168.982 39.3132 168.553 38.8965C168.13 38.4733 167.801 37.972 167.566 37.3926C167.332 36.8132 167.215 36.1686 167.215 35.459C167.215 34.7689 167.319 34.1341 167.527 33.5547C167.742 32.9688 168.048 32.4642 168.445 32.041C168.849 31.6113 169.337 31.2793 169.91 31.0449C170.483 30.804 171.124 30.6836 171.834 30.6836C172.609 30.6836 173.286 30.8138 173.865 31.0742C174.445 31.3346 174.926 31.696 175.311 32.1582C175.701 32.6139 175.988 33.1608 176.17 33.7988C176.359 34.4368 176.453 35.1432 176.453 35.918H168.592ZM175.037 34.7754C174.887 33.7793 174.526 33.0371 173.953 32.5488C173.38 32.0605 172.674 31.8164 171.834 31.8164C171.404 31.8164 171.007 31.888 170.643 32.0312C170.278 32.168 169.956 32.3665 169.676 32.627C169.396 32.8874 169.161 33.2031 168.973 33.5742C168.784 33.9388 168.663 34.3392 168.611 34.7754H175.037ZM186.795 33.3984C186.795 33.8411 186.639 34.2578 186.326 34.6484C186.02 35.0326 185.548 35.2767 184.91 35.3809C185.509 35.498 185.991 35.752 186.355 36.1426C186.727 36.5267 186.912 36.9531 186.912 37.4219C186.912 37.8581 186.795 38.252 186.561 38.6035C186.326 38.9486 186.004 39.2415 185.594 39.4824C185.19 39.7233 184.712 39.9056 184.158 40.0293C183.605 40.1595 183.003 40.2246 182.352 40.2246C181.31 40.2246 180.451 40.0651 179.773 39.7461C179.103 39.4206 178.562 38.9323 178.152 38.2812L179.09 37.6367C179.396 38.1055 179.816 38.4635 180.35 38.7109C180.883 38.9583 181.551 39.082 182.352 39.082C183.309 39.082 184.083 38.9355 184.676 38.6426C185.275 38.3496 185.574 37.9427 185.574 37.4219C185.574 37.2461 185.516 37.0703 185.398 36.8945C185.288 36.7122 185.122 36.5527 184.9 36.416C184.679 36.2728 184.406 36.1589 184.08 36.0742C183.755 35.9831 183.37 35.9375 182.928 35.9375H181.404V34.8047H182.928C183.781 34.8047 184.412 34.6549 184.822 34.3555C185.239 34.0495 185.447 33.7305 185.447 33.3984C185.447 32.9167 185.18 32.5326 184.646 32.2461C184.119 31.9596 183.393 31.8164 182.469 31.8164C181.701 31.8164 181.066 31.9531 180.564 32.2266C180.063 32.5 179.679 32.8646 179.412 33.3203L178.416 32.6367C178.813 31.9857 179.337 31.4974 179.988 31.1719C180.646 30.8464 181.473 30.6836 182.469 30.6836C183.1 30.6836 183.676 30.7487 184.197 30.8789C184.725 31.0026 185.18 31.1816 185.564 31.416C185.955 31.6439 186.258 31.9303 186.473 32.2754C186.688 32.6139 186.795 32.9883 186.795 33.3984ZM189.568 30.8984H190.906V34.8828H192.752C192.869 32.0833 193.774 30.6836 195.467 30.6836C197.283 30.6836 198.191 32.2754 198.191 35.459C198.191 38.6361 197.283 40.2246 195.467 40.2246C193.748 40.2246 192.843 38.8216 192.752 36.0156H190.906V40H189.568V30.8984ZM195.467 39.1406C196.391 39.1406 196.854 37.9134 196.854 35.459C196.854 33.0176 196.391 31.7969 195.467 31.7969C194.549 31.7969 194.09 33.0176 194.09 35.459C194.09 37.9134 194.549 39.1406 195.467 39.1406ZM208.631 40H207.283V32.7832L205.047 37.5H204.09L201.824 32.7832V40H200.486V30.8984H202.225L204.568 35.6445L206.893 30.8984H208.631V40ZM212.264 35.918C212.361 36.8815 212.713 37.6497 213.318 38.2227C213.924 38.7956 214.712 39.082 215.682 39.082C216.365 39.082 216.974 38.9421 217.508 38.6621C218.042 38.3822 218.442 38.0339 218.709 37.6172L219.646 38.2617C219.191 38.8997 218.647 39.388 218.016 39.7266C217.384 40.0586 216.606 40.2246 215.682 40.2246C214.979 40.2246 214.334 40.1074 213.748 39.873C213.162 39.6387 212.654 39.3132 212.225 38.8965C211.801 38.4733 211.473 37.972 211.238 37.3926C211.004 36.8132 210.887 36.1686 210.887 35.459C210.887 34.7689 210.991 34.1341 211.199 33.5547C211.414 32.9688 211.72 32.4642 212.117 32.041C212.521 31.6113 213.009 31.2793 213.582 31.0449C214.155 30.804 214.796 30.6836 215.506 30.6836C216.281 30.6836 216.958 30.8138 217.537 31.0742C218.117 31.3346 218.598 31.696 218.982 32.1582C219.373 32.6139 219.66 33.1608 219.842 33.7988C220.031 34.4368 220.125 35.1432 220.125 35.918H212.264ZM218.709 34.7754C218.559 33.7793 218.198 33.0371 217.625 32.5488C217.052 32.0605 216.346 31.8164 215.506 31.8164C215.076 31.8164 214.679 31.888 214.314 32.0312C213.95 32.168 213.628 32.3665 213.348 32.627C213.068 32.8874 212.833 33.2031 212.645 33.5742C212.456 33.9388 212.335 34.3392 212.283 34.7754H218.709Z" fill="black"/>
<circle cx="17.5" cy="17.5" r="7.5" fill="#3C604F"/>
<rect x="0.25" y="0.25" width="268.5" height="67.5" stroke="black" stroke-width="0.5"/>
</svg>
