<svg width="205" height="83" viewBox="0 0 205 83" fill="none" xmlns="http://www.w3.org/2000/svg">
<rect x="12.3527" y="0.268121" width="192.5" height="67.5" transform="rotate(4.32 12.3527 0.268121)" fill="#3C604F" stroke="black" stroke-width="0.5"/>
<rect x="0.25" y="7.25" width="192.5" height="67.5" fill="#E6E5E3"/>
<path d="M55.9922 40.3984C55.9922 40.8411 55.8359 41.2578 55.5234 41.6484C55.2174 42.0326 54.7454 42.2767 54.1074 42.3809C54.7064 42.498 55.1882 42.752 55.5527 43.1426C55.9238 43.5267 56.1094 43.9531 56.1094 44.4219C56.1094 44.8581 55.9922 45.252 55.7578 45.6035C55.5234 45.9486 55.2012 46.2415 54.791 46.4824C54.3874 46.7233 53.9089 46.9056 53.3555 47.0293C52.8021 47.1595 52.1999 47.2246 51.5488 47.2246C50.5072 47.2246 49.6478 47.0651 48.9707 46.7461C48.3001 46.4206 47.7598 45.9323 47.3496 45.2812L48.2871 44.6367C48.5931 45.1055 49.013 45.4635 49.5469 45.7109C50.0807 45.9583 50.748 46.082 51.5488 46.082C52.5059 46.082 53.2806 45.9355 53.873 45.6426C54.472 45.3496 54.7715 44.9427 54.7715 44.4219C54.7715 44.2461 54.7129 44.0703 54.5957 43.8945C54.485 43.7122 54.319 43.5527 54.0977 43.416C53.8763 43.2728 53.6029 43.1589 53.2773 43.0742C52.9518 42.9831 52.5677 42.9375 52.125 42.9375H50.6016V41.8047H52.125C52.9779 41.8047 53.6094 41.6549 54.0195 41.3555C54.4362 41.0495 54.6445 40.7305 54.6445 40.3984C54.6445 39.9167 54.3776 39.5326 53.8438 39.2461C53.3164 38.9596 52.5905 38.8164 51.666 38.8164C50.8978 38.8164 50.263 38.9531 49.7617 39.2266C49.2604 39.5 48.8763 39.8646 48.6094 40.3203L47.6133 39.6367C48.0104 38.9857 48.5345 38.4974 49.1855 38.1719C49.8431 37.8464 50.6699 37.6836 51.666 37.6836C52.2975 37.6836 52.8737 37.7487 53.3945 37.8789C53.9219 38.0026 54.3776 38.1816 54.7617 38.416C55.1523 38.6439 55.4551 38.9303 55.6699 39.2754C55.8848 39.6139 55.9922 39.9883 55.9922 40.3984ZM58.2676 44.5391C58.2676 43.9661 58.4108 43.4876 58.6973 43.1035C58.9837 42.7129 59.3581 42.4069 59.8203 42.1855C60.2891 41.9577 60.8229 41.7949 61.4219 41.6973C62.0273 41.5931 62.6426 41.541 63.2676 41.541C63.5085 41.541 63.7233 41.5443 63.9121 41.5508C64.1074 41.5573 64.2897 41.5671 64.459 41.5801C64.6348 41.5931 64.8105 41.6094 64.9863 41.6289C65.1621 41.6484 65.3542 41.6712 65.5625 41.6973V41.043C65.5625 40.6003 65.4648 40.2357 65.2695 39.9492C65.0807 39.6628 64.8464 39.4382 64.5664 39.2754C64.2865 39.1061 63.9935 38.9889 63.6875 38.9238C63.3815 38.8522 63.1211 38.8164 62.9062 38.8164C62.2292 38.8164 61.6042 38.9076 61.0312 39.0898C60.4583 39.2721 59.9245 39.5163 59.4297 39.8223L58.8242 38.8164C59.3711 38.4844 59.9831 38.2142 60.6602 38.0059C61.3438 37.791 62.0924 37.6836 62.9062 37.6836C63.401 37.6836 63.8861 37.7487 64.3613 37.8789C64.8431 38.0026 65.2728 38.1979 65.6504 38.4648C66.0345 38.7253 66.3405 39.0703 66.5684 39.5C66.7962 39.9297 66.9102 40.444 66.9102 41.043V47H65.5625V45.4766C65.3281 45.7695 65.0612 46.0267 64.7617 46.248C64.4688 46.4694 64.1595 46.6517 63.834 46.7949C63.5085 46.9316 63.1829 47.0358 62.8574 47.1074C62.5319 47.1855 62.2227 47.2246 61.9297 47.2246C60.7253 47.2246 59.8138 46.9935 59.1953 46.5312C58.5768 46.069 58.2676 45.4049 58.2676 44.5391ZM61.9297 46.082C62.4896 46.082 62.9909 46.0007 63.4336 45.8379C63.8828 45.6686 64.2637 45.4603 64.5762 45.2129C64.8887 44.9655 65.1296 44.7018 65.2988 44.4219C65.4746 44.1419 65.5625 43.888 65.5625 43.6602V42.8008C65.1263 42.7357 64.7064 42.6999 64.3027 42.6934C63.9056 42.6868 63.5605 42.6836 63.2676 42.6836C62.7858 42.6836 62.3203 42.7161 61.8711 42.7812C61.4284 42.8464 61.041 42.9538 60.709 43.1035C60.377 43.2467 60.11 43.4355 59.9082 43.6699C59.7064 43.9043 59.6055 44.194 59.6055 44.5391C59.6055 44.9232 59.791 45.278 60.1621 45.6035C60.5397 45.9225 61.1289 46.082 61.9297 46.082ZM78.2871 44.4023C78.2871 45.2812 77.9616 45.9355 77.3105 46.3652C76.666 46.7884 75.7383 47 74.5273 47H69.6836V37.8984H74.2246C74.6673 37.8984 75.1035 37.9342 75.5332 38.0059C75.9694 38.071 76.3568 38.1914 76.6953 38.3672C77.0339 38.5365 77.3105 38.7741 77.5254 39.0801C77.7402 39.3861 77.8477 39.7865 77.8477 40.2812C77.8477 40.75 77.7337 41.1439 77.5059 41.4629C77.278 41.7819 76.832 42.026 76.168 42.1953C76.9818 42.3841 77.5384 42.6641 77.8379 43.0352C78.1374 43.3997 78.2871 43.8555 78.2871 44.4023ZM76.5098 40.3594C76.5098 40.0794 76.4349 39.8548 76.2852 39.6855C76.1354 39.5098 75.9499 39.3763 75.7285 39.2852C75.5137 39.1875 75.2728 39.1224 75.0059 39.0898C74.7389 39.0573 74.4785 39.041 74.2246 39.041H71.0215V41.6582H74.2246C74.4915 41.6582 74.7617 41.6419 75.0352 41.6094C75.3086 41.5768 75.556 41.5117 75.7773 41.4141C75.9987 41.3099 76.1745 41.1764 76.3047 41.0137C76.4414 40.8444 76.5098 40.6263 76.5098 40.3594ZM76.9492 44.3438C76.9492 43.8099 76.7311 43.4193 76.2949 43.1719C75.8587 42.9245 75.263 42.8008 74.5078 42.8008H71.0215V45.8574H74.5078C75.263 45.8574 75.8587 45.7305 76.2949 45.4766C76.7311 45.2227 76.9492 44.8451 76.9492 44.3438ZM81.4609 42.918C81.5586 43.8815 81.9102 44.6497 82.5156 45.2227C83.1211 45.7956 83.9089 46.082 84.8789 46.082C85.5625 46.082 86.1712 45.9421 86.7051 45.6621C87.2389 45.3822 87.6393 45.0339 87.9062 44.6172L88.8438 45.2617C88.388 45.8997 87.8444 46.388 87.2129 46.7266C86.5814 47.0586 85.8034 47.2246 84.8789 47.2246C84.1758 47.2246 83.5312 47.1074 82.9453 46.873C82.3594 46.6387 81.8516 46.3132 81.4219 45.8965C80.9987 45.4733 80.6699 44.972 80.4355 44.3926C80.2012 43.8132 80.084 43.1686 80.084 42.459C80.084 41.7689 80.1882 41.1341 80.3965 40.5547C80.6113 39.9688 80.9173 39.4642 81.3145 39.041C81.7181 38.6113 82.2064 38.2793 82.7793 38.0449C83.3522 37.804 83.9935 37.6836 84.7031 37.6836C85.4779 37.6836 86.1549 37.8138 86.7344 38.0742C87.3138 38.3346 87.7956 38.696 88.1797 39.1582C88.5703 39.6139 88.8568 40.1608 89.0391 40.7988C89.2279 41.4368 89.3223 42.1432 89.3223 42.918H81.4609ZM87.9062 41.7754C87.7565 40.7793 87.3952 40.0371 86.8223 39.5488C86.2493 39.0605 85.543 38.8164 84.7031 38.8164C84.2734 38.8164 83.8763 38.888 83.5117 39.0312C83.1471 39.168 82.8249 39.3665 82.5449 39.627C82.265 39.8874 82.0306 40.2031 81.8418 40.5742C81.653 40.9388 81.5326 41.3392 81.4805 41.7754H87.9062ZM100.143 42.459C100.143 43.1686 100.032 43.8132 99.8105 44.3926C99.5892 44.972 99.2767 45.4733 98.873 45.8965C98.4759 46.3132 97.9941 46.6387 97.4277 46.873C96.8613 47.1074 96.2266 47.2246 95.5234 47.2246C95.0417 47.2246 94.5729 47.1367 94.1172 46.9609C93.668 46.7852 93.248 46.5247 92.8574 46.1797V50.6426H91.5195V37.8984H92.8574V38.7383C93.6842 38.0352 94.5729 37.6836 95.5234 37.6836C96.2266 37.6836 96.8613 37.8008 97.4277 38.0352C97.9941 38.263 98.4759 38.5918 98.873 39.0215C99.2767 39.4447 99.5892 39.9525 99.8105 40.5449C100.032 41.1309 100.143 41.7689 100.143 42.459ZM98.8047 42.459C98.8047 41.9512 98.7331 41.4759 98.5898 41.0332C98.4531 40.584 98.2448 40.1966 97.9648 39.8711C97.6849 39.5456 97.3398 39.2884 96.9297 39.0996C96.526 38.9108 96.0573 38.8164 95.5234 38.8164C95.0156 38.8164 94.5404 38.9108 94.0977 39.0996C93.6615 39.2884 93.248 39.5944 92.8574 40.0176V44.9004C93.248 45.3236 93.6615 45.6263 94.0977 45.8086C94.5404 45.9909 95.0156 46.082 95.5234 46.082C96.0573 46.082 96.526 45.9876 96.9297 45.7988C97.3398 45.61 97.6849 45.3529 97.9648 45.0273C98.2448 44.7018 98.4531 44.321 98.5898 43.8848C98.7331 43.4421 98.8047 42.9668 98.8047 42.459ZM105.836 37.8984H107.184V45.8574H109.723V37.8984H111.061V47H101.959V37.8984H103.297V45.8574H105.836V37.8984ZM113.355 37.8984H114.693V45.2422L119.615 37.8984H121.5V47H120.152V39.3242L115.016 47H113.355V37.8984ZM132.896 42.1953H131.754V39.041H129.02V45.8574H131.07V47H125.611V45.8574H127.672V39.041H124.938V42.1953H123.795V37.8984H132.896V42.1953ZM136.529 41.541H140.016C141.227 41.541 142.158 41.7591 142.809 42.1953C143.466 42.625 143.795 43.3118 143.795 44.2559C143.795 45.2064 143.469 45.903 142.818 46.3457C142.174 46.7819 141.246 47 140.035 47H135.191V37.8984H136.529V41.541ZM142.457 44.2559C142.457 43.7546 142.239 43.3672 141.803 43.0938C141.367 42.8203 140.771 42.6836 140.016 42.6836H136.529V45.8574H140.016C140.771 45.8574 141.367 45.7174 141.803 45.4375C142.239 45.1576 142.457 44.7637 142.457 44.2559Z" fill="black"/>
<circle cx="17.5" cy="24.5" r="7.5" fill="#3C604F"/>
<rect x="0.25" y="7.25" width="192.5" height="67.5" stroke="black" stroke-width="0.5"/>
</svg>
