<svg width="193" height="82" viewBox="0 0 193 82" fill="none" xmlns="http://www.w3.org/2000/svg">
<rect x="10.5079" y="7.25819" width="181.5" height="67.5" transform="rotate(1.91 10.5079 7.25819)" fill="#3C604F" stroke="black" stroke-width="0.5"/>
<rect x="0.25" y="0.25" width="181.5" height="67.5" fill="#E6E5E3"/>
<path d="M56.6641 35.4785C56.6641 36.1882 56.5501 36.8327 56.3223 37.4121C56.1009 37.9915 55.7786 38.4896 55.3555 38.9062C54.9388 39.3164 54.4375 39.6387 53.8516 39.873C53.2656 40.1074 52.6113 40.2246 51.8887 40.2246C51.179 40.2246 50.5312 40.1074 49.9453 39.873C49.3594 39.6387 48.8548 39.3164 48.4316 38.9062C48.015 38.4896 47.6927 37.9915 47.4648 37.4121C47.2435 36.8327 47.1328 36.1882 47.1328 35.4785C47.1328 34.7884 47.2435 34.1471 47.4648 33.5547C47.6927 32.9557 48.015 32.4479 48.4316 32.0312C48.8548 31.6081 49.3594 31.2793 49.9453 31.0449C50.5312 30.804 51.179 30.6836 51.8887 30.6836C52.6113 30.6836 53.2656 30.804 53.8516 31.0449C54.4375 31.2793 54.9388 31.6081 55.3555 32.0312C55.7786 32.4479 56.1009 32.9557 56.3223 33.5547C56.5501 34.1471 56.6641 34.7884 56.6641 35.4785ZM55.3262 35.4785C55.3262 34.9577 55.248 34.4792 55.0918 34.043C54.9421 33.6003 54.7174 33.2129 54.418 32.8809C54.1185 32.5488 53.7539 32.2884 53.3242 32.0996C52.901 31.9108 52.4225 31.8164 51.8887 31.8164C51.3548 31.8164 50.873 31.9108 50.4434 32.0996C50.0202 32.2884 49.6621 32.5488 49.3691 32.8809C49.0762 33.2129 48.8516 33.6003 48.6953 34.043C48.5456 34.4792 48.4707 34.9577 48.4707 35.4785C48.4707 35.9993 48.5456 36.4811 48.6953 36.9238C48.8516 37.36 49.0762 37.7376 49.3691 38.0566C49.6621 38.3757 50.0202 38.6263 50.4434 38.8086C50.873 38.9909 51.3548 39.082 51.8887 39.082C52.4225 39.082 52.901 38.9909 53.3242 38.8086C53.7539 38.6263 54.1185 38.3757 54.418 38.0566C54.7174 37.7376 54.9421 37.36 55.0918 36.9238C55.248 36.4811 55.3262 35.9993 55.3262 35.4785ZM78.2461 40H76.3418L72.6211 35.918L70.9805 37.4219V40H69.6426V30.8984H70.9805V35.8008L76.166 30.8984H78.0801L73.5195 35.0781L78.2461 40ZM89.4668 30.8984L84.5449 42.3047C84.291 42.9427 83.9329 43.3594 83.4707 43.5547C83.0085 43.7565 82.4974 43.8574 81.9375 43.8574C81.3125 43.8574 80.6875 43.7435 80.0625 43.5156L80.3262 42.3633C80.6322 42.4935 80.9316 42.5846 81.2246 42.6367C81.5176 42.6953 81.7552 42.7246 81.9375 42.7246C82.3802 42.7246 82.6829 42.6172 82.8457 42.4023C83.015 42.1875 83.1615 41.9336 83.2852 41.6406L83.8418 40.2637L79.7793 30.8984H81.3613L84.6426 38.8574L87.8652 30.8984H89.4668ZM100.102 35.459C100.102 36.1686 99.9909 36.8132 99.7695 37.3926C99.5482 37.972 99.2357 38.4733 98.832 38.8965C98.4349 39.3132 97.9531 39.6387 97.3867 39.873C96.8203 40.1074 96.1855 40.2246 95.4824 40.2246C95.0007 40.2246 94.5319 40.1367 94.0762 39.9609C93.627 39.7852 93.207 39.5247 92.8164 39.1797V43.6426H91.4785V30.8984H92.8164V31.7383C93.6432 31.0352 94.5319 30.6836 95.4824 30.6836C96.1855 30.6836 96.8203 30.8008 97.3867 31.0352C97.9531 31.263 98.4349 31.5918 98.832 32.0215C99.2357 32.4447 99.5482 32.9525 99.7695 33.5449C99.9909 34.1309 100.102 34.7689 100.102 35.459ZM98.7637 35.459C98.7637 34.9512 98.6921 34.4759 98.5488 34.0332C98.4121 33.584 98.2038 33.1966 97.9238 32.8711C97.6439 32.5456 97.2988 32.2884 96.8887 32.0996C96.485 31.9108 96.0163 31.8164 95.4824 31.8164C94.9746 31.8164 94.4993 31.9108 94.0566 32.0996C93.6204 32.2884 93.207 32.5944 92.8164 33.0176V37.9004C93.207 38.3236 93.6204 38.6263 94.0566 38.8086C94.4993 38.9909 94.9746 39.082 95.4824 39.082C96.0163 39.082 96.485 38.9876 96.8887 38.7988C97.2988 38.61 97.6439 38.3529 97.9238 38.0273C98.2038 37.7018 98.4121 37.321 98.5488 36.8848C98.6921 36.4421 98.7637 35.9668 98.7637 35.459ZM110.678 38.2812C110.294 38.8802 109.766 39.3555 109.096 39.707C108.432 40.0521 107.641 40.2246 106.723 40.2246C106.013 40.2246 105.362 40.1074 104.77 39.873C104.177 39.6387 103.669 39.3132 103.246 38.8965C102.829 38.4733 102.504 37.972 102.27 37.3926C102.035 36.8132 101.918 36.1686 101.918 35.459C101.918 34.7689 102.025 34.1309 102.24 33.5449C102.455 32.9525 102.761 32.4479 103.158 32.0312C103.555 31.6081 104.04 31.2793 104.613 31.0449C105.193 30.804 105.834 30.6836 106.537 30.6836C106.817 30.6836 107.104 30.7161 107.396 30.7812C107.689 30.8464 107.966 30.9473 108.227 31.084C108.487 31.2142 108.721 31.3737 108.93 31.5625C109.138 31.7448 109.294 31.9629 109.398 32.2168V30.8984H110.6V34.541H109.398C109.398 34.1374 109.324 33.7695 109.174 33.4375C109.031 33.1055 108.832 32.819 108.578 32.5781C108.324 32.3372 108.021 32.1517 107.67 32.0215C107.318 31.8848 106.941 31.8164 106.537 31.8164C105.99 31.8164 105.512 31.9108 105.102 32.0996C104.698 32.2884 104.359 32.5456 104.086 32.8711C103.812 33.1966 103.604 33.5807 103.461 34.0234C103.324 34.4596 103.256 34.9382 103.256 35.459C103.256 35.9798 103.334 36.4616 103.49 36.9043C103.653 37.3405 103.884 37.7181 104.184 38.0371C104.49 38.3561 104.854 38.61 105.277 38.7988C105.707 38.9876 106.189 39.082 106.723 39.082C107.4 39.082 108.002 38.9518 108.529 38.6914C109.057 38.431 109.46 38.0794 109.74 37.6367L110.678 38.2812ZM112.816 37.5391C112.816 36.9661 112.96 36.4876 113.246 36.1035C113.533 35.7129 113.907 35.4069 114.369 35.1855C114.838 34.9577 115.372 34.7949 115.971 34.6973C116.576 34.5931 117.191 34.541 117.816 34.541C118.057 34.541 118.272 34.5443 118.461 34.5508C118.656 34.5573 118.839 34.5671 119.008 34.5801C119.184 34.5931 119.359 34.6094 119.535 34.6289C119.711 34.6484 119.903 34.6712 120.111 34.6973V34.043C120.111 33.6003 120.014 33.2357 119.818 32.9492C119.63 32.6628 119.395 32.4382 119.115 32.2754C118.835 32.1061 118.542 31.9889 118.236 31.9238C117.93 31.8522 117.67 31.8164 117.455 31.8164C116.778 31.8164 116.153 31.9076 115.58 32.0898C115.007 32.2721 114.473 32.5163 113.979 32.8223L113.373 31.8164C113.92 31.4844 114.532 31.2142 115.209 31.0059C115.893 30.791 116.641 30.6836 117.455 30.6836C117.95 30.6836 118.435 30.7487 118.91 30.8789C119.392 31.0026 119.822 31.1979 120.199 31.4648C120.583 31.7253 120.889 32.0703 121.117 32.5C121.345 32.9297 121.459 33.444 121.459 34.043V40H120.111V38.4766C119.877 38.7695 119.61 39.0267 119.311 39.248C119.018 39.4694 118.708 39.6517 118.383 39.7949C118.057 39.9316 117.732 40.0358 117.406 40.1074C117.081 40.1855 116.771 40.2246 116.479 40.2246C115.274 40.2246 114.363 39.9935 113.744 39.5312C113.126 39.069 112.816 38.4049 112.816 37.5391ZM116.479 39.082C117.038 39.082 117.54 39.0007 117.982 38.8379C118.432 38.6686 118.812 38.4603 119.125 38.2129C119.438 37.9655 119.678 37.7018 119.848 37.4219C120.023 37.1419 120.111 36.888 120.111 36.6602V35.8008C119.675 35.7357 119.255 35.6999 118.852 35.6934C118.454 35.6868 118.109 35.6836 117.816 35.6836C117.335 35.6836 116.869 35.7161 116.42 35.7812C115.977 35.8464 115.59 35.9538 115.258 36.1035C114.926 36.2467 114.659 36.4355 114.457 36.6699C114.255 36.9043 114.154 37.194 114.154 37.5391C114.154 37.9232 114.34 38.278 114.711 38.6035C115.089 38.9225 115.678 39.082 116.479 39.082ZM133.07 40H129.311V38.8184H130.111L128.314 36.1816L126.537 38.8184H127.27V40H123.559V38.8184H124.975L127.475 35.3809L125.072 32.0996H123.754V30.8984H127.494V32.0996H126.654L128.314 34.5801L129.994 32.0996H129.076V30.8984H132.855V32.0996H131.576L129.174 35.3809L131.674 38.8184H133.07V40Z" fill="black"/>
<circle cx="17.5" cy="17.5" r="7.5" fill="#3C604F"/>
<rect x="0.25" y="0.25" width="181.5" height="67.5" stroke="black" stroke-width="0.5"/>
</svg>
