<svg width="205" height="83" viewBox="0 0 205 83" fill="none" xmlns="http://www.w3.org/2000/svg">
<rect x="11.917" y="0.03125" width="193" height="68" transform="rotate(4.32 11.917 0.03125)" fill="#3C604F"/>
<rect x="0.5" y="7.5" width="192" height="67" fill="#E6E5E3"/>
<path d="M56.4512 44.4023C56.4512 45.2812 56.1257 45.9355 55.4746 46.3652C54.8301 46.7884 53.9023 47 52.6914 47H47.8477V37.8984H52.3887C52.8314 37.8984 53.2676 37.9342 53.6973 38.0059C54.1335 38.071 54.5208 38.1914 54.8594 38.3672C55.1979 38.5365 55.4746 38.7741 55.6895 39.0801C55.9043 39.3861 56.0117 39.7865 56.0117 40.2812C56.0117 40.75 55.8978 41.1439 55.6699 41.4629C55.4421 41.7819 54.9961 42.026 54.332 42.1953C55.1458 42.3841 55.7025 42.6641 56.002 43.0352C56.3014 43.3997 56.4512 43.8555 56.4512 44.4023ZM54.6738 40.3594C54.6738 40.0794 54.599 39.8548 54.4492 39.6855C54.2995 39.5098 54.1139 39.3763 53.8926 39.2852C53.6777 39.1875 53.4368 39.1224 53.1699 39.0898C52.903 39.0573 52.6426 39.041 52.3887 39.041H49.1855V41.6582H52.3887C52.6556 41.6582 52.9258 41.6419 53.1992 41.6094C53.4727 41.5768 53.7201 41.5117 53.9414 41.4141C54.1628 41.3099 54.3385 41.1764 54.4688 41.0137C54.6055 40.8444 54.6738 40.6263 54.6738 40.3594ZM55.1133 44.3438C55.1133 43.8099 54.8952 43.4193 54.459 43.1719C54.0228 42.9245 53.4271 42.8008 52.6719 42.8008H49.1855V45.8574H52.6719C53.4271 45.8574 54.0228 45.7305 54.459 45.4766C54.8952 45.2227 55.1133 44.8451 55.1133 44.3438ZM77.8281 47H76.4805V39.7832L74.2441 44.5H73.2871L71.0215 39.7832V47H69.6836V37.8984H71.4219L73.7656 42.6445L76.0898 37.8984H77.8281V47ZM80.1035 44.5391C80.1035 43.9661 80.2467 43.4876 80.5332 43.1035C80.8197 42.7129 81.194 42.4069 81.6562 42.1855C82.125 41.9577 82.6589 41.7949 83.2578 41.6973C83.8633 41.5931 84.4785 41.541 85.1035 41.541C85.3444 41.541 85.5592 41.5443 85.748 41.5508C85.9434 41.5573 86.1257 41.5671 86.2949 41.5801C86.4707 41.5931 86.6465 41.6094 86.8223 41.6289C86.998 41.6484 87.1901 41.6712 87.3984 41.6973V41.043C87.3984 40.6003 87.3008 40.2357 87.1055 39.9492C86.9167 39.6628 86.6823 39.4382 86.4023 39.2754C86.1224 39.1061 85.8294 38.9889 85.5234 38.9238C85.2174 38.8522 84.957 38.8164 84.7422 38.8164C84.0651 38.8164 83.4401 38.9076 82.8672 39.0898C82.2943 39.2721 81.7604 39.5163 81.2656 39.8223L80.6602 38.8164C81.207 38.4844 81.819 38.2142 82.4961 38.0059C83.1797 37.791 83.9284 37.6836 84.7422 37.6836C85.237 37.6836 85.722 37.7487 86.1973 37.8789C86.679 38.0026 87.1087 38.1979 87.4863 38.4648C87.8704 38.7253 88.1764 39.0703 88.4043 39.5C88.6322 39.9297 88.7461 40.444 88.7461 41.043V47H87.3984V45.4766C87.1641 45.7695 86.8971 46.0267 86.5977 46.248C86.3047 46.4694 85.9954 46.6517 85.6699 46.7949C85.3444 46.9316 85.0189 47.0358 84.6934 47.1074C84.3678 47.1855 84.0586 47.2246 83.7656 47.2246C82.5612 47.2246 81.6497 46.9935 81.0312 46.5312C80.4128 46.069 80.1035 45.4049 80.1035 44.5391ZM83.7656 46.082C84.3255 46.082 84.8268 46.0007 85.2695 45.8379C85.7188 45.6686 86.0996 45.4603 86.4121 45.2129C86.7246 44.9655 86.9655 44.7018 87.1348 44.4219C87.3105 44.1419 87.3984 43.888 87.3984 43.6602V42.8008C86.9622 42.7357 86.5423 42.6999 86.1387 42.6934C85.7415 42.6868 85.3965 42.6836 85.1035 42.6836C84.6217 42.6836 84.1562 42.7161 83.707 42.7812C83.2643 42.8464 82.877 42.9538 82.5449 43.1035C82.2129 43.2467 81.946 43.4355 81.7441 43.6699C81.5423 43.9043 81.4414 44.194 81.4414 44.5391C81.4414 44.9232 81.627 45.278 81.998 45.6035C82.3757 45.9225 82.9648 46.082 83.7656 46.082ZM91.5195 37.8984H100.143V39.041H92.8574V47H91.5195V37.8984ZM101.939 44.5391C101.939 43.9661 102.083 43.4876 102.369 43.1035C102.656 42.7129 103.03 42.4069 103.492 42.1855C103.961 41.9577 104.495 41.7949 105.094 41.6973C105.699 41.5931 106.314 41.541 106.939 41.541C107.18 41.541 107.395 41.5443 107.584 41.5508C107.779 41.5573 107.962 41.5671 108.131 41.5801C108.307 41.5931 108.482 41.6094 108.658 41.6289C108.834 41.6484 109.026 41.6712 109.234 41.6973V41.043C109.234 40.6003 109.137 40.2357 108.941 39.9492C108.753 39.6628 108.518 39.4382 108.238 39.2754C107.958 39.1061 107.665 38.9889 107.359 38.9238C107.053 38.8522 106.793 38.8164 106.578 38.8164C105.901 38.8164 105.276 38.9076 104.703 39.0898C104.13 39.2721 103.596 39.5163 103.102 39.8223L102.496 38.8164C103.043 38.4844 103.655 38.2142 104.332 38.0059C105.016 37.791 105.764 37.6836 106.578 37.6836C107.073 37.6836 107.558 37.7487 108.033 37.8789C108.515 38.0026 108.945 38.1979 109.322 38.4648C109.706 38.7253 110.012 39.0703 110.24 39.5C110.468 39.9297 110.582 40.444 110.582 41.043V47H109.234V45.4766C109 45.7695 108.733 46.0267 108.434 46.248C108.141 46.4694 107.831 46.6517 107.506 46.7949C107.18 46.9316 106.855 47.0358 106.529 47.1074C106.204 47.1855 105.895 47.2246 105.602 47.2246C104.397 47.2246 103.486 46.9935 102.867 46.5312C102.249 46.069 101.939 45.4049 101.939 44.5391ZM105.602 46.082C106.161 46.082 106.663 46.0007 107.105 45.8379C107.555 45.6686 107.936 45.4603 108.248 45.2129C108.561 44.9655 108.801 44.7018 108.971 44.4219C109.146 44.1419 109.234 43.888 109.234 43.6602V42.8008C108.798 42.7357 108.378 42.6999 107.975 42.6934C107.577 42.6868 107.232 42.6836 106.939 42.6836C106.458 42.6836 105.992 42.7161 105.543 42.7812C105.1 42.8464 104.713 42.9538 104.381 43.1035C104.049 43.2467 103.782 43.4355 103.58 43.6699C103.378 43.9043 103.277 44.194 103.277 44.5391C103.277 44.9232 103.463 45.278 103.834 45.6035C104.212 45.9225 104.801 46.082 105.602 46.082ZM121.5 40.3984C121.5 40.8411 121.344 41.2578 121.031 41.6484C120.725 42.0326 120.253 42.2767 119.615 42.3809C120.214 42.498 120.696 42.752 121.061 43.1426C121.432 43.5267 121.617 43.9531 121.617 44.4219C121.617 44.8581 121.5 45.252 121.266 45.6035C121.031 45.9486 120.709 46.2415 120.299 46.4824C119.895 46.7233 119.417 46.9056 118.863 47.0293C118.31 47.1595 117.708 47.2246 117.057 47.2246C116.015 47.2246 115.156 47.0651 114.479 46.7461C113.808 46.4206 113.268 45.9323 112.857 45.2812L113.795 44.6367C114.101 45.1055 114.521 45.4635 115.055 45.7109C115.589 45.9583 116.256 46.082 117.057 46.082C118.014 46.082 118.788 45.9355 119.381 45.6426C119.98 45.3496 120.279 44.9427 120.279 44.4219C120.279 44.2461 120.221 44.0703 120.104 43.8945C119.993 43.7122 119.827 43.5527 119.605 43.416C119.384 43.2728 119.111 43.1589 118.785 43.0742C118.46 42.9831 118.076 42.9375 117.633 42.9375H116.109V41.8047H117.633C118.486 41.8047 119.117 41.6549 119.527 41.3555C119.944 41.0495 120.152 40.7305 120.152 40.3984C120.152 39.9167 119.885 39.5326 119.352 39.2461C118.824 38.9596 118.098 38.8164 117.174 38.8164C116.406 38.8164 115.771 38.9531 115.27 39.2266C114.768 39.5 114.384 39.8646 114.117 40.3203L113.121 39.6367C113.518 38.9857 114.042 38.4974 114.693 38.1719C115.351 37.8464 116.178 37.6836 117.174 37.6836C117.805 37.6836 118.382 37.7487 118.902 37.8789C119.43 38.0026 119.885 38.1816 120.27 38.416C120.66 38.6439 120.963 38.9303 121.178 39.2754C121.393 39.6139 121.5 39.9883 121.5 40.3984ZM124.273 37.8984H125.611V45.2422L130.533 37.8984H132.418V47H131.07V39.3242L125.934 47H124.273V37.8984ZM143.336 47H141.988V42.918H136.529V47H135.191V37.8984H136.529V41.7754H141.988V37.8984H143.336V47Z" fill="black"/>
<circle cx="17.5" cy="24.5" r="7.5" fill="#3C604F"/>
<rect x="0.5" y="7.5" width="192" height="67" stroke="black"/>
</svg>
