<svg width="204" height="82" viewBox="0 0 204 82" fill="none" xmlns="http://www.w3.org/2000/svg">
<rect x="10.5081" y="7.25819" width="192.5" height="67.5" transform="rotate(1.91 10.5081 7.25819)" fill="#3C604F" stroke="black" stroke-width="0.5"/>
<rect x="0.25" y="0.25" width="192.5" height="67.5" fill="#E6E5E3"/>
<path d="M55.9922 33.3984C55.9922 33.8411 55.8359 34.2578 55.5234 34.6484C55.2174 35.0326 54.7454 35.2767 54.1074 35.3809C54.7064 35.498 55.1882 35.752 55.5527 36.1426C55.9238 36.5267 56.1094 36.9531 56.1094 37.4219C56.1094 37.8581 55.9922 38.252 55.7578 38.6035C55.5234 38.9486 55.2012 39.2415 54.791 39.4824C54.3874 39.7233 53.9089 39.9056 53.3555 40.0293C52.8021 40.1595 52.1999 40.2246 51.5488 40.2246C50.5072 40.2246 49.6478 40.0651 48.9707 39.7461C48.3001 39.4206 47.7598 38.9323 47.3496 38.2812L48.2871 37.6367C48.5931 38.1055 49.013 38.4635 49.5469 38.7109C50.0807 38.9583 50.748 39.082 51.5488 39.082C52.5059 39.082 53.2806 38.9355 53.873 38.6426C54.472 38.3496 54.7715 37.9427 54.7715 37.4219C54.7715 37.2461 54.7129 37.0703 54.5957 36.8945C54.485 36.7122 54.319 36.5527 54.0977 36.416C53.8763 36.2728 53.6029 36.1589 53.2773 36.0742C52.9518 35.9831 52.5677 35.9375 52.125 35.9375H50.6016V34.8047H52.125C52.9779 34.8047 53.6094 34.6549 54.0195 34.3555C54.4362 34.0495 54.6445 33.7305 54.6445 33.3984C54.6445 32.9167 54.3776 32.5326 53.8438 32.2461C53.3164 31.9596 52.5905 31.8164 51.666 31.8164C50.8978 31.8164 50.263 31.9531 49.7617 32.2266C49.2604 32.5 48.8763 32.8646 48.6094 33.3203L47.6133 32.6367C48.0104 31.9857 48.5345 31.4974 49.1855 31.1719C49.8431 30.8464 50.6699 30.6836 51.666 30.6836C52.2975 30.6836 52.8737 30.7487 53.3945 30.8789C53.9219 31.0026 54.3776 31.1816 54.7617 31.416C55.1523 31.6439 55.4551 31.9303 55.6699 32.2754C55.8848 32.6139 55.9922 32.9883 55.9922 33.3984ZM58.2676 37.5391C58.2676 36.9661 58.4108 36.4876 58.6973 36.1035C58.9837 35.7129 59.3581 35.4069 59.8203 35.1855C60.2891 34.9577 60.8229 34.7949 61.4219 34.6973C62.0273 34.5931 62.6426 34.541 63.2676 34.541C63.5085 34.541 63.7233 34.5443 63.9121 34.5508C64.1074 34.5573 64.2897 34.5671 64.459 34.5801C64.6348 34.5931 64.8105 34.6094 64.9863 34.6289C65.1621 34.6484 65.3542 34.6712 65.5625 34.6973V34.043C65.5625 33.6003 65.4648 33.2357 65.2695 32.9492C65.0807 32.6628 64.8464 32.4382 64.5664 32.2754C64.2865 32.1061 63.9935 31.9889 63.6875 31.9238C63.3815 31.8522 63.1211 31.8164 62.9062 31.8164C62.2292 31.8164 61.6042 31.9076 61.0312 32.0898C60.4583 32.2721 59.9245 32.5163 59.4297 32.8223L58.8242 31.8164C59.3711 31.4844 59.9831 31.2142 60.6602 31.0059C61.3438 30.791 62.0924 30.6836 62.9062 30.6836C63.401 30.6836 63.8861 30.7487 64.3613 30.8789C64.8431 31.0026 65.2728 31.1979 65.6504 31.4648C66.0345 31.7253 66.3405 32.0703 66.5684 32.5C66.7962 32.9297 66.9102 33.444 66.9102 34.043V40H65.5625V38.4766C65.3281 38.7695 65.0612 39.0267 64.7617 39.248C64.4688 39.4694 64.1595 39.6517 63.834 39.7949C63.5085 39.9316 63.1829 40.0358 62.8574 40.1074C62.5319 40.1855 62.2227 40.2246 61.9297 40.2246C60.7253 40.2246 59.8138 39.9935 59.1953 39.5312C58.5768 39.069 58.2676 38.4049 58.2676 37.5391ZM61.9297 39.082C62.4896 39.082 62.9909 39.0007 63.4336 38.8379C63.8828 38.6686 64.2637 38.4603 64.5762 38.2129C64.8887 37.9655 65.1296 37.7018 65.2988 37.4219C65.4746 37.1419 65.5625 36.888 65.5625 36.6602V35.8008C65.1263 35.7357 64.7064 35.6999 64.3027 35.6934C63.9056 35.6868 63.5605 35.6836 63.2676 35.6836C62.7858 35.6836 62.3203 35.7161 61.8711 35.7812C61.4284 35.8464 61.041 35.9538 60.709 36.1035C60.377 36.2467 60.11 36.4355 59.9082 36.6699C59.7064 36.9043 59.6055 37.194 59.6055 37.5391C59.6055 37.9232 59.791 38.278 60.1621 38.6035C60.5397 38.9225 61.1289 39.082 61.9297 39.082ZM78.2871 37.4023C78.2871 38.2812 77.9616 38.9355 77.3105 39.3652C76.666 39.7884 75.7383 40 74.5273 40H69.6836V30.8984H74.2246C74.6673 30.8984 75.1035 30.9342 75.5332 31.0059C75.9694 31.071 76.3568 31.1914 76.6953 31.3672C77.0339 31.5365 77.3105 31.7741 77.5254 32.0801C77.7402 32.3861 77.8477 32.7865 77.8477 33.2812C77.8477 33.75 77.7337 34.1439 77.5059 34.4629C77.278 34.7819 76.832 35.026 76.168 35.1953C76.9818 35.3841 77.5384 35.6641 77.8379 36.0352C78.1374 36.3997 78.2871 36.8555 78.2871 37.4023ZM76.5098 33.3594C76.5098 33.0794 76.4349 32.8548 76.2852 32.6855C76.1354 32.5098 75.9499 32.3763 75.7285 32.2852C75.5137 32.1875 75.2728 32.1224 75.0059 32.0898C74.7389 32.0573 74.4785 32.041 74.2246 32.041H71.0215V34.6582H74.2246C74.4915 34.6582 74.7617 34.6419 75.0352 34.6094C75.3086 34.5768 75.556 34.5117 75.7773 34.4141C75.9987 34.3099 76.1745 34.1764 76.3047 34.0137C76.4414 33.8444 76.5098 33.6263 76.5098 33.3594ZM76.9492 37.3438C76.9492 36.8099 76.7311 36.4193 76.2949 36.1719C75.8587 35.9245 75.263 35.8008 74.5078 35.8008H71.0215V38.8574H74.5078C75.263 38.8574 75.8587 38.7305 76.2949 38.4766C76.7311 38.2227 76.9492 37.8451 76.9492 37.3438ZM81.4609 35.918C81.5586 36.8815 81.9102 37.6497 82.5156 38.2227C83.1211 38.7956 83.9089 39.082 84.8789 39.082C85.5625 39.082 86.1712 38.9421 86.7051 38.6621C87.2389 38.3822 87.6393 38.0339 87.9062 37.6172L88.8438 38.2617C88.388 38.8997 87.8444 39.388 87.2129 39.7266C86.5814 40.0586 85.8034 40.2246 84.8789 40.2246C84.1758 40.2246 83.5312 40.1074 82.9453 39.873C82.3594 39.6387 81.8516 39.3132 81.4219 38.8965C80.9987 38.4733 80.6699 37.972 80.4355 37.3926C80.2012 36.8132 80.084 36.1686 80.084 35.459C80.084 34.7689 80.1882 34.1341 80.3965 33.5547C80.6113 32.9688 80.9173 32.4642 81.3145 32.041C81.7181 31.6113 82.2064 31.2793 82.7793 31.0449C83.3522 30.804 83.9935 30.6836 84.7031 30.6836C85.4779 30.6836 86.1549 30.8138 86.7344 31.0742C87.3138 31.3346 87.7956 31.696 88.1797 32.1582C88.5703 32.6139 88.8568 33.1608 89.0391 33.7988C89.2279 34.4368 89.3223 35.1432 89.3223 35.918H81.4609ZM87.9062 34.7754C87.7565 33.7793 87.3952 33.0371 86.8223 32.5488C86.2493 32.0605 85.543 31.8164 84.7031 31.8164C84.2734 31.8164 83.8763 31.888 83.5117 32.0312C83.1471 32.168 82.8249 32.3665 82.5449 32.627C82.265 32.8874 82.0306 33.2031 81.8418 33.5742C81.653 33.9388 81.5326 34.3392 81.4805 34.7754H87.9062ZM100.143 35.459C100.143 36.1686 100.032 36.8132 99.8105 37.3926C99.5892 37.972 99.2767 38.4733 98.873 38.8965C98.4759 39.3132 97.9941 39.6387 97.4277 39.873C96.8613 40.1074 96.2266 40.2246 95.5234 40.2246C95.0417 40.2246 94.5729 40.1367 94.1172 39.9609C93.668 39.7852 93.248 39.5247 92.8574 39.1797V43.6426H91.5195V30.8984H92.8574V31.7383C93.6842 31.0352 94.5729 30.6836 95.5234 30.6836C96.2266 30.6836 96.8613 30.8008 97.4277 31.0352C97.9941 31.263 98.4759 31.5918 98.873 32.0215C99.2767 32.4447 99.5892 32.9525 99.8105 33.5449C100.032 34.1309 100.143 34.7689 100.143 35.459ZM98.8047 35.459C98.8047 34.9512 98.7331 34.4759 98.5898 34.0332C98.4531 33.584 98.2448 33.1966 97.9648 32.8711C97.6849 32.5456 97.3398 32.2884 96.9297 32.0996C96.526 31.9108 96.0573 31.8164 95.5234 31.8164C95.0156 31.8164 94.5404 31.9108 94.0977 32.0996C93.6615 32.2884 93.248 32.5944 92.8574 33.0176V37.9004C93.248 38.3236 93.6615 38.6263 94.0977 38.8086C94.5404 38.9909 95.0156 39.082 95.5234 39.082C96.0573 39.082 96.526 38.9876 96.9297 38.7988C97.3398 38.61 97.6849 38.3529 97.9648 38.0273C98.2448 37.7018 98.4531 37.321 98.5898 36.8848C98.7331 36.4421 98.8047 35.9668 98.8047 35.459ZM105.836 30.8984H107.184V38.8574H109.723V30.8984H111.061V40H101.959V30.8984H103.297V38.8574H105.836V30.8984ZM113.355 30.8984H114.693V38.2422L119.615 30.8984H121.5V40H120.152V32.3242L115.016 40H113.355V30.8984ZM132.896 35.1953H131.754V32.041H129.02V38.8574H131.07V40H125.611V38.8574H127.672V32.041H124.938V35.1953H123.795V30.8984H132.896V35.1953ZM136.529 34.541H140.016C141.227 34.541 142.158 34.7591 142.809 35.1953C143.466 35.625 143.795 36.3118 143.795 37.2559C143.795 38.2064 143.469 38.903 142.818 39.3457C142.174 39.7819 141.246 40 140.035 40H135.191V30.8984H136.529V34.541ZM142.457 37.2559C142.457 36.7546 142.239 36.3672 141.803 36.0938C141.367 35.8203 140.771 35.6836 140.016 35.6836H136.529V38.8574H140.016C140.771 38.8574 141.367 38.7174 141.803 38.4375C142.239 38.1576 142.457 37.7637 142.457 37.2559Z" fill="black"/>
<circle cx="17.5" cy="17.5" r="7.5" fill="#3C604F"/>
<rect x="0.25" y="0.25" width="192.5" height="67.5" stroke="black" stroke-width="0.5"/>
</svg>
