<svg width="281" height="89" viewBox="0 0 281 89" fill="none" xmlns="http://www.w3.org/2000/svg">
<rect x="12.3527" y="0.268121" width="268.5" height="67.5" transform="rotate(4.32 12.3527 0.268121)" fill="#3C604F" stroke="black" stroke-width="0.5"/>
<rect x="0.25" y="7.25" width="268.5" height="67.5" fill="#E6E5E3"/>
<path d="M56.4922 42.4785C56.4922 43.1882 56.3783 43.8327 56.1504 44.4121C55.929 44.9915 55.6068 45.4896 55.1836 45.9062C54.7669 46.3164 54.2656 46.6387 53.6797 46.873C53.0938 47.1074 52.4395 47.2246 51.7168 47.2246C51.0072 47.2246 50.3594 47.1074 49.7734 46.873C49.1875 46.6387 48.6829 46.3164 48.2598 45.9062C47.8431 45.4896 47.5208 44.9915 47.293 44.4121C47.0716 43.8327 46.9609 43.1882 46.9609 42.4785C46.9609 41.7884 47.0716 41.1471 47.293 40.5547C47.5208 39.9557 47.8431 39.4479 48.2598 39.0312C48.6829 38.6081 49.1875 38.2793 49.7734 38.0449C50.3594 37.804 51.0072 37.6836 51.7168 37.6836C52.4395 37.6836 53.0938 37.804 53.6797 38.0449C54.2656 38.2793 54.7669 38.6081 55.1836 39.0312C55.6068 39.4479 55.929 39.9557 56.1504 40.5547C56.3783 41.1471 56.4922 41.7884 56.4922 42.4785ZM55.1543 42.4785C55.1543 41.9577 55.0762 41.4792 54.9199 41.043C54.7702 40.6003 54.5456 40.2129 54.2461 39.8809C53.9466 39.5488 53.582 39.2884 53.1523 39.0996C52.7292 38.9108 52.2507 38.8164 51.7168 38.8164C51.1829 38.8164 50.7012 38.9108 50.2715 39.0996C49.8483 39.2884 49.4902 39.5488 49.1973 39.8809C48.9043 40.2129 48.6797 40.6003 48.5234 41.043C48.3737 41.4792 48.2988 41.9577 48.2988 42.4785C48.2988 42.9993 48.3737 43.4811 48.5234 43.9238C48.6797 44.36 48.9043 44.7376 49.1973 45.0566C49.4902 45.3757 49.8483 45.6263 50.2715 45.8086C50.7012 45.9909 51.1829 46.082 51.7168 46.082C52.2507 46.082 52.7292 45.9909 53.1523 45.8086C53.582 45.6263 53.9466 45.3757 54.2461 45.0566C54.5456 44.7376 54.7702 44.36 54.9199 43.9238C55.0762 43.4811 55.1543 42.9993 55.1543 42.4785ZM67.1758 42.1953H66.0332V39.041H63.2988V45.8574H65.3496V47H59.8906V45.8574H61.9512V39.041H59.2168V42.1953H58.0742V37.8984H67.1758V42.1953ZM77.6152 47H76.2676V39.041H70.8086V47H69.4707V37.8984H77.6152V47ZM89.0117 42.459C89.0117 43.1686 88.901 43.8132 88.6797 44.3926C88.4583 44.972 88.1458 45.4733 87.7422 45.8965C87.3451 46.3132 86.8633 46.6387 86.2969 46.873C85.7305 47.1074 85.0957 47.2246 84.3926 47.2246C83.9108 47.2246 83.4421 47.1367 82.9863 46.9609C82.5371 46.7852 82.1172 46.5247 81.7266 46.1797V50.6426H80.3887V37.8984H81.7266V38.7383C82.5534 38.0352 83.4421 37.6836 84.3926 37.6836C85.0957 37.6836 85.7305 37.8008 86.2969 38.0352C86.8633 38.263 87.3451 38.5918 87.7422 39.0215C88.1458 39.4447 88.4583 39.9525 88.6797 40.5449C88.901 41.1309 89.0117 41.7689 89.0117 42.459ZM87.6738 42.459C87.6738 41.9512 87.6022 41.4759 87.459 41.0332C87.3223 40.584 87.1139 40.1966 86.834 39.8711C86.554 39.5456 86.209 39.2884 85.7988 39.0996C85.3952 38.9108 84.9264 38.8164 84.3926 38.8164C83.8848 38.8164 83.4095 38.9108 82.9668 39.0996C82.5306 39.2884 82.1172 39.5944 81.7266 40.0176V44.9004C82.1172 45.3236 82.5306 45.6263 82.9668 45.8086C83.4095 45.9909 83.8848 46.082 84.3926 46.082C84.9264 46.082 85.3952 45.9876 85.7988 45.7988C86.209 45.61 86.554 45.3529 86.834 45.0273C87.1139 44.7018 87.3223 44.321 87.459 43.8848C87.6022 43.4421 87.6738 42.9668 87.6738 42.459ZM90.8086 44.5391C90.8086 43.9661 90.9518 43.4876 91.2383 43.1035C91.5247 42.7129 91.8991 42.4069 92.3613 42.1855C92.8301 41.9577 93.3639 41.7949 93.9629 41.6973C94.5684 41.5931 95.1836 41.541 95.8086 41.541C96.0495 41.541 96.2643 41.5443 96.4531 41.5508C96.6484 41.5573 96.8307 41.5671 97 41.5801C97.1758 41.5931 97.3516 41.6094 97.5273 41.6289C97.7031 41.6484 97.8952 41.6712 98.1035 41.6973V41.043C98.1035 40.6003 98.0059 40.2357 97.8105 39.9492C97.6217 39.6628 97.3874 39.4382 97.1074 39.2754C96.8275 39.1061 96.5345 38.9889 96.2285 38.9238C95.9225 38.8522 95.6621 38.8164 95.4473 38.8164C94.7702 38.8164 94.1452 38.9076 93.5723 39.0898C92.9993 39.2721 92.4655 39.5163 91.9707 39.8223L91.3652 38.8164C91.9121 38.4844 92.5241 38.2142 93.2012 38.0059C93.8848 37.791 94.6335 37.6836 95.4473 37.6836C95.9421 37.6836 96.4271 37.7487 96.9023 37.8789C97.3841 38.0026 97.8138 38.1979 98.1914 38.4648C98.5755 38.7253 98.8815 39.0703 99.1094 39.5C99.3372 39.9297 99.4512 40.444 99.4512 41.043V47H98.1035V45.4766C97.8691 45.7695 97.6022 46.0267 97.3027 46.248C97.0098 46.4694 96.7005 46.6517 96.375 46.7949C96.0495 46.9316 95.724 47.0358 95.3984 47.1074C95.0729 47.1855 94.7637 47.2246 94.4707 47.2246C93.2663 47.2246 92.3548 46.9935 91.7363 46.5312C91.1178 46.069 90.8086 45.4049 90.8086 44.5391ZM94.4707 46.082C95.0306 46.082 95.5319 46.0007 95.9746 45.8379C96.4238 45.6686 96.8047 45.4603 97.1172 45.2129C97.4297 44.9655 97.6706 44.7018 97.8398 44.4219C98.0156 44.1419 98.1035 43.888 98.1035 43.6602V42.8008C97.6673 42.7357 97.2474 42.6999 96.8438 42.6934C96.4466 42.6868 96.1016 42.6836 95.8086 42.6836C95.3268 42.6836 94.8613 42.7161 94.4121 42.7812C93.9694 42.8464 93.582 42.9538 93.25 43.1035C92.918 43.2467 92.651 43.4355 92.4492 43.6699C92.2474 43.9043 92.1465 44.194 92.1465 44.5391C92.1465 44.9232 92.332 45.278 92.7031 45.6035C93.0807 45.9225 93.6699 46.082 94.4707 46.082ZM110.828 44.4023C110.828 45.2812 110.503 45.9355 109.852 46.3652C109.207 46.7884 108.279 47 107.068 47H102.225V37.8984H106.766C107.208 37.8984 107.645 37.9342 108.074 38.0059C108.51 38.071 108.898 38.1914 109.236 38.3672C109.575 38.5365 109.852 38.7741 110.066 39.0801C110.281 39.3861 110.389 39.7865 110.389 40.2812C110.389 40.75 110.275 41.1439 110.047 41.4629C109.819 41.7819 109.373 42.026 108.709 42.1953C109.523 42.3841 110.079 42.6641 110.379 43.0352C110.678 43.3997 110.828 43.8555 110.828 44.4023ZM109.051 40.3594C109.051 40.0794 108.976 39.8548 108.826 39.6855C108.676 39.5098 108.491 39.3763 108.27 39.2852C108.055 39.1875 107.814 39.1224 107.547 39.0898C107.28 39.0573 107.02 39.041 106.766 39.041H103.562V41.6582H106.766C107.033 41.6582 107.303 41.6419 107.576 41.6094C107.85 41.5768 108.097 41.5117 108.318 41.4141C108.54 41.3099 108.715 41.1764 108.846 41.0137C108.982 40.8444 109.051 40.6263 109.051 40.3594ZM109.49 44.3438C109.49 43.8099 109.272 43.4193 108.836 43.1719C108.4 42.9245 107.804 42.8008 107.049 42.8008H103.562V45.8574H107.049C107.804 45.8574 108.4 45.7305 108.836 45.4766C109.272 45.2227 109.49 44.8451 109.49 44.3438ZM113.143 37.8984H114.48V45.2422L119.402 37.8984H121.287V47H119.939V39.3242L114.803 47H113.143V37.8984ZM132.684 42.1953H131.541V39.041H128.807V45.8574H130.857V47H125.398V45.8574H127.459V39.041H124.725V42.1953H123.582V37.8984H132.684V42.1953ZM136.316 41.541H139.803C141.014 41.541 141.945 41.7591 142.596 42.1953C143.253 42.625 143.582 43.3118 143.582 44.2559C143.582 45.2064 143.257 45.903 142.605 46.3457C141.961 46.7819 141.033 47 139.822 47H134.979V37.8984H136.316V41.541ZM142.244 44.2559C142.244 43.7546 142.026 43.3672 141.59 43.0938C141.154 42.8203 140.558 42.6836 139.803 42.6836H136.316V45.8574H139.803C140.558 45.8574 141.154 45.7174 141.59 45.4375C142.026 45.1576 142.244 44.7637 142.244 44.2559ZM165.438 42.459C165.438 43.1686 165.327 43.8132 165.105 44.3926C164.884 44.972 164.572 45.4733 164.168 45.8965C163.771 46.3132 163.289 46.6387 162.723 46.873C162.156 47.1074 161.521 47.2246 160.818 47.2246C160.337 47.2246 159.868 47.1367 159.412 46.9609C158.963 46.7852 158.543 46.5247 158.152 46.1797V50.6426H156.814V37.8984H158.152V38.7383C158.979 38.0352 159.868 37.6836 160.818 37.6836C161.521 37.6836 162.156 37.8008 162.723 38.0352C163.289 38.263 163.771 38.5918 164.168 39.0215C164.572 39.4447 164.884 39.9525 165.105 40.5449C165.327 41.1309 165.438 41.7689 165.438 42.459ZM164.1 42.459C164.1 41.9512 164.028 41.4759 163.885 41.0332C163.748 40.584 163.54 40.1966 163.26 39.8711C162.98 39.5456 162.635 39.2884 162.225 39.0996C161.821 38.9108 161.352 38.8164 160.818 38.8164C160.311 38.8164 159.835 38.9108 159.393 39.0996C158.956 39.2884 158.543 39.5944 158.152 40.0176V44.9004C158.543 45.3236 158.956 45.6263 159.393 45.8086C159.835 45.9909 160.311 46.082 160.818 46.082C161.352 46.082 161.821 45.9876 162.225 45.7988C162.635 45.61 162.98 45.3529 163.26 45.0273C163.54 44.7018 163.748 44.321 163.885 43.8848C164.028 43.4421 164.1 42.9668 164.1 42.459ZM168.592 42.918C168.689 43.8815 169.041 44.6497 169.646 45.2227C170.252 45.7956 171.04 46.082 172.01 46.082C172.693 46.082 173.302 45.9421 173.836 45.6621C174.37 45.3822 174.77 45.0339 175.037 44.6172L175.975 45.2617C175.519 45.8997 174.975 46.388 174.344 46.7266C173.712 47.0586 172.934 47.2246 172.01 47.2246C171.307 47.2246 170.662 47.1074 170.076 46.873C169.49 46.6387 168.982 46.3132 168.553 45.8965C168.13 45.4733 167.801 44.972 167.566 44.3926C167.332 43.8132 167.215 43.1686 167.215 42.459C167.215 41.7689 167.319 41.1341 167.527 40.5547C167.742 39.9688 168.048 39.4642 168.445 39.041C168.849 38.6113 169.337 38.2793 169.91 38.0449C170.483 37.804 171.124 37.6836 171.834 37.6836C172.609 37.6836 173.286 37.8138 173.865 38.0742C174.445 38.3346 174.926 38.696 175.311 39.1582C175.701 39.6139 175.988 40.1608 176.17 40.7988C176.359 41.4368 176.453 42.1432 176.453 42.918H168.592ZM175.037 41.7754C174.887 40.7793 174.526 40.0371 173.953 39.5488C173.38 39.0605 172.674 38.8164 171.834 38.8164C171.404 38.8164 171.007 38.888 170.643 39.0312C170.278 39.168 169.956 39.3665 169.676 39.627C169.396 39.8874 169.161 40.2031 168.973 40.5742C168.784 40.9388 168.663 41.3392 168.611 41.7754H175.037ZM186.795 40.3984C186.795 40.8411 186.639 41.2578 186.326 41.6484C186.02 42.0326 185.548 42.2767 184.91 42.3809C185.509 42.498 185.991 42.752 186.355 43.1426C186.727 43.5267 186.912 43.9531 186.912 44.4219C186.912 44.8581 186.795 45.252 186.561 45.6035C186.326 45.9486 186.004 46.2415 185.594 46.4824C185.19 46.7233 184.712 46.9056 184.158 47.0293C183.605 47.1595 183.003 47.2246 182.352 47.2246C181.31 47.2246 180.451 47.0651 179.773 46.7461C179.103 46.4206 178.562 45.9323 178.152 45.2812L179.09 44.6367C179.396 45.1055 179.816 45.4635 180.35 45.7109C180.883 45.9583 181.551 46.082 182.352 46.082C183.309 46.082 184.083 45.9355 184.676 45.6426C185.275 45.3496 185.574 44.9427 185.574 44.4219C185.574 44.2461 185.516 44.0703 185.398 43.8945C185.288 43.7122 185.122 43.5527 184.9 43.416C184.679 43.2728 184.406 43.1589 184.08 43.0742C183.755 42.9831 183.37 42.9375 182.928 42.9375H181.404V41.8047H182.928C183.781 41.8047 184.412 41.6549 184.822 41.3555C185.239 41.0495 185.447 40.7305 185.447 40.3984C185.447 39.9167 185.18 39.5326 184.646 39.2461C184.119 38.9596 183.393 38.8164 182.469 38.8164C181.701 38.8164 181.066 38.9531 180.564 39.2266C180.063 39.5 179.679 39.8646 179.412 40.3203L178.416 39.6367C178.813 38.9857 179.337 38.4974 179.988 38.1719C180.646 37.8464 181.473 37.6836 182.469 37.6836C183.1 37.6836 183.676 37.7487 184.197 37.8789C184.725 38.0026 185.18 38.1816 185.564 38.416C185.955 38.6439 186.258 38.9303 186.473 39.2754C186.688 39.6139 186.795 39.9883 186.795 40.3984ZM189.568 37.8984H190.906V41.8828H192.752C192.869 39.0833 193.774 37.6836 195.467 37.6836C197.283 37.6836 198.191 39.2754 198.191 42.459C198.191 45.6361 197.283 47.2246 195.467 47.2246C193.748 47.2246 192.843 45.8216 192.752 43.0156H190.906V47H189.568V37.8984ZM195.467 46.1406C196.391 46.1406 196.854 44.9134 196.854 42.459C196.854 40.0176 196.391 38.7969 195.467 38.7969C194.549 38.7969 194.09 40.0176 194.09 42.459C194.09 44.9134 194.549 46.1406 195.467 46.1406ZM208.631 47H207.283V39.7832L205.047 44.5H204.09L201.824 39.7832V47H200.486V37.8984H202.225L204.568 42.6445L206.893 37.8984H208.631V47ZM212.264 42.918C212.361 43.8815 212.713 44.6497 213.318 45.2227C213.924 45.7956 214.712 46.082 215.682 46.082C216.365 46.082 216.974 45.9421 217.508 45.6621C218.042 45.3822 218.442 45.0339 218.709 44.6172L219.646 45.2617C219.191 45.8997 218.647 46.388 218.016 46.7266C217.384 47.0586 216.606 47.2246 215.682 47.2246C214.979 47.2246 214.334 47.1074 213.748 46.873C213.162 46.6387 212.654 46.3132 212.225 45.8965C211.801 45.4733 211.473 44.972 211.238 44.3926C211.004 43.8132 210.887 43.1686 210.887 42.459C210.887 41.7689 210.991 41.1341 211.199 40.5547C211.414 39.9688 211.72 39.4642 212.117 39.041C212.521 38.6113 213.009 38.2793 213.582 38.0449C214.155 37.804 214.796 37.6836 215.506 37.6836C216.281 37.6836 216.958 37.8138 217.537 38.0742C218.117 38.3346 218.598 38.696 218.982 39.1582C219.373 39.6139 219.66 40.1608 219.842 40.7988C220.031 41.4368 220.125 42.1432 220.125 42.918H212.264ZM218.709 41.7754C218.559 40.7793 218.198 40.0371 217.625 39.5488C217.052 39.0605 216.346 38.8164 215.506 38.8164C215.076 38.8164 214.679 38.888 214.314 39.0312C213.95 39.168 213.628 39.3665 213.348 39.627C213.068 39.8874 212.833 40.2031 212.645 40.5742C212.456 40.9388 212.335 41.3392 212.283 41.7754H218.709Z" fill="black"/>
<circle cx="17.5" cy="24.5" r="7.5" fill="#3C604F"/>
<rect x="0.25" y="7.25" width="268.5" height="67.5" stroke="black" stroke-width="0.5"/>
</svg>
