<svg width="237" height="83" viewBox="0 0 237 83" fill="none" xmlns="http://www.w3.org/2000/svg">
<rect x="10.5081" y="7.25819" width="225.5" height="67.5" transform="rotate(1.91 10.5081 7.25819)" fill="#3C604F" stroke="black" stroke-width="0.5"/>
<rect x="0.25" y="0.25" width="225.5" height="67.5" fill="#E6E5E3"/>
<path d="M56.1152 40H54.7676V32.041H49.3086V40H47.9707V30.8984H56.1152V40ZM67.5117 35.459C67.5117 36.1686 67.401 36.8132 67.1797 37.3926C66.9583 37.972 66.6458 38.4733 66.2422 38.8965C65.8451 39.3132 65.3633 39.6387 64.7969 39.873C64.2305 40.1074 63.5957 40.2246 62.8926 40.2246C62.4108 40.2246 61.9421 40.1367 61.4863 39.9609C61.0371 39.7852 60.6172 39.5247 60.2266 39.1797V43.6426H58.8887V30.8984H60.2266V31.7383C61.0534 31.0352 61.9421 30.6836 62.8926 30.6836C63.5957 30.6836 64.2305 30.8008 64.7969 31.0352C65.3633 31.263 65.8451 31.5918 66.2422 32.0215C66.6458 32.4447 66.9583 32.9525 67.1797 33.5449C67.401 34.1309 67.5117 34.7689 67.5117 35.459ZM66.1738 35.459C66.1738 34.9512 66.1022 34.4759 65.959 34.0332C65.8223 33.584 65.6139 33.1966 65.334 32.8711C65.054 32.5456 64.709 32.2884 64.2988 32.0996C63.8952 31.9108 63.4264 31.8164 62.8926 31.8164C62.3848 31.8164 61.9095 31.9108 61.4668 32.0996C61.0306 32.2884 60.6172 32.5944 60.2266 33.0176V37.9004C60.6172 38.3236 61.0306 38.6263 61.4668 38.8086C61.9095 38.9909 62.3848 39.082 62.8926 39.082C63.4264 39.082 63.8952 38.9876 64.2988 38.7988C64.709 38.61 65.054 38.3529 65.334 38.0273C65.6139 37.7018 65.8223 37.321 65.959 36.8848C66.1022 36.4421 66.1738 35.9668 66.1738 35.459ZM70.666 35.918C70.7637 36.8815 71.1152 37.6497 71.7207 38.2227C72.3262 38.7956 73.1139 39.082 74.084 39.082C74.7676 39.082 75.3763 38.9421 75.9102 38.6621C76.444 38.3822 76.8444 38.0339 77.1113 37.6172L78.0488 38.2617C77.5931 38.8997 77.0495 39.388 76.418 39.7266C75.7865 40.0586 75.0085 40.2246 74.084 40.2246C73.3809 40.2246 72.7363 40.1074 72.1504 39.873C71.5645 39.6387 71.0566 39.3132 70.627 38.8965C70.2038 38.4733 69.875 37.972 69.6406 37.3926C69.4062 36.8132 69.2891 36.1686 69.2891 35.459C69.2891 34.7689 69.3932 34.1341 69.6016 33.5547C69.8164 32.9688 70.1224 32.4642 70.5195 32.041C70.9232 31.6113 71.4115 31.2793 71.9844 31.0449C72.5573 30.804 73.1986 30.6836 73.9082 30.6836C74.6829 30.6836 75.36 30.8138 75.9395 31.0742C76.5189 31.3346 77.0007 31.696 77.3848 32.1582C77.7754 32.6139 78.0618 33.1608 78.2441 33.7988C78.4329 34.4368 78.5273 35.1432 78.5273 35.918H70.666ZM77.1113 34.7754C76.9616 33.7793 76.6003 33.0371 76.0273 32.5488C75.4544 32.0605 74.748 31.8164 73.9082 31.8164C73.4785 31.8164 73.0814 31.888 72.7168 32.0312C72.3522 32.168 72.0299 32.3665 71.75 32.627C71.4701 32.8874 71.2357 33.2031 71.0469 33.5742C70.8581 33.9388 70.7376 34.3392 70.6855 34.7754H77.1113ZM80.2461 38.8574C80.5521 38.7923 80.8451 38.6165 81.125 38.3301C81.4049 38.0436 81.6491 37.6465 81.8574 37.1387C82.0658 36.6309 82.2318 36.0156 82.3555 35.293C82.4857 34.5638 82.5508 33.7272 82.5508 32.7832V30.8984H87.5215V38.8574H89.3477V43.1152H88.1465V40H81.4473V43.1152H80.2461V38.8574ZM83.8887 32.7832C83.8887 33.5384 83.8333 34.248 83.7227 34.9121C83.6185 35.5697 83.4785 36.1589 83.3027 36.6797C83.1335 37.2005 82.9382 37.6497 82.7168 38.0273C82.4954 38.3984 82.2773 38.6751 82.0625 38.8574H86.1836V32.041H83.8887V32.7832ZM99.7871 40H98.4395V32.041H92.9805V40H91.6426V30.8984H99.7871V40ZM111.184 35.459C111.184 36.1686 111.073 36.8132 110.852 37.3926C110.63 37.972 110.318 38.4733 109.914 38.8965C109.517 39.3132 109.035 39.6387 108.469 39.873C107.902 40.1074 107.268 40.2246 106.564 40.2246C106.083 40.2246 105.614 40.1367 105.158 39.9609C104.709 39.7852 104.289 39.5247 103.898 39.1797V43.6426H102.561V30.8984H103.898V31.7383C104.725 31.0352 105.614 30.6836 106.564 30.6836C107.268 30.6836 107.902 30.8008 108.469 31.0352C109.035 31.263 109.517 31.5918 109.914 32.0215C110.318 32.4447 110.63 32.9525 110.852 33.5449C111.073 34.1309 111.184 34.7689 111.184 35.459ZM109.846 35.459C109.846 34.9512 109.774 34.4759 109.631 34.0332C109.494 33.584 109.286 33.1966 109.006 32.8711C108.726 32.5456 108.381 32.2884 107.971 32.0996C107.567 31.9108 107.098 31.8164 106.564 31.8164C106.057 31.8164 105.581 31.9108 105.139 32.0996C104.702 32.2884 104.289 32.5944 103.898 33.0176V37.9004C104.289 38.3236 104.702 38.6263 105.139 38.8086C105.581 38.9909 106.057 39.082 106.564 39.082C107.098 39.082 107.567 38.9876 107.971 38.7988C108.381 38.61 108.726 38.3529 109.006 38.0273C109.286 37.7018 109.494 37.321 109.631 36.8848C109.774 36.4421 109.846 35.9668 109.846 35.459ZM122.336 35.4785C122.336 36.1882 122.222 36.8327 121.994 37.4121C121.773 37.9915 121.451 38.4896 121.027 38.9062C120.611 39.3164 120.109 39.6387 119.523 39.873C118.938 40.1074 118.283 40.2246 117.561 40.2246C116.851 40.2246 116.203 40.1074 115.617 39.873C115.031 39.6387 114.527 39.3164 114.104 38.9062C113.687 38.4896 113.365 37.9915 113.137 37.4121C112.915 36.8327 112.805 36.1882 112.805 35.4785C112.805 34.7884 112.915 34.1471 113.137 33.5547C113.365 32.9557 113.687 32.4479 114.104 32.0312C114.527 31.6081 115.031 31.2793 115.617 31.0449C116.203 30.804 116.851 30.6836 117.561 30.6836C118.283 30.6836 118.938 30.804 119.523 31.0449C120.109 31.2793 120.611 31.6081 121.027 32.0312C121.451 32.4479 121.773 32.9557 121.994 33.5547C122.222 34.1471 122.336 34.7884 122.336 35.4785ZM120.998 35.4785C120.998 34.9577 120.92 34.4792 120.764 34.043C120.614 33.6003 120.389 33.2129 120.09 32.8809C119.79 32.5488 119.426 32.2884 118.996 32.0996C118.573 31.9108 118.094 31.8164 117.561 31.8164C117.027 31.8164 116.545 31.9108 116.115 32.0996C115.692 32.2884 115.334 32.5488 115.041 32.8809C114.748 33.2129 114.523 33.6003 114.367 34.043C114.217 34.4792 114.143 34.9577 114.143 35.4785C114.143 35.9993 114.217 36.4811 114.367 36.9238C114.523 37.36 114.748 37.7376 115.041 38.0566C115.334 38.3757 115.692 38.6263 116.115 38.8086C116.545 38.9909 117.027 39.082 117.561 39.082C118.094 39.082 118.573 38.9909 118.996 38.8086C119.426 38.6263 119.79 38.3757 120.09 38.0566C120.389 37.7376 120.614 37.36 120.764 36.9238C120.92 36.4811 120.998 35.9993 120.998 35.4785ZM132.678 38.2812C132.294 38.8802 131.766 39.3555 131.096 39.707C130.432 40.0521 129.641 40.2246 128.723 40.2246C128.013 40.2246 127.362 40.1074 126.77 39.873C126.177 39.6387 125.669 39.3132 125.246 38.8965C124.829 38.4733 124.504 37.972 124.27 37.3926C124.035 36.8132 123.918 36.1686 123.918 35.459C123.918 34.7689 124.025 34.1309 124.24 33.5449C124.455 32.9525 124.761 32.4479 125.158 32.0312C125.555 31.6081 126.04 31.2793 126.613 31.0449C127.193 30.804 127.834 30.6836 128.537 30.6836C128.817 30.6836 129.104 30.7161 129.396 30.7812C129.689 30.8464 129.966 30.9473 130.227 31.084C130.487 31.2142 130.721 31.3737 130.93 31.5625C131.138 31.7448 131.294 31.9629 131.398 32.2168V30.8984H132.6V34.541H131.398C131.398 34.1374 131.324 33.7695 131.174 33.4375C131.031 33.1055 130.832 32.819 130.578 32.5781C130.324 32.3372 130.021 32.1517 129.67 32.0215C129.318 31.8848 128.941 31.8164 128.537 31.8164C127.99 31.8164 127.512 31.9108 127.102 32.0996C126.698 32.2884 126.359 32.5456 126.086 32.8711C125.812 33.1966 125.604 33.5807 125.461 34.0234C125.324 34.4596 125.256 34.9382 125.256 35.459C125.256 35.9798 125.334 36.4616 125.49 36.9043C125.653 37.3405 125.884 37.7181 126.184 38.0371C126.49 38.3561 126.854 38.61 127.277 38.7988C127.707 38.9876 128.189 39.082 128.723 39.082C129.4 39.082 130.002 38.9518 130.529 38.6914C131.057 38.431 131.46 38.0794 131.74 37.6367L132.678 38.2812ZM143.459 40H142.111V32.7832L139.875 37.5H138.918L136.652 32.7832V40H135.314V30.8984H137.053L139.396 35.6445L141.721 30.8984H143.459V40ZM155.09 35.4785C155.09 36.1882 154.976 36.8327 154.748 37.4121C154.527 37.9915 154.204 38.4896 153.781 38.9062C153.365 39.3164 152.863 39.6387 152.277 39.873C151.691 40.1074 151.037 40.2246 150.314 40.2246C149.605 40.2246 148.957 40.1074 148.371 39.873C147.785 39.6387 147.281 39.3164 146.857 38.9062C146.441 38.4896 146.118 37.9915 145.891 37.4121C145.669 36.8327 145.559 36.1882 145.559 35.4785C145.559 34.7884 145.669 34.1471 145.891 33.5547C146.118 32.9557 146.441 32.4479 146.857 32.0312C147.281 31.6081 147.785 31.2793 148.371 31.0449C148.957 30.804 149.605 30.6836 150.314 30.6836C151.037 30.6836 151.691 30.804 152.277 31.0449C152.863 31.2793 153.365 31.6081 153.781 32.0312C154.204 32.4479 154.527 32.9557 154.748 33.5547C154.976 34.1471 155.09 34.7884 155.09 35.4785ZM153.752 35.4785C153.752 34.9577 153.674 34.4792 153.518 34.043C153.368 33.6003 153.143 33.2129 152.844 32.8809C152.544 32.5488 152.18 32.2884 151.75 32.0996C151.327 31.9108 150.848 31.8164 150.314 31.8164C149.781 31.8164 149.299 31.9108 148.869 32.0996C148.446 32.2884 148.088 32.5488 147.795 32.8809C147.502 33.2129 147.277 33.6003 147.121 34.043C146.971 34.4792 146.896 34.9577 146.896 35.4785C146.896 35.9993 146.971 36.4811 147.121 36.9238C147.277 37.36 147.502 37.7376 147.795 38.0566C148.088 38.3757 148.446 38.6263 148.869 38.8086C149.299 38.9909 149.781 39.082 150.314 39.082C150.848 39.082 151.327 38.9909 151.75 38.8086C152.18 38.6263 152.544 38.3757 152.844 38.0566C153.143 37.7376 153.368 37.36 153.518 36.9238C153.674 36.4811 153.752 35.9993 153.752 35.4785ZM165.773 35.1953H164.631V32.041H161.896V38.8574H163.947V40H158.488V38.8574H160.549V32.041H157.814V35.1953H156.672V30.8984H165.773V35.1953ZM176.691 35.459C176.691 36.1686 176.581 36.8132 176.359 37.3926C176.138 37.972 175.826 38.4733 175.422 38.8965C175.025 39.3132 174.543 39.6387 173.977 39.873C173.41 40.1074 172.775 40.2246 172.072 40.2246C171.59 40.2246 171.122 40.1367 170.666 39.9609C170.217 39.7852 169.797 39.5247 169.406 39.1797V43.6426H168.068V30.8984H169.406V31.7383C170.233 31.0352 171.122 30.6836 172.072 30.6836C172.775 30.6836 173.41 30.8008 173.977 31.0352C174.543 31.263 175.025 31.5918 175.422 32.0215C175.826 32.4447 176.138 32.9525 176.359 33.5449C176.581 34.1309 176.691 34.7689 176.691 35.459ZM175.354 35.459C175.354 34.9512 175.282 34.4759 175.139 34.0332C175.002 33.584 174.794 33.1966 174.514 32.8711C174.234 32.5456 173.889 32.2884 173.479 32.0996C173.075 31.9108 172.606 31.8164 172.072 31.8164C171.564 31.8164 171.089 31.9108 170.646 32.0996C170.21 32.2884 169.797 32.5944 169.406 33.0176V37.9004C169.797 38.3236 170.21 38.6263 170.646 38.8086C171.089 38.9909 171.564 39.082 172.072 39.082C172.606 39.082 173.075 38.9876 173.479 38.7988C173.889 38.61 174.234 38.3529 174.514 38.0273C174.794 37.7018 175.002 37.321 175.139 36.8848C175.282 36.4421 175.354 35.9668 175.354 35.459Z" fill="black"/>
<circle cx="17.5" cy="17.5" r="7.5" fill="#3C604F"/>
<rect x="0.25" y="0.25" width="225.5" height="67.5" stroke="black" stroke-width="0.5"/>
</svg>
