<svg width="48" height="48" viewBox="0 0 48 48" fill="none" xmlns="http://www.w3.org/2000/svg">
<rect x="0.5" y="0.5" width="47" height="47" fill="#E6E5E3" stroke="black"/>
<mask id="path-2-inside-1" fill="white">
<path fill-rule="evenodd" clip-rule="evenodd" d="M26.7708 14.3888C27.4965 14.5977 28.1883 14.8865 28.8361 15.2451L36.021 11.9792L32.7551 19.1642C33.1136 19.8119 33.4024 20.5036 33.6112 21.2292L41 24L33.6112 26.7708C33.4023 27.4965 33.1136 28.1882 32.755 28.836L36.0209 36.0209L28.8359 32.755C28.1882 33.1136 27.4964 33.4023 26.7708 33.6112L24 41L21.2292 33.6112C20.5036 33.4023 19.8119 33.1136 19.1641 32.7551L11.9793 36.0209L15.2451 28.8362C14.8865 28.1884 14.5977 27.4965 14.3888 26.7708L7 24L14.3888 21.2292C14.5977 20.5035 14.8864 19.8118 15.245 19.164L11.9792 11.9793L19.1639 15.245C19.8117 14.8865 20.5035 14.5977 21.2292 14.3888L24 7L26.7708 14.3888Z"/>
</mask>
<path fill-rule="evenodd" clip-rule="evenodd" d="M26.7708 14.3888C27.4965 14.5977 28.1883 14.8865 28.8361 15.2451L36.021 11.9792L32.7551 19.1642C33.1136 19.8119 33.4024 20.5036 33.6112 21.2292L41 24L33.6112 26.7708C33.4023 27.4965 33.1136 28.1882 32.755 28.836L36.0209 36.0209L28.8359 32.755C28.1882 33.1136 27.4964 33.4023 26.7708 33.6112L24 41L21.2292 33.6112C20.5036 33.4023 19.8119 33.1136 19.1641 32.7551L11.9793 36.0209L15.2451 28.8362C14.8865 28.1884 14.5977 27.4965 14.3888 26.7708L7 24L14.3888 21.2292C14.5977 20.5035 14.8864 19.8118 15.245 19.164L11.9792 11.9793L19.1639 15.245C19.8117 14.8865 20.5035 14.5977 21.2292 14.3888L24 7L26.7708 14.3888Z" fill="#3C604F"/>
<path d="M26.7708 14.3888L25.8345 14.74L26.011 15.2108L26.4943 15.3498L26.7708 14.3888ZM28.8361 15.2451L28.3518 16.12L28.7919 16.3636L29.2499 16.1554L28.8361 15.2451ZM36.021 11.9792L36.9313 12.393L38.0348 9.96539L35.6072 11.0689L36.021 11.9792ZM32.7551 19.1642L31.8447 18.7504L31.6366 19.2083L31.8802 19.6485L32.7551 19.1642ZM33.6112 21.2292L32.6502 21.5057L32.7892 21.989L33.26 22.1655L33.6112 21.2292ZM41 24L41.3511 24.9363L43.848 24L41.3511 23.0637L41 24ZM33.6112 26.7708L33.26 25.8345L32.7892 26.011L32.6502 26.4943L33.6112 26.7708ZM32.755 28.836L31.8801 28.3517L31.6365 28.7918L31.8446 29.2498L32.755 28.836ZM36.0209 36.0209L35.6071 36.9313L38.0347 38.0347L36.9312 35.6071L36.0209 36.0209ZM28.8359 32.755L29.2497 31.8447L28.7918 31.6365L28.3516 31.8801L28.8359 32.755ZM26.7708 33.6112L26.4943 32.6502L26.011 32.7892L25.8345 33.26L26.7708 33.6112ZM24 41L23.0637 41.3511L24 43.848L24.9363 41.3511L24 41ZM21.2292 33.6112L22.1655 33.26L21.989 32.7892L21.5057 32.6502L21.2292 33.6112ZM19.1641 32.7551L19.6484 31.8801L19.2083 31.6365L18.7503 31.8447L19.1641 32.7551ZM11.9793 36.0209L11.069 35.6071L9.96551 38.0347L12.3932 36.9312L11.9793 36.0209ZM15.2451 28.8362L16.1555 29.25L16.3637 28.792L16.12 28.3519L15.2451 28.8362ZM14.3888 26.7708L15.3498 26.4943L15.2108 26.011L14.74 25.8345L14.3888 26.7708ZM7 24L6.64888 23.0637L4.152 24L6.64888 24.9363L7 24ZM14.3888 21.2292L14.74 22.1655L15.2108 21.989L15.3498 21.5057L14.3888 21.2292ZM15.245 19.164L16.1199 19.6483L16.3636 19.2082L16.1554 18.7502L15.245 19.164ZM11.9792 11.9793L12.393 11.0689L9.96539 9.96542L11.0689 12.3931L11.9792 11.9793ZM19.1639 15.245L18.7501 16.1554L19.2081 16.3636L19.6482 16.1199L19.1639 15.245ZM21.2292 14.3888L21.5057 15.3498L21.989 15.2108L22.1655 14.74L21.2292 14.3888ZM24 7L24.9363 6.64888L24 4.152L23.0637 6.64888L24 7ZM26.4943 15.3498C27.1467 15.5376 27.7689 15.7973 28.3518 16.12L29.3204 14.3702C28.6077 13.9756 27.8463 13.6577 27.0474 13.4278L26.4943 15.3498ZM35.6072 11.0689L28.4223 14.3347L29.2499 16.1554L36.4348 12.8896L35.6072 11.0689ZM33.6655 19.578L36.9313 12.393L35.1106 11.5654L31.8447 18.7504L33.6655 19.578ZM31.8802 19.6485C32.2028 20.2313 32.4624 20.8534 32.6502 21.5057L34.5722 20.9526C34.3423 20.1539 34.0245 19.3925 33.63 18.6799L31.8802 19.6485ZM33.26 22.1655L40.6489 24.9363L41.3511 23.0637L33.9623 20.2929L33.26 22.1655ZM40.6489 23.0637L33.26 25.8345L33.9623 27.7071L41.3511 24.9363L40.6489 23.0637ZM32.6502 26.4943C32.4624 27.1467 32.2027 27.7689 31.8801 28.3517L33.6299 29.3203C34.0244 28.6076 34.3423 27.8462 34.5722 27.0474L32.6502 26.4943ZM31.8446 29.2498L35.1105 36.4347L36.9312 35.6071L33.6654 28.4222L31.8446 29.2498ZM36.4347 35.1105L29.2497 31.8447L28.4221 33.6654L35.6071 36.9313L36.4347 35.1105ZM28.3516 31.8801C27.7688 32.2027 27.1467 32.4624 26.4943 32.6502L27.0474 34.5722C27.8462 34.3423 28.6076 34.0244 29.3202 33.6299L28.3516 31.8801ZM25.8345 33.26L23.0637 40.6489L24.9363 41.3511L27.7071 33.9623L25.8345 33.26ZM24.9363 40.6489L22.1655 33.26L20.2929 33.9623L23.0637 41.3511L24.9363 40.6489ZM21.5057 32.6502C20.8533 32.4624 20.2312 32.2028 19.6484 31.8801L18.6798 33.63C19.3925 34.0244 20.1538 34.3423 20.9526 34.5722L21.5057 32.6502ZM18.7503 31.8447L11.5655 35.1105L12.3932 36.9312L19.5779 33.6654L18.7503 31.8447ZM12.8897 36.4347L16.1555 29.25L14.3347 28.4224L11.069 35.6071L12.8897 36.4347ZM16.12 28.3519C15.7973 27.769 15.5376 27.1468 15.3498 26.4943L13.4278 27.0474C13.6578 27.8463 13.9757 28.6077 14.3702 29.3205L16.12 28.3519ZM6.64888 24.9363L14.0377 27.7071L14.74 25.8345L7.35112 23.0637L6.64888 24.9363ZM14.0377 20.2929L6.64888 23.0637L7.35112 24.9363L14.74 22.1655L14.0377 20.2929ZM15.3498 21.5057C15.5376 20.8533 15.7973 20.2311 16.1199 19.6483L14.3701 18.6797C13.9756 19.3924 13.6577 20.1538 13.4278 20.9526L15.3498 21.5057ZM11.0689 12.3931L14.3346 19.5778L16.1554 18.7502L12.8896 11.5655L11.0689 12.3931ZM19.5777 14.3347L12.393 11.0689L11.5654 12.8896L18.7501 16.1554L19.5777 14.3347ZM19.6482 16.1199C20.2311 15.7973 20.8533 15.5376 21.5057 15.3498L20.9526 13.4278C20.1538 13.6577 19.3923 13.9756 18.6796 14.3701L19.6482 16.1199ZM22.1655 14.74L24.9363 7.35112L23.0637 6.64888L20.2929 14.0377L22.1655 14.74ZM23.0637 7.35112L25.8345 14.74L27.7071 14.0377L24.9363 6.64888L23.0637 7.35112Z" fill="black" mask="url(#path-2-inside-1)"/>
</svg>
