<svg width="48" height="48" viewBox="0 0 48 48" fill="none" xmlns="http://www.w3.org/2000/svg">
<rect x="0.5" y="0.5" width="47" height="47" fill="#3C604F" stroke="black"/>
<mask id="path-2-inside-1" fill="white">
<path fill-rule="evenodd" clip-rule="evenodd" d="M14.321 32.1071C24.144 32.1071 32.107 24.1441 32.107 14.3212C32.107 11.7114 31.5449 9.2328 30.5351 7C36.7062 9.79075 41.0001 16.001 41.0001 23.2141C41.0001 33.037 33.037 41.0001 23.2141 41.0001C16.001 41.0001 9.7908 36.7063 7 30.5353C9.23275 31.545 11.7112 32.1071 14.321 32.1071Z"/>
</mask>
<path fill-rule="evenodd" clip-rule="evenodd" d="M14.321 32.1071C24.144 32.1071 32.107 24.1441 32.107 14.3212C32.107 11.7114 31.5449 9.2328 30.5351 7C36.7062 9.79075 41.0001 16.001 41.0001 23.2141C41.0001 33.037 33.037 41.0001 23.2141 41.0001C16.001 41.0001 9.7908 36.7063 7 30.5353C9.23275 31.545 11.7112 32.1071 14.321 32.1071Z" fill="#E6E5E3"/>
<path d="M30.5351 7L30.9472 6.08884L28.5315 4.9964L29.624 7.41207L30.5351 7ZM7 30.5353L7.41205 29.6242L4.99637 28.5317L6.08885 30.9474L7 30.5353ZM31.107 14.3212C31.107 23.5918 23.5917 31.1071 14.321 31.1071V33.1071C24.6962 33.1071 33.107 24.6964 33.107 14.3212H31.107ZM29.624 7.41207C30.5763 9.51795 31.107 11.8562 31.107 14.3212H33.107C33.107 11.5665 32.5134 8.94765 31.4463 6.58793L29.624 7.41207ZM30.1231 7.91116C35.9494 10.546 40.0001 16.4081 40.0001 23.2141H42.0001C42.0001 15.5939 37.463 9.03551 30.9472 6.08884L30.1231 7.91116ZM40.0001 23.2141C40.0001 32.4847 32.4847 40.0001 23.2141 40.0001V42.0001C33.5893 42.0001 42.0001 33.5893 42.0001 23.2141H40.0001ZM23.2141 40.0001C16.4081 40.0001 10.546 35.9495 7.91115 30.1233L6.08885 30.9474C9.03557 37.4631 15.5939 42.0001 23.2141 42.0001V40.0001ZM14.321 31.1071C11.8561 31.1071 9.51789 30.5765 7.41205 29.6242L6.58795 31.4465C8.94761 32.5136 11.5664 33.1071 14.321 33.1071V31.1071Z" fill="black" mask="url(#path-2-inside-1)"/>
</svg>
