<svg width="1280" height="97" viewBox="0 0 1280 97" fill="none" xmlns="http://www.w3.org/2000/svg">
<rect width="1280" height="97" fill="#E6E5E3"/>
<path d="M1280 0H0V97H1280V0Z" fill="#E6E5E3"/>
<path d="M16 1V96" stroke="#8AA97E" stroke-width="0.2"/>
<path d="M140 1V96" stroke="#8AA97E" stroke-width="0.2"/>
<path d="M264 1V96" stroke="#8AA97E" stroke-width="0.2"/>
<path d="M388 1V96" stroke="#8AA97E" stroke-width="0.2"/>
<path d="M512 1V96" stroke="#8AA97E" stroke-width="0.2"/>
<path d="M636 1V96" stroke="#8AA97E" stroke-width="0.2"/>
<path d="M760 1V96" stroke="#8AA97E" stroke-width="0.2"/>
<path d="M884 1V96" stroke="#8AA97E" stroke-width="0.2"/>
<path d="M1008 1V96" stroke="#8AA97E" stroke-width="0.2"/>
<path d="M1132 1V96" stroke="#8AA97E" stroke-width="0.2"/>
<path d="M80 1V96" stroke="#8AA97E" stroke-width="0.2"/>
<path d="M204 1V96" stroke="#8AA97E" stroke-width="0.2"/>
<path d="M0 52H1280" stroke="#8AA97E" stroke-width="0.2"/>
<path d="M328 1V96" stroke="#8AA97E" stroke-width="0.2"/>
<path d="M452 1V96" stroke="#8AA97E" stroke-width="0.2"/>
<path d="M576 1V96" stroke="#8AA97E" stroke-width="0.2"/>
<path d="M700 1V96" stroke="#8AA97E" stroke-width="0.2"/>
<path d="M824 1V96" stroke="#8AA97E" stroke-width="0.2"/>
<path d="M948 1V96" stroke="#8AA97E" stroke-width="0.2"/>
<path d="M1072 1V96" stroke="#8AA97E" stroke-width="0.2"/>
<path d="M1196 1V96" stroke="#8AA97E" stroke-width="0.2"/>
<path d="M1256 1V96" stroke="#8AA97E" stroke-width="0.2"/>
</svg>
