<svg width="1280" height="95" viewBox="0 0 1280 95" fill="none" xmlns="http://www.w3.org/2000/svg">
<path d="M16 0L16 95" stroke="#8AA97E" stroke-width="0.2"/>
<path d="M140 0L140 95" stroke="#8AA97E" stroke-width="0.2"/>
<path d="M264 0L264 95" stroke="#8AA97E" stroke-width="0.2"/>
<path d="M388 0L388 95" stroke="#8AA97E" stroke-width="0.2"/>
<path d="M512 0L512 95" stroke="#8AA97E" stroke-width="0.2"/>
<path d="M636 0L636 95" stroke="#8AA97E" stroke-width="0.2"/>
<path d="M760 0L760 95" stroke="#8AA97E" stroke-width="0.2"/>
<path d="M884 0L884 95" stroke="#8AA97E" stroke-width="0.2"/>
<path d="M1008 0L1008 95" stroke="#8AA97E" stroke-width="0.2"/>
<path d="M1132 0L1132 95" stroke="#8AA97E" stroke-width="0.2"/>
<path d="M80 0L80 95" stroke="#8AA97E" stroke-width="0.2"/>
<path d="M204 0L204 95" stroke="#8AA97E" stroke-width="0.2"/>
<path d="M0 51L1280 51" stroke="#8AA97E" stroke-width="0.2"/>
<path d="M328 0L328 95" stroke="#8AA97E" stroke-width="0.2"/>
<path d="M452 0L452 95" stroke="#8AA97E" stroke-width="0.2"/>
<path d="M576 0L576 95" stroke="#8AA97E" stroke-width="0.2"/>
<path d="M700 0L700 95" stroke="#8AA97E" stroke-width="0.2"/>
<path d="M824 0L824 95" stroke="#8AA97E" stroke-width="0.2"/>
<path d="M948 0L948 95" stroke="#8AA97E" stroke-width="0.2"/>
<path d="M1072 0L1072 95" stroke="#8AA97E" stroke-width="0.2"/>
<path d="M1196 0L1196 95" stroke="#8AA97E" stroke-width="0.2"/>
<path d="M1256 0L1256 95" stroke="#8AA97E" stroke-width="0.2"/>
</svg>
