<svg width="697" height="335" viewBox="0 0 697 335" fill="none" xmlns="http://www.w3.org/2000/svg">
<path d="M183.501 94.9139C180.697 87.9046 175.401 81.9857 168.703 78.5589C155.308 71.5496 137.862 75.4437 126.492 85.4124C114.965 95.3812 108.891 110.179 106.398 125.132C104.374 137.437 104.685 150.521 109.981 161.892C115.121 173.262 125.869 182.608 138.33 184.01C150.791 185.412 164.186 177.156 166.678 164.851C159.825 164.539 152.816 165.786 145.962 165.163C136.461 164.228 127.426 159.088 121.819 151.455C116.056 143.823 113.875 133.854 115.588 124.509C118.859 130.739 135.37 130.272 141.601 130.739C153.127 131.674 164.653 131.518 176.024 130.116C177.27 129.96 178.672 129.805 179.762 129.026C181.008 128.247 181.631 126.845 182.255 125.443C186.149 115.786 187.239 104.571 183.501 94.9139ZM171.195 122.172C167.769 125.755 162.473 126.534 157.488 126.222C149.077 125.599 140.822 122.484 134.28 117.188C111.85 98.9637 147.675 74.8206 164.186 86.5028C169.171 90.0853 171.195 96.3158 172.909 102.235C173.843 105.661 174.778 109.088 174.778 112.515C174.622 116.098 173.688 119.68 171.195 122.172Z" fill="#1D1D1B"/>
<path d="M356.395 0.366313C357.641 0.366313 359.199 0.522075 359.822 1.61241C360.289 2.23546 360.133 3.01427 360.133 3.79308C359.822 8.77746 359.51 13.7618 359.199 18.7462C335.834 16.5656 312.159 16.0983 288.794 17.1886C300.165 41.3317 302.657 68.59 304.059 95.0696C305.772 129.337 305.461 163.761 303.436 198.028C298.296 193.978 291.287 192.109 284.9 193.2C287.86 177.779 284.277 161.891 280.851 146.627C274.62 118.901 269.013 91.0198 266.676 62.8268C265.43 47.4064 265.119 31.2072 257.798 17.5001C257.33 16.5656 256.707 15.631 255.773 15.0079C254.527 14.2291 252.969 14.3849 251.412 14.5406C240.041 15.631 214.652 19.9923 217.923 1.45665C240.197 -1.50283 264.651 0.989361 287.081 0.833599C310.134 0.677837 333.342 0.522075 356.395 0.366313Z" fill="#1D1D1B"/>
<path d="M319.636 70.9272C339.886 70.9272 360.29 72.6406 380.228 76.0674C382.097 76.3789 384.278 76.8462 385.524 78.4038C386.614 79.8057 386.77 81.6748 386.77 83.3882C386.926 88.9956 386.926 94.4473 387.081 100.055C377.268 95.5376 366.832 92.5782 356.085 91.3321C352.191 90.8648 347.674 90.8648 345.181 93.8242C343.001 96.1607 342.845 99.7432 342.845 103.014C342.845 110.958 342.845 118.902 343.001 126.69C343.001 128.248 343.156 129.961 344.247 131.051C345.493 132.297 347.674 132.142 349.543 131.986C358.577 130.74 367.767 129.026 376.645 127.002C377.268 132.453 378.047 137.905 378.67 143.512C378.826 144.603 378.982 145.693 378.514 146.628C377.58 148.497 375.088 148.652 373.063 148.652C364.807 148.652 356.396 148.652 348.141 148.497C346.739 148.497 345.337 148.497 344.403 149.587C343.624 150.366 343.624 151.612 343.468 152.858C343.156 161.269 342.845 169.68 342.533 178.247C342.533 179.649 342.533 181.207 343.468 182.297C344.87 183.699 347.362 183.076 349.387 182.297C357.487 179.182 366.365 178.091 375.088 179.026C375.711 187.593 374.932 196.16 372.907 204.415C372.596 205.661 372.128 207.063 370.882 207.53C369.948 207.842 368.857 207.53 367.923 207.063C353.593 201.3 338.016 198.496 322.44 198.808C321.194 198.808 319.792 198.808 319.169 197.717C318.858 197.25 318.858 196.783 318.858 196.16C317.144 171.238 315.587 146.316 313.873 121.238C313.25 112.048 318.546 108.622 320.571 100.678C322.596 91.6436 320.104 79.9614 319.636 70.9272Z" fill="#1D1D1B"/>
<path d="M415.895 204.572C423.216 204.572 430.537 204.572 437.858 204.572C437.079 179.494 436.3 154.417 439.571 129.651C440.661 121.551 442.219 113.296 446.113 105.975C450.007 98.654 456.549 92.4235 464.493 90.7101C471.347 89.3082 478.356 91.0216 485.054 92.8908C484.898 86.8161 484.586 80.7413 484.431 74.6666C462.624 71.3956 439.415 79.1837 423.995 95.0714C424.618 90.3986 425.241 85.8815 426.02 81.2086C413.87 85.1027 416.207 89.6198 416.363 101.769C416.518 113.296 416.674 124.822 416.83 136.348C416.674 158.934 416.518 181.675 415.895 204.572Z" fill="#1D1D1B"/>
<path d="M499.074 287.904C498.607 301.299 498.139 314.851 497.828 328.246C497.828 329.337 497.828 330.583 498.451 331.361C499.074 332.14 500.32 332.452 501.41 332.608C505.616 333.231 509.977 334.009 514.183 334.632C516.831 335.1 519.946 335.411 522.127 333.698C524.152 331.984 524.463 328.869 524.463 326.221C524.152 313.449 521.348 300.832 519.946 288.215C516.208 255.038 521.971 221.705 522.594 188.372C523.061 165.942 521.192 143.357 523.684 120.927C524.307 115.008 525.398 108.778 528.98 103.949C533.03 98.4974 539.572 95.5379 546.114 93.8245C554.369 91.4881 562.936 90.5535 571.503 90.865C574.463 91.0208 578.98 89.4632 577.578 86.6595C576.955 85.2576 575.241 84.9461 573.684 84.9461C554.992 83.3885 536.145 84.0115 517.61 86.5037C516.675 86.6595 515.585 86.8152 514.65 86.5037C511.223 85.4134 511.691 80.5848 512.158 77.9368C497.672 75.4446 501.41 90.5535 501.566 99.5877C501.878 114.697 502.033 129.806 502.033 144.914C502.033 175.288 501.41 205.817 500.631 236.191C500.164 253.325 499.697 270.614 499.074 287.904Z" fill="#1D1D1B"/>
<path d="M695.957 184.631C693.621 183.541 691.128 185.566 689.104 187.123C687.079 188.681 683.963 190.083 682.25 188.214C681.627 187.59 681.471 186.812 681.16 186.033C677.266 174.351 673.527 162.513 673.216 150.208C673.06 140.395 675.241 130.893 677.266 121.392C679.758 110.488 682.094 99.7408 684.586 88.8374C675.241 87.5913 665.272 93.3545 661.845 102.233C659.976 107.062 659.509 113.604 654.68 116.407C653.59 104.258 640.973 97.8716 629.603 97.2486C620.724 96.7813 611.534 100.52 606.394 107.685C602.967 112.357 601.565 118.121 600.008 123.728C598.294 130.582 596.425 137.435 594.712 144.444C592.531 153.323 590.195 162.357 590.818 171.391C591.441 180.425 595.491 189.927 603.279 194.756C608.263 197.871 614.338 198.805 620.257 199.584C625.553 200.363 631.16 200.986 635.989 198.805C639.104 197.403 641.596 194.911 643.777 192.263C652.811 181.36 657.328 167.497 661.845 154.102C660.288 162.669 658.574 171.391 659.976 179.958C661.378 188.525 666.518 197.092 674.618 200.207C678.044 201.453 681.938 201.765 685.521 200.986C692.219 198.805 698.294 191.485 695.957 184.631ZM649.073 154.725C648.605 160.488 646.892 166.407 643.154 170.924C636.612 178.712 623.684 180.425 615.74 174.039C610.132 169.522 607.64 162.046 605.459 155.192C604.213 150.986 602.967 146.625 602.967 142.264C602.811 120.457 635.677 105.66 645.802 129.491C646.892 131.983 647.204 134.631 647.671 137.279C648.605 143.043 649.384 148.806 649.073 154.725Z" fill="#1D1D1B"/>
<path d="M18.7035 196.161C24.1551 191.644 31.6317 190.554 38.641 189.775C48.9213 188.529 59.3573 187.127 69.6376 185.881C72.9086 185.414 76.1796 185.102 78.8276 183.233C83.1889 180.274 84.435 174.51 85.3696 169.215C91.7558 133.389 96.1171 97.0968 98.6093 60.8043C99.0766 53.795 99.5439 46.4742 96.5844 40.0879C92.5346 30.898 82.8774 25.6021 73.3759 22.3311C52.1923 14.8545 29.1395 14.0757 6.55404 13.4526C5.15219 13.4526 3.75033 13.4526 2.50423 14.2314C1.10238 15.166 0.790853 17.0352 0.479329 18.5928C-0.29948 23.2656 -0.611004 29.1846 3.43881 31.8325C4.99642 32.7671 6.86557 32.9229 8.57895 33.2344C19.3265 34.169 30.2299 34.4805 40.3544 37.7515C50.4789 41.0225 60.4477 47.5645 64.3417 57.689C66.2109 62.6734 66.6781 67.9693 66.8339 73.2652C68.2358 101.147 67.4569 129.028 64.4975 156.754C64.0302 161.115 63.4071 165.788 60.9149 169.37C56.0863 176.068 46.5849 176.691 38.3295 176.691C36.6161 176.691 34.7469 176.691 33.3451 175.445C32.099 174.355 31.6317 172.486 31.476 170.772C25.557 133.701 19.4823 96.1622 24.3109 58.9351C24.9339 54.1065 25.7128 48.8106 23.2206 44.605C21.3514 41.334 15.1209 38.8418 12.1615 42.1128C9.51352 44.7608 12.6288 57.066 12.7845 60.8043C13.8749 75.7574 14.6537 90.7106 15.4325 105.664C17.1459 135.882 18.0804 165.944 18.7035 196.161Z" fill="#1D1D1B"/>
</svg>
