<svg width="17" height="30" viewBox="0 0 17 30" fill="none" xmlns="http://www.w3.org/2000/svg">
<path d="M3.03459 29.644C3.91911 28.9111 5.13217 28.7342 6.2694 28.6079C7.93735 28.4057 9.63058 28.1783 11.2985 27.9761C11.8292 27.9003 12.3599 27.8497 12.7896 27.5465C13.4972 27.0663 13.6994 26.1312 13.851 25.272C14.8871 19.4594 15.5948 13.5711 15.9991 7.68268C16.0749 6.54544 16.1507 5.35766 15.6706 4.32151C15.0135 2.83046 13.4466 1.97121 11.9051 1.4405C8.46807 0.227448 4.72781 0.101088 1.06338 0C0.835929 0 0.608481 0 0.406306 0.12636C0.178858 0.277992 0.128314 0.581255 0.0777699 0.833975C-0.0485899 1.59213 -0.0991339 2.55247 0.557937 2.98209C0.810657 3.13373 1.11392 3.159 1.39191 3.20954C3.13568 3.36117 4.90472 3.41172 6.5474 3.94243C8.19007 4.47314 9.80748 5.53456 10.4393 7.17724C10.7425 7.98595 10.8184 8.84519 10.8436 9.70444C11.0711 14.2281 10.9447 18.7518 10.4646 23.2502C10.3887 23.9578 10.2876 24.716 9.8833 25.2973C9.09987 26.3839 7.55828 26.485 6.21886 26.485C5.94087 26.485 5.6376 26.485 5.41016 26.2829C5.20798 26.106 5.13217 25.8027 5.10689 25.5247C4.14656 19.51 3.16095 13.4194 3.94438 7.37942C4.04547 6.59599 4.17183 5.73674 3.76748 5.0544C3.46421 4.52368 2.45334 4.11933 1.97317 4.65004C1.54354 5.07967 2.04898 7.07615 2.07426 7.68268C2.25116 10.1088 2.37752 12.5349 2.50388 14.961C2.78187 19.8638 2.9335 24.7413 3.03459 29.644Z" fill="#1D1D1B"/>
</svg>
