<svg width="1030" height="82" viewBox="0 0 1030 82" fill="none" xmlns="http://www.w3.org/2000/svg">
<rect width="1030" height="82" fill="#3C604F"/>
<path d="M35 1L35 81" stroke="#8AA97E"/>
<path d="M483 1L483 81" stroke="#8AA97E"/>
<path d="M99 1L99 81" stroke="#8AA97E"/>
<path d="M547 1L547 81" stroke="#8AA97E"/>
<path d="M163 1L163 81" stroke="#8AA97E"/>
<path d="M611 1L611 81" stroke="#8AA97E"/>
<path d="M1 41L1029 41" stroke="#8AA97E"/>
<path d="M227 1L227 81" stroke="#8AA97E"/>
<path d="M675 1L675 81" stroke="#8AA97E"/>
<path d="M291 1L291 81" stroke="#8AA97E"/>
<path d="M739 1L739 81" stroke="#8AA97E"/>
<path d="M355 1L355 81" stroke="#8AA97E"/>
<path d="M803 1L803 81" stroke="#8AA97E"/>
<path d="M931 0L931 80" stroke="#8AA97E"/>
<path d="M419 1L419 81" stroke="#8AA97E"/>
<path d="M867 1L867 81" stroke="#8AA97E"/>
<path d="M995 0L995 80" stroke="#8AA97E"/>
</svg>
