<svg width="193" height="193" viewBox="0 0 193 193" fill="none" xmlns="http://www.w3.org/2000/svg">
<circle cx="96.5" cy="96.5" r="96" stroke="black"/>
<path d="M136.714 117.782L137.747 114.717L147.031 117.846L151.216 105.431L141.932 102.301L142.958 99.2588L163.657 106.236L162.631 109.279L153.814 106.307L149.629 118.722L158.446 121.694L157.413 124.759L136.714 117.782Z" fill="black"/>
<path d="M60.6081 151.72L58.3211 149.467L70.693 136.914L49.908 141.175L46.6863 138L62.0195 122.442L64.3231 124.712L51.3919 137.833L73.1035 133.366L75.9413 136.163L60.6081 151.72Z" fill="black"/>
<path d="M93.0535 49.2183L96.5309 58.9268L93.8169 59.8989L91.2958 52.8602L71.8125 59.8387L64.4468 39.2743L67.4697 38.1916L73.9108 56.1744L86.245 51.7565L79.8039 33.7737L82.8489 32.6831L89.2583 50.5776L93.0535 49.2183Z" fill="black"/>
</svg>
